<svg width="54" height="54" viewBox="0 0 54 54" fill="none" xmlns="http://www.w3.org/2000/svg">
<path d="M53.3479 26.9538C53.3442 32.1627 51.7962 37.2537 48.8997 41.583C46.0031 45.9123 41.8879 49.2856 37.0744 51.2765C32.2609 53.2674 26.9652 53.7864 21.8568 52.768C16.7484 51.7495 12.0566 49.2393 8.3746 45.5548C4.69259 41.8702 2.18567 37.1767 1.17079 32.0675C0.155904 26.9584 0.67862 21.663 2.67284 16.8509C4.66706 12.0388 8.04327 7.92602 12.3746 5.03245C16.706 2.13889 21.798 0.594484 27.0069 0.594482C30.4676 0.594482 33.8944 1.27643 37.0914 2.60133C40.2884 3.92624 43.193 5.86814 45.6393 8.31606C48.0855 10.764 50.0254 13.67 51.3481 16.8679C52.6707 20.0659 53.3503 23.4931 53.3479 26.9538V26.9538Z" fill="white"/>
<path d="M53.3478 27.4959C53.3478 32.7056 51.803 37.7983 48.9086 42.1301C46.0142 46.4618 41.9003 49.838 37.0871 51.8317C32.2739 53.8254 26.9777 54.347 21.868 53.3306C16.7584 52.3143 12.0649 49.8055 8.38103 46.1217C4.69719 42.4379 2.18846 37.7443 1.17209 32.6347C0.155724 27.5251 0.677355 22.2288 2.67104 17.4156C4.66472 12.6024 8.0409 8.48855 12.3726 5.59417C16.7044 2.69979 21.7972 1.15491 27.0069 1.15491C33.9929 1.15491 40.6928 3.9301 45.6327 8.86999C50.5726 13.8099 53.3478 20.5098 53.3478 27.4959V27.4959Z" fill="url(#paint0_linear_0_2260)"/>
<path d="M24.1953 28.7262H29.761L26.9781 20.2673L24.1953 28.7262Z" fill="url(#paint1_linear_0_2260)"/>
<path d="M27.0077 4.99402C22.5573 4.99402 18.2067 6.31373 14.5063 8.78627C10.8059 11.2588 7.9218 14.7731 6.21869 18.8848C4.51558 22.9964 4.06997 27.5208 4.9382 31.8857C5.80644 36.2507 7.94955 40.2601 11.0965 43.407C14.2434 46.554 18.2529 48.6971 22.6178 49.5653C26.9827 50.4336 31.5071 49.988 35.6188 48.2848C39.7304 46.5817 43.2447 43.6976 45.7173 39.9972C48.1898 36.2968 49.5095 31.9463 49.5095 27.4959C49.5107 24.5405 48.9295 21.6139 47.7991 18.8833C46.6687 16.1527 45.0113 13.6717 42.9216 11.582C40.8318 9.49223 38.3508 7.83481 35.6202 6.70441C32.8896 5.57402 29.963 4.99281 27.0077 4.99402ZM32.1969 36.2211L30.8652 32.1064H23.1043L21.8277 36.2211H17.4834L24.0871 17.6318C24.2206 17.2233 24.4862 16.8708 24.842 16.6297C25.1978 16.3886 25.6236 16.2727 26.0525 16.3H29.2946L36.5411 36.2211H32.1969Z" fill="url(#paint2_linear_0_2260)"/>
<defs>
<linearGradient id="paint0_linear_0_2260" x1="4.10094" y1="41.447" x2="49.0954" y2="14.0315" gradientUnits="userSpaceOnUse">
<stop stop-color="#E6E7E8"/>
<stop offset="1" stop-color="white"/>
</linearGradient>
<linearGradient id="paint1_linear_0_2260" x1="9.83085" y1="43.0263" x2="41.7651" y2="11.1013" gradientUnits="userSpaceOnUse">
<stop offset="0.15" stop-color="#F15A24"/>
<stop offset="1" stop-color="#F18C68"/>
</linearGradient>
<linearGradient id="paint2_linear_0_2260" x1="10.6594" y1="43.8441" x2="42.5845" y2="11.9191" gradientUnits="userSpaceOnUse">
<stop offset="0.09" stop-color="#F7931E"/>
<stop offset="1" stop-color="#FFA640"/>
</linearGradient>
</defs>
</svg>
