<svg width="99" height="91" viewBox="0 0 99 91" fill="none" xmlns="http://www.w3.org/2000/svg">
<path opacity="0.4" fill-rule="evenodd" clip-rule="evenodd" d="M3.47866 86.2543C1.56516 85.9899 0.000232827 85.5323 0.000232827 85.2357C0.000232827 84.9398 1.30959 83.7901 2.90967 82.6814C4.50975 81.5727 7.32397 79.0565 9.16351 77.0896C11.0031 75.1226 12.6192 73.5137 12.7547 73.5137C12.8909 73.5137 12.8301 75.0391 12.62 76.9035C12.3205 79.5603 12.4977 80.4398 13.4416 80.9678C14.9846 81.8312 14.997 83.0336 13.4636 83.0336C12.3747 83.0336 12.3747 83.1794 13.4636 84.8644C14.1139 85.8713 15.1413 87.4619 15.7454 88.3992L16.8454 90.1025L11.9009 88.4182C9.18183 87.4919 5.39217 86.5179 3.47866 86.2543ZM16.9808 81.0279C17.2877 79.4373 19.7724 78.839 19.7724 80.3556C19.7724 81.3618 18.8189 82.1014 17.3389 82.2435C17.0072 82.275 16.8461 81.7287 16.9808 81.0279ZM22.1523 79.1891C22.6137 77.8035 24.8985 77.6066 24.8985 78.9525C24.8985 79.6314 24.2723 80.1044 23.3731 80.1044C22.4782 80.1044 21.9729 79.7258 22.1523 79.1891ZM27.0954 77.6197C27.0954 76.3778 29.0755 75.5005 29.6782 76.4752C29.9162 76.8603 29.9074 77.5048 29.6584 77.9075C28.9818 79.0023 27.0954 78.7907 27.0954 77.6197ZM32.2215 75.3445C32.2215 74.7345 32.8725 74.246 33.6861 74.246C35.1448 74.246 35.5908 75.0267 34.6622 75.9545C33.7703 76.8464 32.2215 76.459 32.2215 75.3445ZM37.0041 73.5503C36.7676 73.1681 37.2223 72.5083 38.0147 72.0835C39.5518 71.2612 40.7462 72.1619 39.9106 73.5137C39.3372 74.4416 37.5687 74.4643 37.0041 73.5503ZM42.068 69.9159C42.7805 68.7633 44.6706 68.9383 44.6706 70.1576C44.6706 71.3886 43.1049 72.1084 42.2079 71.289C41.8607 70.9719 41.7978 70.3538 42.068 69.9159ZM67.3719 68.0215C67.3719 67.4115 68.0229 66.923 68.8365 66.923C69.6501 66.923 70.3011 67.4115 70.3011 68.0215C70.3011 68.6315 69.6501 69.1199 68.8365 69.1199C68.0229 69.1199 67.3719 68.6315 67.3719 68.0215ZM61.8796 68.0215C61.8796 67.6187 62.6215 67.1837 63.5273 67.0548C64.6609 66.8945 65.175 67.1954 65.175 68.0215C65.175 68.8475 64.6609 69.1485 63.5273 68.9881C62.6215 68.8592 61.8796 68.4242 61.8796 68.0215ZM46.672 66.8256C47.1282 66.3694 48.0999 66.2281 48.8323 66.5122C50.1006 67.0036 50.0962 67.0768 48.7378 68.0764C47.063 69.3089 45.2733 68.2243 46.672 66.8256ZM72.8246 66.2544C73.5371 65.1018 75.4272 65.2768 75.4272 66.4961C75.4272 67.7271 73.8616 68.4469 72.9645 67.6275C72.6174 67.3104 72.5544 66.6923 72.8246 66.2544ZM56.7535 67.6553C56.5046 67.2526 56.4958 66.6081 56.7338 66.2229C57.3365 65.2483 59.3166 66.1255 59.3166 67.3675C59.3166 68.5385 57.4302 68.7501 56.7535 67.6553ZM77.6241 65.1706C77.6241 64.1417 79.7302 62.9261 80.3827 63.5786C80.576 63.7727 80.5394 64.4391 80.3007 65.0608C79.7602 66.469 77.6241 66.5561 77.6241 65.1706ZM51.2012 65.4584C50.1006 65.4584 50.4389 63.2498 51.6084 62.8009C52.9243 62.2963 55.2062 64.4068 54.5295 65.5031C54.2615 65.9359 53.5541 66.1036 52.958 65.8744C52.3619 65.6459 51.571 65.4584 51.2012 65.4584ZM82.4068 62.5658C82.1702 62.1836 82.625 61.5238 83.4174 61.099C84.9545 60.2767 86.1488 61.1774 85.3133 62.5292C84.7399 63.457 82.9714 63.4797 82.4068 62.5658ZM48.3174 61.4132C47.8078 60.7995 47.5888 60.0994 47.8297 59.8578C48.5796 59.1079 50.529 60.2276 50.529 61.4081C50.529 62.8419 49.5052 62.8448 48.3174 61.4132ZM54.9228 59.2339C55.565 58.4598 56.1304 58.3178 56.6181 58.8055C57.1065 59.2939 57.0296 59.9244 56.3874 60.6985C55.7452 61.4725 55.1798 61.6146 54.6921 61.1269C54.2037 60.6384 54.2806 60.0079 54.9228 59.2339ZM86.8291 59.6828C86.266 58.7725 88.3728 57.171 89.3446 57.7715C89.9158 58.1244 89.8997 58.5609 89.2867 59.299C88.3047 60.4824 87.4098 60.6223 86.8291 59.6828ZM45.7244 55.4383C46.2157 54.1693 46.2882 54.1737 47.2856 55.5292C48.1051 56.6415 48.1344 57.0728 47.4226 57.5122C46.1476 58.3009 45.107 57.0304 45.7244 55.4383ZM57.6338 56.941C57.3797 56.6862 57.5195 55.8272 57.9457 55.0312C58.8589 53.3242 60.5103 54.4124 59.8028 56.2556C59.3452 57.4485 58.4305 57.737 57.6338 56.941ZM90.8055 54.8401C90.8055 53.582 92.0248 52.7713 93.0046 53.3769C93.4916 53.6779 93.4792 54.315 92.968 55.2714C92.1486 56.8012 90.8055 56.5331 90.8055 54.8401ZM43.9383 50.7692C43.9383 49.9871 44.3945 49.3478 44.9511 49.3478C46.2143 49.3478 47.0169 52.0969 45.8745 52.5091C44.6164 52.9639 43.9383 52.3546 43.9383 50.7692ZM60.0489 51.1559C60.0489 50.0479 61.98 48.8374 62.661 49.5184C62.8543 49.7125 62.8045 50.4118 62.5512 51.0738C61.9683 52.5919 60.0489 52.6549 60.0489 51.1559ZM93.4198 50.8952C92.9417 50.1211 95.0404 48.2127 95.6739 48.8454C96.2839 49.4562 95.4014 51.5447 94.5329 51.5447C94.1419 51.5447 93.6403 51.2525 93.4198 50.8952ZM61.6512 45.8774C61.7859 45.1773 62.4435 44.4992 63.1121 44.3704C64.0187 44.1961 64.2274 44.5197 63.9338 45.6438C63.4541 47.479 61.3004 47.6994 61.6512 45.8774ZM43.9383 46.8448C43.9383 45.6753 44.9964 44.2217 45.8474 44.2217C46.8997 44.2217 47.2432 45.7991 46.379 46.6625C45.8459 47.1963 43.9383 47.3384 43.9383 46.8448ZM95.1993 46.1125C95.1993 44.943 96.2575 43.4894 97.1084 43.4894C98.1608 43.4894 98.5042 45.0668 97.6401 45.9301C97.107 46.464 95.1993 46.6061 95.1993 46.1125ZM62.2458 39.7847C62.2458 39.0026 62.7401 38.3633 63.3443 38.3633C64.4303 38.3633 64.8799 40.6115 63.9748 41.5166C63.211 42.2804 62.2458 41.313 62.2458 39.7847ZM45.917 41.5627C45.6628 41.3079 45.8027 40.4489 46.2289 39.6529C47.1472 37.9371 48.6243 38.9469 47.9117 40.804C47.4233 42.0768 46.7049 42.3499 45.917 41.5627ZM96.6639 39.8279C96.6639 39.0143 97.1524 38.3633 97.7624 38.3633C98.3724 38.3633 98.8608 39.0143 98.8608 39.8279C98.8608 40.6415 98.3724 41.2925 97.7624 41.2925C97.1524 41.2925 96.6639 40.6415 96.6639 39.8279ZM48.3321 35.8434C48.3321 34.567 49.5331 33.7198 50.4968 34.3159C51.4715 34.9185 50.5942 36.8987 49.3522 36.8987C48.7912 36.8987 48.3321 36.4242 48.3321 35.8434ZM96.2978 34.3356C96.2978 32.4675 97.8598 32.1292 98.3219 33.897C98.5306 34.6959 98.5108 35.5403 98.2779 35.7731C97.4936 36.5574 96.2978 35.6897 96.2978 34.3356ZM61.2579 35.0914C60.7878 33.8677 61.8789 32.9245 62.9781 33.6033C64.0729 34.28 63.8613 36.1664 62.6903 36.1664C62.1294 36.1664 61.4842 35.6823 61.2579 35.0914ZM51.9936 32.2171C51.9936 31.1882 54.0997 29.9726 54.7522 30.6251C54.9455 30.8191 54.9089 31.4855 54.6701 32.1072C54.1297 33.5155 51.9936 33.6026 51.9936 32.2171ZM58.2782 32.0604C57.6411 31.8158 57.1197 31.1216 57.1197 30.5174C57.1197 29.8166 57.5393 29.5801 58.2782 29.8635C58.9153 30.1081 59.7289 30.308 60.0855 30.308C60.4429 30.308 60.5454 30.8023 60.314 31.4064C59.8329 32.6594 59.8365 32.6587 58.2782 32.0604ZM94.8368 28.1052C95.512 27.0119 96.4501 27.2301 96.9766 28.6017C97.5822 30.1798 95.7962 31.3478 94.987 29.903C94.6574 29.3135 94.5901 28.5051 94.8368 28.1052ZM92.5162 24.7667C91.8088 22.9235 93.4601 21.8353 94.3733 23.5423C95.1371 24.9695 94.8251 25.9142 93.5897 25.9142C93.2412 25.9142 92.7586 25.3979 92.5162 24.7667ZM89.0736 18.5655C90.0491 17.5901 91.9011 19.6083 91.1482 20.8261C90.7821 21.4186 90.2944 21.3226 89.4691 20.4973C88.6562 19.6852 88.5376 19.1016 89.0736 18.5655ZM85.7336 16.0933C85.147 15.3866 85.1192 14.9099 85.6435 14.5855C86.6666 13.9535 87.8763 14.759 87.8763 16.0713C87.8763 17.4158 86.8401 17.4268 85.7336 16.0933ZM81.4152 11.7566C81.2783 11.0507 81.6459 10.5359 82.2874 10.5359C83.6473 10.5359 84.4689 11.7295 83.8245 12.7716C83.1625 13.8429 81.7001 13.2278 81.4152 11.7566ZM77.6783 8.77028C77.0654 8.03213 77.0493 7.59567 77.6205 7.2427C78.5922 6.64222 80.699 8.24376 80.1359 9.15401C79.5552 10.0936 78.6603 9.95368 77.6783 8.77028ZM73.2845 5.10878C72.6716 4.37062 72.6555 3.93417 73.2267 3.5812C74.1984 2.98072 76.3052 4.58226 75.7421 5.49251C75.1614 6.43205 74.2665 6.29218 73.2845 5.10878ZM69.3015 0.258008C70.2769 -0.717417 72.1289 1.30081 71.3761 2.51863C71.01 3.11106 70.5223 3.01512 69.697 2.18982C68.8841 1.3777 68.7655 0.794052 69.3015 0.258008Z" fill="white"/>
</svg>
