<svg width="97" height="82" viewBox="0 0 97 82" fill="none" xmlns="http://www.w3.org/2000/svg">
<path opacity="0.7" fill-rule="evenodd" clip-rule="evenodd" d="M3.40705 -2.83582C1.5359 -2.57731 0.00561523 -2.12975 0.00561523 -1.83974C0.00561523 -1.55044 1.28599 -0.426167 2.85065 0.657996C4.41531 1.74216 7.16724 4.20265 8.96606 6.12607C10.7649 8.04949 12.3453 9.62275 12.4778 9.62275C12.611 9.62275 12.5515 8.13113 12.346 6.30796C12.0531 3.70998 12.2264 2.84995 13.1495 2.33365C14.6583 1.48938 14.6704 0.313553 13.171 0.313553C12.1061 0.313553 12.1061 0.171054 13.171 -1.47667C13.8068 -2.4613 14.8115 -4.01665 15.4023 -4.93325L16.4779 -6.59888L11.6428 -4.95186C8.98398 -4.04601 5.2782 -3.09361 3.40705 -2.83582ZM16.6104 2.27493C16.9104 3.83028 19.3401 4.41532 19.3401 2.9323C19.3401 1.94839 18.4077 1.22514 16.9605 1.08622C16.6361 1.05543 16.4786 1.58963 16.6104 2.27493ZM21.6674 4.07304C22.1185 5.42788 24.3527 5.62051 24.3527 4.30433C24.3527 3.64052 23.7405 3.17792 22.8611 3.17792C21.9861 3.17792 21.4919 3.54814 21.6674 4.07304ZM26.501 5.60762C26.501 6.82211 28.4373 7.67999 29.0267 6.72687C29.2594 6.35021 29.2508 5.72005 29.0073 5.3262C28.3457 4.25564 26.501 4.46259 26.501 5.60762ZM31.5136 7.83252C31.5136 8.42902 32.1502 8.90665 32.9458 8.90665C34.3723 8.90665 34.8084 8.1433 33.9004 7.23601C33.0282 6.36381 31.5136 6.74262 31.5136 7.83252ZM36.1904 9.58694C35.9591 9.96074 36.4038 10.6059 37.1786 11.0213C38.6817 11.8254 39.8497 10.9447 39.0326 9.62275C38.4719 8.71546 36.7425 8.69326 36.1904 9.58694ZM41.1422 13.1409C41.839 14.268 43.6872 14.0969 43.6872 12.9046C43.6872 11.7008 42.1562 10.9969 41.279 11.7982C40.9396 12.1083 40.878 12.7127 41.1422 13.1409ZM65.886 14.9934C65.886 15.5899 66.5226 16.0676 67.3182 16.0676C68.1138 16.0676 68.7504 15.5899 68.7504 14.9934C68.7504 14.3969 68.1138 13.9193 67.3182 13.9193C66.5226 13.9193 65.886 14.3969 65.886 14.9934ZM60.5154 14.9934C60.5154 15.3873 61.2408 15.8126 62.1266 15.9387C63.2351 16.0955 63.7378 15.8012 63.7378 14.9934C63.7378 14.1857 63.2351 13.8914 62.1266 14.0482C61.2408 14.1742 60.5154 14.5996 60.5154 14.9934ZM45.6443 16.1628C46.0904 16.6089 47.0407 16.7471 47.7568 16.4693C48.997 15.9888 48.9927 15.9172 47.6644 14.9397C46.0267 13.7345 44.2765 14.7951 45.6443 16.1628ZM71.2181 16.7214C71.9148 17.8485 73.763 17.6773 73.763 16.485C73.763 15.2813 72.232 14.5774 71.3548 15.3787C71.0154 15.6888 70.9538 16.2931 71.2181 16.7214ZM55.5027 15.3515C55.2592 15.7453 55.2506 16.3755 55.4834 16.7521C56.0727 17.7053 58.009 16.8474 58.009 15.6329C58.009 14.4879 56.1644 14.2809 55.5027 15.3515ZM75.9113 17.7812C75.9113 18.7873 77.9708 19.976 78.6088 19.338C78.7979 19.1482 78.7621 18.4965 78.5286 17.8886C78.0002 16.5115 75.9113 16.4263 75.9113 17.7812ZM50.0733 17.4997C48.997 17.4997 49.3279 19.6595 50.4715 20.0984C51.7583 20.5918 53.9896 18.5281 53.3279 17.4561C53.0658 17.0329 52.3741 16.8689 51.7912 17.093C51.2083 17.3164 50.4349 17.4997 50.0733 17.4997ZM80.5881 20.3283C80.3568 20.7021 80.8015 21.3473 81.5763 21.7626C83.0794 22.5668 84.2473 21.686 83.4303 20.3641C82.8696 19.4568 81.1402 19.4346 80.5881 20.3283ZM47.2533 21.4554C46.7549 22.0555 46.5408 22.7401 46.7764 22.9764C47.5097 23.7097 49.4159 22.6148 49.4159 21.4605C49.4159 20.0583 48.4148 20.0555 47.2533 21.4554ZM53.7125 23.5865C54.3405 24.3434 54.8933 24.4824 55.3702 24.0054C55.8479 23.5278 55.7727 22.9113 55.1447 22.1543C54.5167 21.3974 53.9638 21.2585 53.4869 21.7354C53.0093 22.2131 53.0845 22.8296 53.7125 23.5865ZM84.9126 23.1476C84.3619 24.0377 86.4221 25.6038 87.3724 25.0166C87.9309 24.6714 87.9152 24.2446 87.3158 23.5228C86.3555 22.3656 85.4805 22.2288 84.9126 23.1476ZM44.7177 27.298C45.1982 28.539 45.269 28.5347 46.2444 27.2092C47.0457 26.1215 47.0743 25.6997 46.3783 25.2701C45.1316 24.4988 44.114 25.7412 44.7177 27.298ZM56.3635 25.8286C56.115 26.0778 56.2517 26.9178 56.6685 27.6962C57.5615 29.3654 59.1763 28.3013 58.4845 26.4989C58.037 25.3324 57.1426 25.0502 56.3635 25.8286ZM88.801 27.8831C88.801 29.1133 89.9933 29.906 90.9514 29.3138C91.4276 29.0195 91.4154 28.3965 90.9156 27.4613C90.1143 25.9654 88.801 26.2275 88.801 27.8831ZM42.9711 31.8638C42.9711 32.6286 43.4172 33.2538 43.9615 33.2538C45.1967 33.2538 45.9816 30.5656 44.8645 30.1624C43.6342 29.7177 42.9711 30.3135 42.9711 31.8638ZM58.7251 31.4857C58.7251 32.5692 60.6135 33.7529 61.2794 33.0869C61.4685 32.8972 61.4198 32.2133 61.172 31.5659C60.602 30.0815 58.7251 30.0199 58.7251 31.4857ZM91.3574 31.7407C90.8898 32.4976 92.9421 34.3637 93.5615 33.745C94.1581 33.1478 93.2952 31.1055 92.4459 31.1055C92.0635 31.1055 91.573 31.3912 91.3574 31.7407ZM60.2919 36.6473C60.4237 37.3319 61.0667 37.995 61.7205 38.121C62.6071 38.2915 62.8111 37.975 62.524 36.8758C62.055 35.0812 59.9489 34.8657 60.2919 36.6473ZM42.9711 35.7014C42.9711 36.845 44.0059 38.2664 44.838 38.2664C45.867 38.2664 46.2028 36.7239 45.3578 35.8797C44.8365 35.3576 42.9711 35.2187 42.9711 35.7014ZM93.0975 36.4175C93.0975 37.5611 94.1323 38.9825 94.9644 38.9825C95.9934 38.9825 96.3292 37.44 95.4843 36.5958C94.9629 36.0737 93.0975 35.9348 93.0975 36.4175ZM60.8734 42.6052C60.8734 43.37 61.3568 43.9951 61.9475 43.9951C63.0095 43.9951 63.4492 41.7967 62.5641 40.9116C61.8172 40.1648 60.8734 41.1107 60.8734 42.6052ZM44.906 40.8665C44.6575 41.1157 44.7943 41.9557 45.211 42.7341C46.109 44.4119 47.5534 43.4244 46.8566 41.6084C46.379 40.3638 45.6765 40.0967 44.906 40.8665ZM94.5297 42.563C94.5297 43.3585 95.0073 43.9951 95.6038 43.9951C96.2003 43.9951 96.678 43.3585 96.678 42.563C96.678 41.7674 96.2003 41.1308 95.6038 41.1308C95.0073 41.1308 94.5297 41.7674 94.5297 42.563ZM47.2677 46.4592C47.2677 47.7074 48.442 48.5359 49.3844 47.953C50.3375 47.3636 49.4797 45.4273 48.2652 45.4273C47.7167 45.4273 47.2677 45.8913 47.2677 46.4592ZM94.1717 47.9336C94.1717 49.7604 95.6991 50.0912 96.1509 48.3626C96.355 47.5813 96.3357 46.7557 96.108 46.528C95.341 45.761 94.1717 46.6096 94.1717 47.9336ZM59.9074 47.1946C59.4477 48.3912 60.5146 49.3136 61.5895 48.6497C62.66 47.9881 62.4531 46.1434 61.3081 46.1434C60.7595 46.1434 60.1287 46.6168 59.9074 47.1946ZM50.8481 50.0053C50.8481 51.0114 52.9076 52.2001 53.5456 51.5621C53.7347 51.3723 53.6989 50.7207 53.4654 50.1127C52.937 48.7357 50.8481 48.6505 50.8481 50.0053ZM56.9936 50.1585C56.3706 50.3977 55.8608 51.0766 55.8608 51.6673C55.8608 52.3526 56.2711 52.5839 56.9936 52.3068C57.6166 52.0676 58.4122 51.8722 58.7609 51.8722C59.1104 51.8722 59.2106 51.3888 58.9843 50.798C58.5139 49.5728 58.5175 49.5735 56.9936 50.1585ZM92.7431 54.0261C93.4033 55.0953 94.3206 54.8819 94.8355 53.5406C95.4277 51.9975 93.6811 50.8553 92.8899 52.2681C92.5676 52.8446 92.5017 53.6352 92.7431 54.0261ZM90.4738 57.2908C89.782 59.0932 91.3968 60.1573 92.2898 58.4881C93.0367 57.0925 92.7316 56.1687 91.5236 56.1687C91.1827 56.1687 90.7108 56.6735 90.4738 57.2908ZM87.1074 63.3547C88.0612 64.3085 89.8722 62.335 89.1361 61.1441C88.7781 60.5648 88.3011 60.6586 87.4941 61.4656C86.6992 62.2598 86.5832 62.8305 87.1074 63.3547ZM83.8413 65.7722C83.2677 66.4632 83.2405 66.9294 83.7532 67.2466C84.7536 67.8646 85.9366 67.0769 85.9366 65.7937C85.9366 64.4789 84.9233 64.4682 83.8413 65.7722ZM79.6185 70.0129C79.4846 70.7032 79.8441 71.2066 80.4714 71.2066C81.8012 71.2066 82.6046 70.0394 81.9745 69.0204C81.3271 67.9727 79.8971 68.5743 79.6185 70.0129ZM75.9643 72.9331C75.3649 73.6549 75.3492 74.0817 75.9077 74.4269C76.858 75.0141 78.9182 73.448 78.3675 72.5579C77.7997 71.6391 76.9246 71.7759 75.9643 72.9331ZM71.6678 76.5136C71.0684 77.2354 71.0526 77.6622 71.6112 78.0073C72.5614 78.5945 74.6216 77.0284 74.071 76.1383C73.5031 75.2196 72.628 75.3564 71.6678 76.5136ZM67.7729 81.257C68.7268 82.2108 70.5378 80.2372 69.8016 79.0464C69.4436 78.4671 68.9667 78.5609 68.1596 79.3679C67.3648 80.1621 67.2488 80.7328 67.7729 81.257Z" fill="white"/>
</svg>
