<svg width="100" height="91" viewBox="0 0 100 91" fill="none" xmlns="http://www.w3.org/2000/svg">
<path opacity="0.4" fill-rule="evenodd" clip-rule="evenodd" d="M95.5345 4.39121C97.448 4.65557 99.0129 5.11325 99.0129 5.40984C99.0129 5.70569 97.7036 6.8554 96.1035 7.96411C94.5034 9.07281 91.6892 11.589 89.8497 13.556C88.0101 15.5229 86.3939 17.1318 86.2585 17.1318C86.1223 17.1318 86.183 15.6064 86.3932 13.742C86.6927 11.0852 86.5155 10.2057 85.5716 9.67769C84.0286 8.8143 84.0162 7.61187 85.5496 7.61187C86.6385 7.61187 86.6385 7.46614 85.5496 5.78112C84.8993 4.7742 83.8719 3.18364 83.2677 2.2463L82.1678 0.542969L87.1123 2.22726C89.8314 3.15362 93.621 4.12758 95.5345 4.39121ZM82.0324 9.61764C81.7255 11.2082 79.2408 11.8065 79.2408 10.2899C79.2408 9.28371 80.1943 8.54409 81.6743 8.40202C82.006 8.37053 82.1671 8.91683 82.0324 9.61764ZM76.8609 11.4564C76.3995 12.842 74.1147 13.0389 74.1147 11.693C74.1147 11.0141 74.7408 10.5411 75.6401 10.5411C76.535 10.5411 77.0403 10.9197 76.8609 11.4564ZM71.9178 13.0258C71.9178 14.2677 69.9377 15.145 69.335 14.1704C69.097 13.7852 69.1058 13.1407 69.3548 12.738C70.0314 11.6432 71.9178 11.8548 71.9178 13.0258ZM66.7917 15.301C66.7917 15.911 66.1407 16.3995 65.3271 16.3995C63.8684 16.3995 63.4224 15.6188 64.351 14.691C65.2429 13.7991 66.7917 14.1865 66.7917 15.301ZM62.0091 17.0952C62.2456 17.4774 61.7908 18.1372 60.9985 18.562C59.4614 19.3843 58.267 18.4836 59.1026 17.1318C59.6759 16.204 61.4445 16.1813 62.0091 17.0952ZM56.9452 20.7296C56.2327 21.8822 54.3426 21.7072 54.3426 20.4879C54.3426 19.2569 55.9083 18.5371 56.8053 19.3565C57.1524 19.6736 57.2154 20.2917 56.9452 20.7296ZM31.6413 22.624C31.6413 23.234 30.9903 23.7225 30.1767 23.7225C29.3631 23.7225 28.7121 23.234 28.7121 22.624C28.7121 22.014 29.3631 21.5256 30.1767 21.5256C30.9903 21.5256 31.6413 22.014 31.6413 22.624ZM37.1335 22.624C37.1335 23.0268 36.3917 23.4618 35.4859 23.5907C34.3523 23.751 33.8382 23.4501 33.8382 22.624C33.8382 21.798 34.3523 21.497 35.4859 21.6574C36.3917 21.7863 37.1335 22.2213 37.1335 22.624ZM52.3412 23.8199C51.885 24.2761 50.9132 24.4174 50.1809 24.1333C48.9126 23.6419 48.917 23.5687 50.2754 22.5691C51.9502 21.3367 53.7399 22.4212 52.3412 23.8199ZM26.1886 24.3911C25.476 25.5437 23.586 25.3687 23.586 24.1494C23.586 22.9184 25.1516 22.1986 26.0487 23.018C26.3958 23.3351 26.4588 23.9532 26.1886 24.3911ZM42.2596 22.9902C42.5086 23.393 42.5174 24.0374 42.2794 24.4226C41.6767 25.3973 39.6966 24.52 39.6966 23.278C39.6966 22.107 41.583 21.8954 42.2596 22.9902ZM21.3891 25.4749C21.3891 26.5038 19.283 27.7194 18.6305 27.0669C18.4372 26.8728 18.4738 26.2064 18.7125 25.5847C19.2529 24.1765 21.3891 24.0894 21.3891 25.4749ZM47.8119 25.1871C48.9126 25.1871 48.5743 27.3957 47.4048 27.8446C46.0888 28.3492 43.807 26.2387 44.4836 25.1424C44.7517 24.7096 45.4591 24.5419 46.0552 24.7711C46.6512 24.9996 47.4421 25.1871 47.8119 25.1871ZM16.6064 28.0797C16.8429 28.4619 16.3882 29.1217 15.5958 29.5465C14.0587 30.3688 12.8644 29.4681 13.6999 28.1163C14.2733 27.1885 16.0418 27.1658 16.6064 28.0797ZM50.6958 29.2323C51.2054 29.846 51.4244 30.5461 51.1835 30.7877C50.4336 31.5376 48.4842 30.4179 48.4842 29.2374C48.4842 27.8036 49.508 27.8007 50.6958 29.2323ZM44.0904 31.4116C43.4482 32.1857 42.8828 32.3278 42.3951 31.84C41.9067 31.3516 41.9836 30.7211 42.6258 29.947C43.268 29.173 43.8334 29.0309 44.3211 29.5187C44.8095 30.0071 44.7326 30.6376 44.0904 31.4116ZM12.184 30.9627C12.7472 31.873 10.6404 33.4745 9.66859 32.8741C9.0974 32.5211 9.11351 32.0846 9.72644 31.3465C10.7085 30.1631 11.6033 30.0232 12.184 30.9627ZM53.2888 35.2072C52.7975 36.4762 52.7249 36.4718 51.7276 35.1164C50.9081 34.004 50.8788 33.5727 51.5906 33.1333C52.8656 32.3446 53.9062 33.6151 53.2888 35.2072ZM41.3794 33.7045C41.6335 33.9593 41.4937 34.8183 41.0675 35.6143C40.1543 37.3213 38.5029 36.2331 39.2103 34.3899C39.668 33.197 40.5827 32.9085 41.3794 33.7045ZM8.20765 35.8055C8.20765 37.0635 6.98837 37.8742 6.00856 37.2686C5.52158 36.9676 5.53402 36.3305 6.04517 35.3741C6.86461 33.8443 8.20765 34.1124 8.20765 35.8055ZM55.0749 39.8763C55.0749 40.6584 54.6187 41.2977 54.0621 41.2977C52.7989 41.2977 51.9963 38.5486 53.1387 38.1364C54.3968 37.6816 55.0749 38.2909 55.0749 39.8763ZM38.9643 39.4897C38.9643 40.5976 37.0332 41.8081 36.3522 41.1271C36.1588 40.933 36.2086 40.2337 36.462 39.5717C37.0449 38.0536 38.9643 37.9906 38.9643 39.4897ZM5.59334 39.7504C6.07153 40.5244 3.97276 42.4328 3.33932 41.8001C2.72931 41.1893 3.61173 39.1008 4.48024 39.1008C4.87129 39.1008 5.37292 39.393 5.59334 39.7504ZM37.362 44.7681C37.2273 45.4682 36.5697 46.1463 35.9011 46.2752C34.9945 46.4494 34.7858 46.1258 35.0794 45.0017C35.5591 43.1665 37.7128 42.9461 37.362 44.7681ZM55.0749 43.8007C55.0749 44.9702 54.0167 46.4238 53.1658 46.4238C52.1135 46.4238 51.77 44.8464 52.6341 43.9831C53.1673 43.4492 55.0749 43.3071 55.0749 43.8007ZM3.81385 44.533C3.81385 45.7025 2.75567 47.1561 1.90474 47.1561C0.852421 47.1561 0.508974 45.5787 1.37309 44.7154C1.9062 44.1815 3.81385 44.0394 3.81385 44.533ZM36.7674 50.8608C36.7674 51.6429 36.2731 52.2822 35.6689 52.2822C34.5829 52.2822 34.1333 50.0341 35.0384 49.1289C35.8022 48.3651 36.7674 49.3325 36.7674 50.8608ZM53.0962 49.0828C53.3503 49.3376 53.2105 50.1966 52.7843 50.9926C51.866 52.7084 50.3889 51.6986 51.1014 49.8415C51.5899 48.5687 52.3083 48.2956 53.0962 49.0828ZM2.34925 50.8176C2.34925 51.6312 1.8608 52.2822 1.2508 52.2822C0.640789 52.2822 0.152344 51.6312 0.152344 50.8176C0.152344 50.004 0.640789 49.353 1.2508 49.353C1.8608 49.353 2.34925 50.004 2.34925 50.8176ZM50.6811 54.8021C50.6811 56.0785 49.4801 56.9257 48.5164 56.3296C47.5417 55.727 48.419 53.7468 49.661 53.7468C50.2219 53.7468 50.6811 54.2213 50.6811 54.8021ZM2.7154 56.3099C2.7154 58.178 1.1534 58.5163 0.691316 56.7485C0.482611 55.9496 0.502387 55.1052 0.735258 54.8724C1.51955 54.0881 2.7154 54.9558 2.7154 56.3099ZM37.7553 55.5541C38.2254 56.7778 37.1343 57.721 36.0351 57.0422C34.9403 56.3655 35.1519 54.4791 36.3229 54.4791C36.8838 54.4791 37.529 54.9632 37.7553 55.5541ZM47.0196 58.4284C47.0196 59.4573 44.9135 60.6729 44.261 60.0204C44.0677 59.8264 44.1043 59.16 44.343 58.5383C44.8835 57.1301 47.0196 57.0429 47.0196 58.4284ZM40.735 58.5851C41.3721 58.8297 41.8935 59.5239 41.8935 60.1281C41.8935 60.8289 41.4739 61.0654 40.735 60.782C40.0979 60.5374 39.2843 60.3375 38.9277 60.3375C38.5703 60.3375 38.4678 59.8432 38.6992 59.2391C39.1803 57.9861 39.1767 57.9868 40.735 58.5851ZM4.17634 62.5403C3.50116 63.6336 2.56308 63.4154 2.03655 62.0438C1.43094 60.4657 3.21702 59.2977 4.02622 60.7425C4.35575 61.332 4.42312 62.1404 4.17634 62.5403ZM6.497 65.8789C7.2044 67.7221 5.55306 68.8102 4.63988 67.1033C3.87609 65.676 4.18805 64.7313 5.42344 64.7313C5.77202 64.7313 6.25461 65.2476 6.497 65.8789ZM9.93954 72.08C8.96412 73.0554 7.11213 71.0372 7.86493 69.8194C8.23108 69.2269 8.7188 69.3229 9.5441 70.1482C10.357 70.9603 10.4756 71.5439 9.93954 72.08ZM13.2796 74.5522C13.8661 75.2589 13.894 75.7356 13.3696 76.06C12.3466 76.692 11.1369 75.8865 11.1369 74.5742C11.1369 73.2297 12.1731 73.2187 13.2796 74.5522ZM17.5979 78.8889C17.7349 79.5948 17.3673 80.1096 16.7258 80.1096C15.3659 80.1096 14.5442 78.916 15.1887 77.8739C15.8507 76.8026 17.3131 77.4177 17.5979 78.8889ZM21.3349 81.8752C21.9478 82.6134 21.9639 83.0498 21.3927 83.4028C20.421 84.0033 18.3141 82.4017 18.8773 81.4915C19.458 80.552 20.3529 80.6918 21.3349 81.8752ZM25.7287 85.5367C26.3416 86.2749 26.3577 86.7113 25.7865 87.0643C24.8148 87.6648 22.7079 86.0632 23.2711 85.153C23.8518 84.2135 24.7467 84.3533 25.7287 85.5367ZM29.7117 90.3875C28.7362 91.3629 26.8842 89.3447 27.6371 88.1269C28.0032 87.5344 28.4909 87.6304 29.3162 88.4557C30.1291 89.2678 30.2477 89.8515 29.7117 90.3875Z" fill="white"/>
</svg>
