<svg width="218" height="200" viewBox="0 0 218 200" fill="none" xmlns="http://www.w3.org/2000/svg">
<path opacity="0.4" fill-rule="evenodd" clip-rule="evenodd" d="M7.80188 9.39716C3.58665 9.97951 0.139282 10.9877 0.139282 11.6411C0.139282 12.2928 3.02366 14.8255 6.54845 17.2678C10.0732 19.7102 16.2727 25.2531 20.325 29.5861C24.3772 33.919 27.9375 37.4632 28.236 37.4632C28.536 37.4632 28.4021 34.1029 27.9391 29.9958C27.2794 24.1432 27.6697 22.2058 29.7491 21.0427C33.1481 19.1407 33.1755 16.4919 29.7975 16.4919C27.3987 16.4919 27.3987 16.1709 29.7975 12.459C31.23 10.2409 33.4933 6.73703 34.8242 4.67216L37.2472 0.919922L26.355 4.63023C20.3653 6.6709 12.0171 8.81641 7.80188 9.39716ZM37.5456 20.9104C38.2215 24.4142 43.695 25.7322 43.695 22.3913C43.695 20.1748 41.5947 18.5455 38.3345 18.2325C37.6037 18.1632 37.2488 19.3666 37.5456 20.9104ZM48.9378 24.9611C49.9541 28.0132 54.9872 28.4471 54.9872 25.4821C54.9872 23.9867 53.608 22.9446 51.627 22.9446C49.6557 22.9446 48.5426 23.7786 48.9378 24.9611ZM59.8268 28.4181C59.8268 31.1541 64.1888 33.0866 65.5164 30.9395C66.0407 30.091 66.0214 28.6714 65.4729 27.7841C63.9823 25.3724 59.8268 25.8386 59.8268 28.4181ZM71.119 33.4302C71.119 34.774 72.5531 35.85 74.3454 35.85C77.5588 35.85 78.5412 34.1304 76.4957 32.0865C74.5309 30.1216 71.119 30.975 71.119 33.4302ZM81.6547 37.3825C81.1336 38.2246 82.1354 39.6781 83.8808 40.6137C87.2669 42.4253 89.898 40.4411 88.0574 37.4632C86.7942 35.4193 82.8984 35.3693 81.6547 37.3825ZM92.8098 45.3887C94.3794 47.9279 98.543 47.5423 98.543 44.8564C98.543 42.1446 95.094 40.5589 93.1179 42.364C92.3532 43.0625 92.2145 44.424 92.8098 45.3887ZM148.551 49.562C148.551 50.9058 149.986 51.9818 151.778 51.9818C153.57 51.9818 155.004 50.9058 155.004 49.562C155.004 48.2182 153.57 47.1422 151.778 47.1422C149.986 47.1422 148.551 48.2182 148.551 49.562ZM136.453 49.562C136.453 50.4493 138.087 51.4075 140.082 51.6914C142.579 52.0447 143.712 51.3817 143.712 49.562C143.712 47.7423 142.579 47.0793 140.082 47.4326C138.087 47.7165 136.453 48.6748 136.453 49.562ZM102.952 52.1963C103.957 53.2013 106.097 53.5127 107.711 52.8868C110.505 51.8043 110.495 51.643 107.503 49.441C103.813 46.726 99.8706 49.1152 102.952 52.1963ZM160.563 53.4546C162.133 55.9937 166.296 55.6082 166.296 52.9222C166.296 50.2105 162.847 48.6247 160.871 50.4299C160.107 51.1284 159.968 52.4899 160.563 53.4546ZM125.16 50.3686C124.612 51.2558 124.593 52.6754 125.117 53.524C126.444 55.6711 130.806 53.7385 130.806 51.0026C130.806 48.4231 126.651 47.9569 125.16 50.3686ZM171.136 55.8421C171.136 58.1086 175.775 60.7865 177.213 59.3491C177.639 58.9217 177.558 57.4537 177.032 56.0841C175.842 52.9819 171.136 52.79 171.136 55.8421ZM112.929 55.2081C110.505 55.2081 111.25 60.0735 113.826 61.0623C116.725 62.1738 121.752 57.5246 120.261 55.1097C119.671 54.1563 118.112 53.7869 116.799 54.2918C115.486 54.7952 113.744 55.2081 112.929 55.2081ZM181.672 61.5802C181.15 62.4222 182.152 63.8757 183.898 64.8113C187.284 66.6229 189.915 64.6387 188.074 61.6608C186.811 59.6169 182.915 59.5669 181.672 61.5802ZM106.577 64.1193C105.454 65.4711 104.971 67.0133 105.502 67.5457C107.154 69.1976 111.448 66.731 111.448 64.1306C111.448 60.972 109.193 60.9655 106.577 64.1193ZM121.127 68.9201C122.542 70.6252 123.788 70.9382 124.862 69.8638C125.938 68.7878 125.769 67.3989 124.354 65.6938C122.939 63.9886 121.694 63.6757 120.619 64.7501C119.543 65.826 119.713 67.215 121.127 68.9201ZM191.413 67.9312C190.173 69.9364 194.814 73.4644 196.955 72.1416C198.213 71.3641 198.178 70.4026 196.827 68.7766C194.664 66.1697 192.693 65.8615 191.413 67.9312ZM100.864 77.2812C101.947 80.0768 102.106 80.0671 104.304 77.0812C106.109 74.6307 106.173 73.6806 104.605 72.7127C101.797 70.9753 99.5044 73.7742 100.864 77.2812ZM127.099 73.971C126.54 74.5323 126.848 76.4246 127.787 78.1781C129.798 81.9384 133.436 79.5413 131.878 75.4809C130.869 72.853 128.855 72.2174 127.099 73.971ZM200.173 78.5992C200.173 81.3706 202.859 83.1564 205.017 81.8223C206.09 81.1593 206.063 79.7558 204.937 77.649C203.132 74.2791 200.173 74.8695 200.173 78.5992ZM96.9298 87.5668C96.9298 89.2897 97.9348 90.698 99.1608 90.698C101.944 90.698 103.712 84.6421 101.195 83.7339C98.4236 82.7321 96.9298 84.0743 96.9298 87.5668ZM132.42 86.715C132.42 89.1558 136.674 91.8224 138.174 90.3221C138.6 89.8946 138.49 88.354 137.932 86.8957C136.648 83.5516 132.42 83.4129 132.42 86.715ZM205.932 87.2893C204.879 88.9945 209.502 93.1984 210.897 91.8046C212.241 90.4592 210.297 85.8584 208.384 85.8584C207.523 85.8584 206.418 86.5021 205.932 87.2893ZM135.949 98.3428C136.246 99.885 137.695 101.379 139.168 101.663C141.165 102.047 141.624 101.334 140.978 98.8574C139.921 94.8148 135.177 94.3292 135.949 98.3428ZM96.9298 96.2118C96.9298 98.788 99.2608 101.99 101.135 101.99C103.453 101.99 104.21 98.5154 102.307 96.6135C101.132 95.4375 96.9298 95.1245 96.9298 96.2118ZM209.852 97.825C209.852 100.401 212.183 103.603 214.058 103.603C216.376 103.603 217.132 100.129 215.229 98.2267C214.054 97.0507 209.852 96.7377 209.852 97.825ZM137.259 111.764C137.259 113.487 138.348 114.896 139.679 114.896C142.071 114.896 143.062 109.943 141.068 107.949C139.385 106.267 137.259 108.398 137.259 111.764ZM101.289 107.848C100.729 108.409 101.037 110.301 101.976 112.055C103.999 115.834 107.253 113.61 105.683 109.519C104.607 106.715 103.024 106.113 101.289 107.848ZM213.078 111.669C213.078 113.462 214.154 114.896 215.498 114.896C216.842 114.896 217.918 113.462 217.918 111.669C217.918 109.877 216.842 108.443 215.498 108.443C214.154 108.443 213.078 109.877 213.078 111.669ZM106.609 120.447C106.609 123.258 109.254 125.125 111.377 123.812C113.525 122.484 111.592 118.122 108.856 118.122C107.62 118.122 106.609 119.167 106.609 120.447ZM212.272 123.768C212.272 127.883 215.713 128.629 216.731 124.734C217.19 122.974 217.147 121.114 216.634 120.601C214.906 118.874 212.272 120.785 212.272 123.768ZM135.083 122.103C134.047 124.799 136.451 126.877 138.872 125.381C141.284 123.891 140.818 119.735 138.238 119.735C137.003 119.735 135.582 120.801 135.083 122.103ZM114.675 128.435C114.675 130.702 119.314 133.379 120.752 131.942C121.177 131.515 121.097 130.047 120.571 128.677C119.38 125.575 114.675 125.383 114.675 128.435ZM128.519 128.78C127.116 129.319 125.967 130.848 125.967 132.179C125.967 133.723 126.891 134.244 128.519 133.62C129.922 133.081 131.715 132.641 132.5 132.641C133.288 132.641 133.513 131.552 133.004 130.221C131.944 127.461 131.952 127.462 128.519 128.78ZM209.054 137.493C210.541 139.901 212.607 139.421 213.767 136.399C215.101 132.923 211.167 130.35 209.384 133.533C208.658 134.831 208.51 136.612 209.054 137.493ZM203.941 144.847C202.383 148.908 206.021 151.305 208.032 147.545C209.715 144.401 209.028 142.32 206.306 142.32C205.538 142.32 204.475 143.457 203.941 144.847ZM196.358 158.508C198.507 160.657 202.586 156.211 200.928 153.528C200.121 152.223 199.047 152.434 197.229 154.252C195.438 156.041 195.177 157.327 196.358 158.508ZM189 163.954C187.708 165.511 187.647 166.561 188.802 167.275C191.055 168.668 193.72 166.893 193.72 164.002C193.72 161.04 191.438 161.016 189 163.954ZM179.487 173.507C179.186 175.062 179.995 176.196 181.409 176.196C184.404 176.196 186.214 173.567 184.795 171.271C183.336 168.911 180.115 170.266 179.487 173.507ZM171.255 180.086C169.905 181.712 169.87 182.673 171.128 183.451C173.269 184.774 177.91 181.246 176.669 179.24C175.39 177.171 173.419 177.479 171.255 180.086ZM161.576 188.152C160.226 189.778 160.19 190.739 161.449 191.517C163.589 192.839 168.231 189.311 166.99 187.306C165.711 185.237 163.739 185.545 161.576 188.152ZM152.802 198.837C154.951 200.986 159.031 196.54 157.372 193.857C156.566 192.552 155.491 192.764 153.673 194.582C151.883 196.371 151.621 197.656 152.802 198.837Z" fill="white"/>
</svg>
