<svg width="148" height="136" viewBox="0 0 148 136" fill="none" xmlns="http://www.w3.org/2000/svg">
<path opacity="0.4" fill-rule="evenodd" clip-rule="evenodd" d="M5.46303 129.582C2.60353 129.187 0.264937 128.503 0.264937 128.06C0.264937 127.618 2.22161 125.9 4.61273 124.243C7.00385 122.586 11.2094 118.826 13.9583 115.887C16.7073 112.947 19.1225 110.543 19.325 110.543C19.5285 110.543 19.4377 112.823 19.1236 115.609C18.676 119.579 18.9408 120.893 20.3514 121.682C22.6572 122.973 22.6758 124.769 20.3843 124.769C18.757 124.769 18.757 124.987 20.3843 127.505C21.356 129.01 22.8914 131.387 23.7942 132.788L25.4379 135.333L18.049 132.816C13.9857 131.432 8.32252 129.976 5.46303 129.582ZM25.6404 121.772C26.0989 119.395 29.812 118.501 29.812 120.767C29.812 122.271 28.3871 123.376 26.1755 123.589C25.6798 123.636 25.439 122.819 25.6404 121.772ZM33.3685 119.024C34.058 116.954 37.4723 116.659 37.4723 118.671C37.4723 119.685 36.5366 120.392 35.1928 120.392C33.8555 120.392 33.1004 119.826 33.3685 119.024ZM40.7553 116.679C40.7553 114.823 43.7144 113.512 44.615 114.969C44.9707 115.544 44.9575 116.507 44.5855 117.109C43.5743 118.745 40.7553 118.429 40.7553 116.679ZM48.4156 113.279C48.4156 112.367 49.3885 111.637 50.6043 111.637C52.7842 111.637 53.4507 112.804 52.063 114.19C50.7301 115.523 48.4156 114.944 48.4156 113.279ZM55.5627 110.598C55.2093 110.027 55.8888 109.041 57.0729 108.406C59.3699 107.177 61.1548 108.523 59.9061 110.543C59.0493 111.93 56.4065 111.964 55.5627 110.598ZM63.13 105.167C64.1948 103.444 67.0193 103.706 67.0193 105.528C67.0193 107.367 64.6796 108.443 63.339 107.218C62.8203 106.745 62.7262 105.821 63.13 105.167ZM100.944 102.336C100.944 101.424 101.917 100.694 103.132 100.694C104.348 100.694 105.321 101.424 105.321 102.336C105.321 103.247 104.348 103.977 103.132 103.977C101.917 103.977 100.944 103.247 100.944 102.336ZM92.7361 102.336C92.7361 101.734 93.8447 101.084 95.1984 100.891C96.8924 100.651 97.6606 101.101 97.6606 102.336C97.6606 103.57 96.8924 104.02 95.1984 103.78C93.8447 103.587 92.7361 102.937 92.7361 102.336ZM70.0101 100.549C70.6919 99.8667 72.1441 99.6555 73.2384 100.08C75.1338 100.814 75.1272 100.924 73.0972 102.418C70.5945 104.259 67.9199 102.639 70.0101 100.549ZM109.092 99.6949C110.157 97.9724 112.981 98.234 112.981 100.056C112.981 101.896 110.642 102.971 109.301 101.747C108.782 101.273 108.688 100.349 109.092 99.6949ZM85.0758 101.788C84.7037 101.187 84.6906 100.224 85.0463 99.6479C85.9469 98.1913 88.906 99.5023 88.906 101.358C88.906 103.108 86.087 103.424 85.0758 101.788ZM116.264 98.0753C116.264 96.5378 119.412 94.7212 120.387 95.6962C120.676 95.9862 120.621 96.9821 120.264 97.9112C119.456 100.016 116.264 100.146 116.264 98.0753ZM76.7786 98.5054C75.1338 98.5054 75.6394 95.2049 77.387 94.5341C79.3535 93.7801 82.7635 96.9339 81.7523 98.5721C81.3518 99.2189 80.2947 99.4695 79.4039 99.127C78.5131 98.7855 77.3312 98.5054 76.7786 98.5054ZM123.411 94.1828C123.058 93.6115 123.738 92.6255 124.922 91.9908C127.219 90.7619 129.003 92.1079 127.755 94.1281C126.898 95.5146 124.255 95.5485 123.411 94.1828ZM72.4691 92.4603C71.7074 91.5432 71.3802 90.4971 71.7402 90.1359C72.8608 89.0153 75.774 90.6886 75.774 92.4526C75.774 94.5953 74.2441 94.5997 72.4691 92.4603ZM82.34 89.2036C83.2997 88.0468 84.1445 87.8345 84.8734 88.5634C85.6033 89.2933 85.4884 90.2355 84.5286 91.3922C83.5689 92.5489 82.7241 92.7612 81.9952 92.0324C81.2653 91.3025 81.3802 90.3603 82.34 89.2036ZM130.02 89.8744C129.179 88.5141 132.327 86.1208 133.779 87.0182C134.633 87.5456 134.609 88.1979 133.693 89.3009C132.225 91.0694 130.888 91.2784 130.02 89.8744ZM68.594 83.5316C69.3283 81.6351 69.4367 81.6417 70.9272 83.6673C72.1517 85.3296 72.1955 85.9742 71.1318 86.6308C69.2266 87.8094 67.6715 85.9107 68.594 83.5316ZM86.3912 85.7772C86.0115 85.3964 86.2205 84.1127 86.8574 82.9232C88.222 80.3723 90.6897 81.9985 89.6326 84.7529C88.9487 86.5356 87.5818 86.9667 86.3912 85.7772ZM135.962 82.6375C135.962 80.7575 137.784 79.5461 139.249 80.4511C139.976 80.9008 139.958 81.8529 139.194 83.2821C137.969 85.5682 135.962 85.1676 135.962 82.6375ZM65.925 76.5542C65.925 75.3854 66.6067 74.4301 67.4384 74.4301C69.3262 74.4301 70.5255 78.5382 68.8184 79.1543C66.9383 79.8339 65.925 78.9234 65.925 76.5542ZM90.0003 77.132C90.0003 75.4762 92.8861 73.6673 93.9038 74.685C94.1927 74.975 94.1183 76.0201 93.7396 77.0094C92.8686 79.2779 90.0003 79.3721 90.0003 77.132ZM139.869 76.7424C139.154 75.5857 142.291 72.7338 143.237 73.6793C144.149 74.592 142.83 77.7131 141.532 77.7131C140.948 77.7131 140.198 77.2764 139.869 76.7424ZM92.3947 69.244C92.5961 68.1978 93.5788 67.1845 94.5779 66.9919C95.9327 66.7314 96.2446 67.2151 95.8057 68.8949C95.089 71.6373 91.8705 71.9667 92.3947 69.244ZM65.925 70.6896C65.925 68.942 67.5063 66.7697 68.7779 66.7697C70.3504 66.7697 70.8637 69.1269 69.5724 70.4171C68.7757 71.2149 65.925 71.4272 65.925 70.6896ZM142.528 69.5953C142.528 67.8476 144.11 65.6754 145.381 65.6754C146.954 65.6754 147.467 68.0326 146.176 69.3228C145.379 70.1206 142.528 70.3329 142.528 69.5953ZM93.2833 60.1391C93.2833 58.9704 94.022 58.015 94.9248 58.015C96.5477 58.015 97.2196 61.3746 95.867 62.7272C94.7256 63.8686 93.2833 62.423 93.2833 60.1391ZM68.8819 62.7962C68.5021 62.4154 68.7111 61.1317 69.348 59.9422C70.7203 57.3781 72.9276 58.8872 71.8628 61.6625C71.1329 63.5644 70.0594 63.9726 68.8819 62.7962ZM144.717 60.2037C144.717 58.9879 145.447 58.015 146.358 58.015C147.27 58.015 148 58.9879 148 60.2037C148 61.4195 147.27 62.3924 146.358 62.3924C145.447 62.3924 144.717 61.4195 144.717 60.2037ZM72.491 54.2495C72.491 52.342 74.2857 51.0759 75.7258 51.9667C77.1824 52.8673 75.8714 55.8264 74.0154 55.8264C73.1771 55.8264 72.491 55.1173 72.491 54.2495ZM144.17 51.9962C144.17 49.2046 146.504 48.699 147.195 51.3407C147.506 52.5346 147.477 53.7964 147.129 54.1444C145.957 55.3164 144.17 54.0196 144.17 51.9962ZM91.8071 53.1256C91.1045 51.2969 92.735 49.8874 94.3776 50.9019C96.0137 51.913 95.6974 54.732 93.9476 54.732C93.1093 54.732 92.1452 54.0087 91.8071 53.1256ZM77.9626 48.8303C77.9626 47.2928 81.1099 45.4762 82.085 46.4512C82.3739 46.7412 82.3192 47.7371 81.9624 48.6661C81.1548 50.7706 77.9626 50.9008 77.9626 48.8303ZM87.3542 48.5961C86.4021 48.2306 85.623 47.1932 85.623 46.2903C85.623 45.2431 86.25 44.8896 87.3542 45.3131C88.3063 45.6786 89.5221 45.9774 90.055 45.9774C90.5891 45.9774 90.7423 46.716 90.3965 47.6189C89.6775 49.4913 89.683 49.4902 87.3542 48.5961ZM141.987 42.6856C142.996 41.0518 144.397 41.3779 145.184 43.4276C146.089 45.7859 143.42 47.5313 142.211 45.3722C141.719 44.4913 141.618 43.2831 141.987 42.6856ZM138.519 37.6965C137.462 34.9421 139.929 33.3159 141.294 35.8668C142.435 37.9997 141.969 39.4114 140.123 39.4114C139.602 39.4114 138.881 38.6399 138.519 37.6965ZM133.374 28.4297C134.832 26.9721 137.599 29.9881 136.474 31.8079C135.927 32.6932 135.198 32.5499 133.965 31.3166C132.75 30.103 132.573 29.2308 133.374 28.4297ZM128.383 24.7353C127.506 23.6792 127.465 22.9668 128.248 22.482C129.777 21.5376 131.585 22.7414 131.585 24.7024C131.585 26.7116 130.037 26.728 128.383 24.7353ZM121.93 18.2546C121.725 17.1997 122.274 16.4304 123.233 16.4304C125.265 16.4304 126.493 18.2141 125.53 19.7714C124.541 21.3724 122.355 20.4531 121.93 18.2546ZM116.345 13.7919C115.429 12.6888 115.405 12.0366 116.259 11.5091C117.711 10.6118 120.859 13.0051 120.018 14.3654C119.15 15.7694 117.813 15.5604 116.345 13.7919ZM109.779 8.32026C108.863 7.21717 108.839 6.56495 109.693 6.03748C111.145 5.14013 114.293 7.53343 113.452 8.89369C112.584 10.2977 111.247 10.0887 109.779 8.32026ZM103.827 1.07137C105.285 -0.386278 108.052 2.62972 106.927 4.4496C106.38 5.33491 105.651 5.19154 104.418 3.95823C103.203 2.74461 103.026 1.87243 103.827 1.07137Z" fill="white"/>
</svg>
