<svg width="54" height="54" viewBox="0 0 45 46" fill="none" xmlns="http://www.w3.org/2000/svg">
<path style="mix-blend-mode:multiply" d="M6.65992 39.0866C3.75102 36.0572 1.80446 32.2341 1.06583 28.0997C0.327191 23.9652 0.829555 19.7046 2.50955 15.8554C4.18955 12.0061 6.97191 8.74062 10.5056 6.47085C14.0394 4.20107 18.1662 3.02869 22.3655 3.10159C26.5647 3.1745 30.6483 4.48943 34.1012 6.88051C37.554 9.27159 40.2213 12.6317 41.7667 16.537C43.312 20.4422 43.6662 24.7177 42.7845 28.824C41.9028 32.9303 39.8247 36.6835 36.8124 39.6101C32.7431 43.5364 27.2816 45.6867 21.6278 45.5885C15.974 45.4903 10.5905 43.1518 6.65992 39.0866Z" fill="url(#paint0_radial_0_2215)"/>
<path d="M44.6098 22.2609C44.6098 26.4843 43.3574 30.6128 41.011 34.1244C38.6646 37.636 35.3296 40.373 31.4277 41.9892C27.5258 43.6054 23.2323 44.0283 19.0901 43.2044C14.9479 42.3804 11.143 40.3467 8.1566 37.3603C5.17022 34.3739 3.13646 30.569 2.31252 26.4268C1.48857 22.2846 1.91145 17.991 3.52767 14.0891C5.14389 10.1872 7.88086 6.85224 11.3925 4.50586C14.9041 2.15947 19.0326 0.907104 23.256 0.907104C28.9194 0.907104 34.3508 3.15687 38.3554 7.16148C42.36 11.1661 44.6098 16.5975 44.6098 22.2609Z" fill="white"/>
<path d="M44.6098 22.6925C44.6098 26.9159 43.3574 31.0444 41.011 34.5561C38.6646 38.0677 35.3296 40.8046 31.4277 42.4208C27.5258 44.0371 23.2323 44.4599 19.0901 43.636C14.9479 42.8121 11.143 40.7783 8.1566 37.7919C5.17022 34.8056 3.13646 31.0007 2.31252 26.8584C1.48857 22.7162 1.91145 18.4227 3.52767 14.5208C5.14389 10.6189 7.88086 7.28388 11.3925 4.9375C14.9041 2.59111 19.0326 1.33875 23.256 1.33875C28.9194 1.33875 34.3508 3.5885 38.3554 7.59311C42.36 11.5977 44.6098 17.0292 44.6098 22.6925Z" fill="url(#paint1_linear_0_2215)"/>
<path d="M26.4707 20.0108C26.647 19.8396 26.7873 19.6348 26.883 19.4084C26.9787 19.182 27.0281 18.9387 27.0281 18.6929C27.0281 18.4471 26.9787 18.2038 26.883 17.9774C26.7873 17.751 26.647 17.5461 26.4707 17.3749C25.9094 17.0701 25.2691 16.9421 24.6338 17.0075H20.8866V20.4333H24.6889C25.3121 20.4784 25.9341 20.3309 26.4707 20.0108Z" fill="url(#paint2_linear_0_2215)"/>
<path d="M26.8472 23.666C26.2234 23.3001 25.5014 23.1364 24.7807 23.1976H20.8866V27.4224H24.8267C25.5377 27.4701 26.2455 27.29 26.8472 26.9081C27.0785 26.7155 27.259 26.4691 27.3727 26.1904C27.4864 25.9118 27.5299 25.6094 27.4993 25.31C27.5252 25.0042 27.4798 24.6966 27.3666 24.4113C27.2535 24.1261 27.0757 23.8709 26.8472 23.666Z" fill="url(#paint3_linear_0_2215)"/>
<path d="M23.2586 5C19.6485 4.99819 16.1189 6.06718 13.1163 8.07176C10.1138 10.0763 7.77332 12.9264 6.39092 16.2614C5.00853 19.5965 4.64635 23.2666 5.35022 26.8075C6.05409 30.3484 7.79236 33.601 10.3451 36.1537C12.8979 38.7065 16.1505 40.4448 19.6914 41.1487C23.2323 41.8526 26.9024 41.4904 30.2375 40.108C33.5725 38.7256 36.4226 36.3851 38.4272 33.3826C40.4317 30.3801 41.5007 26.8504 41.4989 23.2403C41.4989 18.4026 39.5772 13.7632 36.1565 10.3424C32.7358 6.92173 28.0963 5 23.2586 5ZM29.4306 29.6142C28.1675 30.5301 26.6252 30.9782 25.068 30.8817H17.7204V16.4254C17.7192 16.2031 17.7621 15.9828 17.8466 15.7773C17.9311 15.5717 18.0555 15.3849 18.2127 15.2277C18.3699 15.0706 18.5566 14.9461 18.7622 14.8616C18.9678 14.7771 19.1881 14.7343 19.4104 14.7355H25.3251C26.672 14.6434 28.0108 15.0056 29.1275 15.7641C29.5619 16.1427 29.9055 16.6142 30.1329 17.1436C30.3602 17.673 30.4655 18.2469 30.4409 18.8225C30.4626 19.5426 30.2846 20.2547 29.9265 20.8799C29.567 21.4298 29.0613 21.8687 28.4662 22.1473C29.2021 22.4543 29.8381 22.9599 30.3031 23.6076C30.7358 24.3097 30.947 25.1258 30.9093 25.9497C30.9497 26.6305 30.838 27.3119 30.5822 27.9442C30.3265 28.5765 29.933 29.1438 29.4306 29.6051V29.6142Z" fill="url(#paint4_linear_0_2215)"/>
<defs>
<radialGradient id="paint0_radial_0_2215" cx="0" cy="0" r="1" gradientUnits="userSpaceOnUse" gradientTransform="translate(23.0653 19.3956) rotate(136.332) scale(21.4137)">
<stop stop-color="#A6A8AB"/>
<stop offset="0.26" stop-color="#C1C2C4"/>
<stop offset="0.75" stop-color="#EEEEEF"/>
<stop offset="1" stop-color="white"/>
</radialGradient>
<linearGradient id="paint1_linear_0_2215" x1="4.68509" y1="34.0077" x2="41.1656" y2="11.7814" gradientUnits="userSpaceOnUse">
<stop stop-color="#E6E7E8"/>
<stop offset="1" stop-color="white"/>
</linearGradient>
<linearGradient id="paint2_linear_0_2215" x1="8.56104" y1="33.6313" x2="33.4967" y2="8.69559" gradientUnits="userSpaceOnUse">
<stop offset="0.15" stop-color="#D4145A"/>
<stop offset="1" stop-color="#D44076"/>
</linearGradient>
<linearGradient id="paint3_linear_0_2215" x1="11.9318" y1="37.0018" x2="36.8675" y2="12.0662" gradientUnits="userSpaceOnUse">
<stop offset="0.15" stop-color="#D4145A"/>
<stop offset="1" stop-color="#D44076"/>
</linearGradient>
<linearGradient id="paint4_linear_0_2215" x1="10.4464" y1="36.0617" x2="35.3821" y2="11.126" gradientUnits="userSpaceOnUse">
<stop offset="0.15" stop-color="#D4145A"/>
<stop offset="1" stop-color="#D44076"/>
</linearGradient>
</defs>
</svg>
