<svg width="54" height="54" viewBox="0 0 40 41" fill="none" xmlns="http://www.w3.org/2000/svg">
<path d="M39.4063 20.4707C39.4063 24.3653 38.2514 28.1724 36.0877 31.4106C33.924 34.6489 30.8486 37.1728 27.2505 38.6632C23.6523 40.1536 19.693 40.5436 15.8733 39.7838C12.0535 39.024 8.54484 37.1485 5.79095 34.3946C3.03706 31.6407 1.16164 28.1321 0.401841 24.3123C-0.357956 20.4926 0.032002 16.5333 1.5224 12.9351C3.01279 9.33699 5.53668 6.26161 8.77492 4.09789C12.0132 1.93417 15.8203 0.779299 19.7149 0.779299C22.3011 0.778092 24.8623 1.28659 27.2519 2.27575C29.6415 3.26491 31.8127 4.71533 33.6415 6.54409C35.4702 8.37285 36.9207 10.5441 37.9098 12.9337C38.899 15.3233 39.4075 17.8845 39.4063 20.4707Z" fill="white"/>
<path d="M39.4062 20.8654C39.408 24.7604 38.2547 28.5685 36.0921 31.8079C33.9294 35.0473 30.8547 37.5727 27.2567 39.0645C23.6588 40.5563 19.6992 40.9475 15.8788 40.1888C12.0585 39.43 8.54892 37.5553 5.79411 34.8018C3.0393 32.0483 1.16296 28.5396 0.402423 24.7196C-0.358119 20.8996 0.0312987 16.9399 1.52142 13.3412C3.01155 9.74251 5.53544 6.66659 8.77388 4.50246C12.0123 2.33834 15.8198 1.18323 19.7148 1.18323C24.9357 1.18323 29.9429 3.25659 33.6355 6.94746C37.328 10.6383 39.4038 15.6445 39.4062 20.8654Z" fill="url(#paint0_linear_0_2230)"/>
<path d="M19.7054 4.04846C16.3793 4.04846 13.128 5.03474 10.3625 6.88258C7.59702 8.73042 5.44158 11.3568 4.16876 14.4297C2.89595 17.5025 2.56294 20.8838 3.21181 24.1459C3.86069 27.408 5.46231 30.4045 7.81417 32.7563C10.166 35.1082 13.1625 36.7098 16.4246 37.3587C19.6867 38.0076 23.068 37.6745 26.1408 36.4017C29.2137 35.1289 31.8401 32.9735 33.6879 30.208C35.5358 27.4425 36.522 24.1912 36.522 20.8651C36.522 18.6567 36.0871 16.47 35.2419 14.4297C34.3968 12.3894 33.1581 10.5355 31.5966 8.97396C30.035 7.41239 28.1811 6.17368 26.1408 5.32856C24.1005 4.48344 21.9138 4.04846 19.7054 4.04846ZM16.95 24.5205C17.3001 24.971 17.7552 25.3287 18.2756 25.5625C18.796 25.7963 19.3657 25.8989 19.935 25.8615C20.7566 25.9399 21.5766 25.6966 22.2224 25.1827C22.8682 24.6688 23.2895 23.9244 23.3975 23.1061H26.3824C26.3543 23.8816 26.1669 24.643 25.8319 25.3429C25.4969 26.0429 25.0216 26.6664 24.4353 27.1748C23.0915 28.1824 21.4381 28.6891 19.7605 28.6076C18.8039 28.6734 17.8448 28.5245 16.9533 28.1717C16.0618 27.8189 15.2605 27.2712 14.608 26.5687C13.4324 25.2737 12.8354 23.3541 12.8354 20.8192C12.8354 18.2843 13.4416 16.2729 14.6723 14.9688C15.3709 14.2662 16.2119 13.7216 17.1387 13.3714C18.0655 13.0213 19.0566 12.8738 20.0452 12.939C21.6976 12.8432 23.3289 13.3489 24.6374 14.3626C25.1904 14.8562 25.638 15.4563 25.9537 16.127C26.2693 16.7977 26.4464 17.5252 26.4743 18.266H24.6374C24.3264 18.2834 24.0176 18.2046 23.753 18.0402C23.4884 17.8759 23.2809 17.634 23.1587 17.3475C22.9678 16.9773 22.7199 16.6395 22.4239 16.3464C21.7521 15.8885 20.949 15.6628 20.137 15.7035C19.5592 15.669 18.9812 15.7678 18.4477 15.9924C17.9142 16.2169 17.4395 16.5612 17.0602 16.9985C16.2904 18.1138 15.9243 19.4584 16.0224 20.81C15.9155 22.1216 16.259 23.4304 16.996 24.5205H16.95Z" fill="#8CC63F"/>
<defs>
<linearGradient id="paint0_linear_0_2230" x1="2.58584" y1="31.2989" x2="36.2192" y2="10.8085" gradientUnits="userSpaceOnUse">
<stop stop-color="#E6E7E8"/>
<stop offset="1" stop-color="white"/>
</linearGradient>
</defs>
</svg>
