<svg width="54" height="54" viewBox="0 0 33 33" fill="none" xmlns="http://www.w3.org/2000/svg">
<path style="mix-blend-mode:multiply" d="M5.18869 27.9419C3.07533 25.7405 1.66131 22.9624 1.12507 19.9582C0.588828 16.954 0.954374 13.8583 2.17558 11.0616C3.39679 8.26494 5.41897 5.8926 7.98696 4.24392C10.5549 2.59524 13.5537 1.74407 16.6049 1.79781C19.6561 1.85154 22.6231 2.80777 25.1314 4.54585C27.6398 6.28392 29.5771 8.726 30.6991 11.5639C31.8211 14.4019 32.0774 17.5085 31.4357 20.492C30.7941 23.4754 29.2831 26.202 27.0935 28.3276C25.6309 29.7425 23.9036 30.855 22.0106 31.6015C20.1175 32.348 18.0957 32.7138 16.0611 32.678C14.0265 32.6421 12.0189 32.2054 10.1532 31.3927C8.2876 30.58 6.60057 29.4074 5.18869 27.9419Z" fill="url(#paint0_radial_0_2241)"/>
<path d="M32.742 15.7266C32.742 18.7951 31.832 21.7947 30.1271 24.3459C28.4221 26.8971 25.9988 28.8853 23.1638 30.0592C20.3287 31.233 17.2092 31.5396 14.1998 30.9403C11.1904 30.341 8.42639 28.8628 6.25729 26.6924C4.0882 24.522 2.61149 21.7571 2.01398 18.7473C1.41646 15.7376 1.72498 12.6183 2.9005 9.78388C4.07601 6.9495 6.06572 4.5274 8.61795 2.82397C11.1702 1.12054 14.1702 0.212297 17.2387 0.214114C21.3513 0.216549 25.2946 1.85197 28.2018 4.76086C31.109 7.66976 32.742 11.614 32.742 15.7266Z" fill="white"/>
<path d="M32.742 16.0481C32.742 19.1166 31.832 22.1161 30.1271 24.6674C28.4221 27.2186 25.9988 29.2068 23.1638 30.3807C20.3287 31.5545 17.2092 31.8612 14.1998 31.2619C11.1904 30.6626 8.42639 29.1842 6.25729 27.0139C4.0882 24.8435 2.61149 22.0785 2.01398 19.0688C1.41646 16.0591 1.72498 12.9397 2.9005 10.1054C4.07601 7.27098 6.06572 4.84894 8.61795 3.14551C11.1702 1.44208 14.1702 0.533831 17.2387 0.535647C19.2754 0.535647 21.2921 0.936918 23.1737 1.71661C25.0552 2.49629 26.7647 3.63912 28.2045 5.07971C29.6442 6.52029 30.786 8.23041 31.5645 10.1124C32.3431 11.9944 32.7432 14.0114 32.742 16.0481Z" fill="url(#paint1_linear_0_2241)"/>
<path d="M17.8732 11.9059H15.623V19.4555H17.561C18.0133 19.4898 18.4677 19.4254 18.8926 19.2668C19.3176 19.1082 19.7031 18.8592 20.0224 18.537C20.6026 17.7004 20.8663 16.6847 20.7663 15.6715C20.8476 14.652 20.5962 13.6337 20.0499 12.7692C19.7833 12.4609 19.4462 12.2214 19.0673 12.0711C18.6883 11.9209 18.2787 11.8642 17.8732 11.9059Z" fill="#77C4D3"/>
<path d="M17.2584 2.79493C14.6368 2.79311 12.0735 3.56888 9.89286 5.02404C7.71219 6.47921 6.01209 8.54839 5.00758 10.9699C4.00308 13.3915 3.7393 16.0565 4.24963 18.628C4.75997 21.1994 6.02149 23.5618 7.8746 25.4162C9.72772 27.2706 12.0892 28.5338 14.6603 29.0459C17.2314 29.558 19.8966 29.2961 22.3189 28.2932C24.7411 27.2904 26.8115 25.5917 28.2682 23.4121C29.7248 21.2324 30.5023 18.6697 30.5023 16.048C30.5023 12.5347 29.1073 9.1651 26.6239 6.67992C24.1404 4.19474 20.7718 2.79736 17.2584 2.79493ZM22.7691 18.5554C22.4705 19.3266 21.9768 20.007 21.3363 20.53C20.859 20.9069 20.3132 21.1877 19.729 21.3567C18.9131 21.5433 18.0765 21.6236 17.24 21.5955H13.2816V11.0885C13.2789 10.9264 13.3093 10.7654 13.3709 10.6154C13.4324 10.4654 13.5239 10.3294 13.6398 10.216C13.7536 10.1006 13.8895 10.0093 14.0394 9.94778C14.1894 9.88622 14.3502 9.85561 14.5123 9.85775H17.8921C18.6256 9.80104 19.3629 9.89932 20.056 10.1462C20.749 10.393 21.3824 10.7829 21.9149 11.2905C22.8859 12.5568 23.3597 14.1349 23.2467 15.7266C23.2501 16.6855 23.0822 17.6373 22.7507 18.537L22.7691 18.5554Z" fill="#77C4D3"/>
<defs>
<radialGradient id="paint0_radial_0_2241" cx="0" cy="0" r="1" gradientUnits="userSpaceOnUse" gradientTransform="translate(13.2299 13.9606) rotate(136.332) scale(15.5505)">
<stop stop-color="#A6A8AB"/>
<stop offset="0.26" stop-color="#C1C2C4"/>
<stop offset="0.75" stop-color="#EEEEEF"/>
<stop offset="1" stop-color="white"/>
</radialGradient>
<linearGradient id="paint1_linear_0_2241" x1="3.76516" y1="24.259" x2="30.2622" y2="8.12195" gradientUnits="userSpaceOnUse">
<stop stop-color="#E6E7E8"/>
<stop offset="1" stop-color="white"/>
</linearGradient>
</defs>
</svg>
