<svg width="78" height="78" viewBox="0 0 78 78" fill="none" xmlns="http://www.w3.org/2000/svg">
<path d="M38.9367 74.7716C19.1882 74.7716 3.16595 58.7493 3.16595 39.0009C3.16595 19.2525 19.1882 3.23022 38.9367 3.23022C58.6851 3.23022 74.6453 19.1904 74.6453 38.9388C74.6453 58.7493 58.6851 74.7716 38.9367 74.7716Z" fill="white"/>
<path d="M64.5226 19.0026C75.5767 33.1618 73.0306 53.5313 58.8713 64.5854C44.7121 75.6396 24.3427 73.0934 13.2885 58.9341C2.23439 44.7749 4.78056 24.4055 18.8777 13.3513C33.099 2.29719 53.4685 4.84336 64.5226 19.0026Z" fill="url(#paint0_linear_0_2337)"/>
<path d="M55.5193 20.4321V47.3223C55.5193 50.8621 52.7248 53.7809 49.2471 53.7809C45.7693 53.7809 42.9748 50.8621 42.9748 47.3223V24.0961L34.6531 26.5181V39.4353C34.6531 42.9751 31.8585 45.8939 28.3808 45.8939C24.9031 45.8939 22.1085 42.9751 22.1085 39.4353V30.1821L13.7869 32.542V39.3732C13.7869 47.6328 20.3076 54.2777 28.3187 54.2777C30.927 54.2777 33.349 53.5946 35.4604 52.3525C37.5098 58.128 42.8506 62.2267 49.185 62.2267C57.1961 62.2267 63.7168 55.5197 63.7168 47.3223V18.0723L55.5193 20.4321Z" fill="white"/>
<path d="M38.9379 0C17.4506 0 0 17.4506 0 39C0 60.5494 17.4506 78 38.9379 78C60.4252 78 77.8758 60.5494 77.8758 39C77.8758 17.4506 60.4252 0 38.9379 0ZM38.9379 74.7707C19.1895 74.7707 3.1672 58.7484 3.1672 39C3.1672 19.2516 19.1895 3.2293 38.9379 3.2293C58.6863 3.2293 74.6465 19.1895 74.6465 38.9379C74.6465 58.7484 58.6863 74.7707 38.9379 74.7707Z" fill="#32352C"/>
<defs>
<linearGradient id="paint0_linear_0_2337" x1="6.46508" y1="38.9648" x2="71.3878" y2="38.9648" gradientUnits="userSpaceOnUse">
<stop stop-color="#FFBA3B"/>
<stop offset="0.5315" stop-color="#FFA53B"/>
<stop offset="1" stop-color="#FF983B"/>
</linearGradient>
</defs>
</svg>
