<svg width="28" height="28" viewBox="0 0 28 28" fill="none" xmlns="http://www.w3.org/2000/svg">
<path d="M13.6836 1.16699C6.69397 1.16699 1.02734 6.83362 1.02734 13.8232L1.02777 13.8456L1.02734 13.868C1.02734 20.8331 6.66233 26.4795 13.614 26.4795L13.641 26.4786L13.6836 26.4795C20.6732 26.4795 26.3398 20.8129 26.3398 13.8232C26.3398 6.83362 20.6732 1.16699 13.6836 1.16699ZM25.4961 13.8232C25.4961 14.8332 25.3687 15.8132 25.1307 16.7485C25.0206 16.6726 24.7295 16.9865 24.6578 16.5705C24.568 16.0541 23.9858 15.6955 23.6723 15.9423C23.3589 16.1891 22.4632 16.9067 22.4189 17.3556C22.3738 17.8041 21.9928 18.3424 21.8144 17.9618C21.6347 17.5805 21.098 16.3912 21.12 16.0773C21.1419 15.7634 20.8728 16.1895 20.4711 15.5614C20.0678 14.9332 19.3738 15.4711 18.814 15.1572C18.2542 14.8429 17.6273 14.4168 17.3134 14.2827C17.0008 14.1477 17.8732 15.5386 17.9855 15.3593C18.0981 15.18 18.5453 15.4939 18.6799 15.4939C18.8144 15.4939 19.1722 15.8077 18.9486 16.0997C18.725 16.3916 16.7325 17.6041 16.5308 17.2885C16.3283 16.973 15.1429 14.529 14.9408 14.6788C14.7391 14.8286 16.195 17.378 16.4414 17.5349C16.6869 17.6923 17.4265 17.5577 17.7842 17.4007C18.1428 17.2438 17.0455 19.1507 16.576 19.3751C16.106 19.5991 15.7255 20.2948 15.9263 20.6087C16.1279 20.9226 16.1503 22.1118 15.7255 22.2692C15.2994 22.4257 15.1429 22.6725 15.277 22.9644C15.4108 23.2555 14.964 23.7487 14.7623 24.063C14.5602 24.3769 13.7773 25.0274 13.7098 25.2071C13.6431 25.3868 12.6804 25.3417 12.299 25.3417C11.9189 25.3417 12.2096 24.8705 12.1644 24.4671C12.1205 24.063 11.7847 23.6816 11.7847 23.48C11.7847 23.2779 11.6721 22.8066 11.516 22.5826C11.3595 22.3578 11.3139 21.9317 11.4709 21.6853C11.6282 21.4381 11.7396 20.7209 11.427 20.4066C11.1131 20.0927 10.7545 19.554 11.0013 19.1279C11.2477 18.7018 10.7326 18.7469 10.3073 18.5444C9.88166 18.3424 9.00838 18.6119 8.56077 18.6794C8.11273 18.7465 7.66555 18.5672 7.53097 18.3424C7.39681 18.1184 7.10572 17.5577 6.80745 17.4227C6.51003 17.2885 6.68047 16.7051 6.85934 16.4811C7.03906 16.257 6.68047 15.8305 6.85934 15.6504C7.03906 15.4711 7.15044 14.821 7.50861 14.6788C7.8672 14.5371 7.7997 14.4396 7.81067 14.1029C7.82206 13.7663 8.21356 13.7663 8.28022 13.587C8.34772 13.4073 8.54895 13.3178 8.95311 13.3178C9.356 13.3178 10.0382 13.082 10.363 13.0035C10.6879 12.9251 11.2477 12.8129 11.2025 13.1271C11.1578 13.441 11.1692 13.7996 11.3814 13.7996C11.5945 13.7996 11.8856 13.9232 12.2214 14.1325C12.5572 14.3413 12.5682 14.1704 12.6133 13.9346C12.6584 13.6988 13.128 13.7886 13.614 14.0131C14.1 14.2375 14.7628 14.0802 14.9745 14.0582C15.1876 14.035 15.2774 13.3963 15.2213 13.1833C15.1648 12.9702 14.8294 13.2841 14.6168 13.1495C14.4042 13.0154 14.1126 13.1833 13.9004 12.9921C13.6874 12.8019 13.6536 12.353 13.9004 12.342C14.1464 12.3306 14.27 12.2522 14.4151 12.0843C14.5611 11.9159 15.1095 11.8151 15.3222 11.983C15.5344 12.1514 15.8487 12.2636 16.0381 12.0729C16.2283 11.8826 15.6584 11.5126 15.5344 11.4114C15.4112 11.3106 15.512 10.9853 15.3892 10.9853C15.2656 10.9853 15.1648 11.041 15.2323 11.1983C15.2994 11.3553 14.8741 11.6354 14.8062 11.4789C14.7395 11.3215 14.6278 11.019 14.4598 11.019C14.2924 11.019 14.0683 11.7818 14.057 11.905C14.0456 12.0286 13.7545 12.2302 13.5199 12.2302C13.2853 12.2302 13.2853 12.4998 13.4081 12.6234C13.5313 12.7466 13.4414 13.2402 13.2178 13.2685C12.9938 13.2972 12.9154 13.2179 12.882 13.0267C12.8487 12.8365 12.6247 12.8588 12.6133 12.4661C12.6019 12.0733 12.3555 11.883 12.199 11.7033C12.0425 11.5236 11.6392 10.9967 11.4827 11.2325C11.3262 11.4683 12.0425 11.9729 12.2323 12.1071C12.4235 12.2416 12.3897 12.5331 12.2889 12.6006C12.188 12.6681 11.9978 13.2179 11.886 13.2621C11.7733 13.3069 11.6666 13.0951 11.6666 13.0951C11.4987 13.028 11.9012 12.8259 11.9687 12.7251C12.0353 12.6243 11.2637 11.9176 11.1245 11.7156C10.9853 11.5135 10.3904 11.8835 10.1221 11.7493C9.85339 11.6151 9.45008 12.2539 9.41717 12.6239C9.383 12.9943 8.94636 13.0947 8.54347 13.0947C8.141 13.0947 7.87184 12.7922 8.00684 12.4893C8.141 12.1864 7.93934 11.6818 8.17475 11.6481C8.40973 11.6147 9.08052 11.6481 9.21509 11.2781C9.34925 10.9081 8.5768 10.5714 8.8797 10.5044C9.18134 10.4369 9.65216 9.96646 9.98797 9.69688C10.3229 9.42773 10.3567 9.09149 10.6587 9.06787C10.9617 9.04466 10.5921 8.48526 10.8608 8.31735C11.13 8.14902 11.1966 8.92316 11.3983 8.92316C11.6 8.92316 12.002 8.85566 12.3382 9.02399C12.6745 9.19232 12.7749 8.85566 12.9095 8.41776C13.0436 7.9807 13.3794 7.74487 14.0506 7.40863C14.7222 7.07198 13.279 7.50946 13.0099 7.1728C12.7411 6.83615 13.1107 6.09576 13.279 5.57305C13.4469 5.04993 12.7415 6.09576 12.372 6.63449C12.002 7.1728 12.4728 7.40821 12.4386 7.77819C12.4053 8.1486 11.8016 8.58566 11.8016 8.58566C11.5329 8.61941 11.5662 8.0811 11.432 7.8457C11.2975 7.61029 11.0621 7.71112 10.6925 7.98027C10.3229 8.24943 10.2896 7.34113 10.1892 6.97073C10.0892 6.60116 10.7937 6.12951 11.1249 5.87807C11.4557 5.62579 12.002 4.41374 12.607 3.47212C13.2119 2.53007 14.0848 3.00088 14.3198 3.37129C14.5556 3.74085 15.1589 3.50545 15.7305 4.17876C16.3018 4.85165 15.596 5.15413 14.9589 4.88076C14.3198 4.60738 15.0927 5.55829 15.4614 5.82745C15.8309 6.09618 16.0326 5.22163 16.1672 5.01998C16.3013 4.8179 16.8046 4.91915 17.1738 4.38041C17.5437 3.8421 18.3829 3.94335 18.8621 4.00241C19.3418 4.0619 19.2224 3.70752 18.9203 3.4177C18.6967 3.20338 19.154 3.39112 19.6924 3.65395C23.1657 5.70974 25.4961 9.49354 25.4961 13.8232ZM8.63881 9.80362C8.52744 9.68845 8.75145 9.23493 8.85186 9.10035C8.95311 8.96577 8.57173 9.01049 8.59494 9.2016C8.6173 9.39187 8.44897 9.6838 8.21398 9.76227C7.979 9.84074 7.71111 9.81796 7.84484 9.60491C7.97858 9.39187 7.85581 9.20118 7.75498 8.9991C7.65458 8.79702 8.31439 8.67384 8.44939 8.55065C8.58355 8.42746 8.23719 8.34857 8.24773 8.1583C8.25912 7.9672 8.33759 7.79929 8.47091 7.77693C8.60548 7.75457 8.7312 7.66851 8.85186 7.6761C9.22184 7.69888 9.10878 8.53968 9.24378 8.80926C9.37794 9.07799 9.75889 9.40368 9.72514 9.63866C9.69139 9.87449 9.61967 10.0091 9.34545 9.94157C9.06997 9.87407 8.62911 10.2892 8.46036 10.2107C8.29203 10.1318 8.75145 9.91879 8.63881 9.80362ZM6.22653 5.08663C6.56277 5.25454 6.83066 4.94995 7.06522 4.88455C7.34323 4.80777 7.50186 5.79327 7.23355 5.75952C6.96481 5.72577 6.66275 6.29784 6.27462 6.26409C5.88608 6.23034 6.0582 5.9616 5.62156 5.55787C5.52791 5.47096 5.48952 5.39249 5.48614 5.32373C5.57938 5.23387 5.67219 5.14359 5.7688 5.0571C5.91983 5.01702 6.09913 5.02293 6.22653 5.08663ZM16.7321 22.0211C17.0455 21.954 16.9852 21.3575 17.2695 21.3259C17.8741 21.2588 17.2919 22.9408 17.0683 23.412C16.8443 23.8833 16.754 23.8605 16.541 23.569C16.3271 23.2779 16.3962 22.8062 16.541 22.5822C16.6852 22.3574 16.4182 22.0886 16.7321 22.0211Z" fill="white"/>
</svg>
