<svg width="228" height="229" viewBox="0 0 228 229" fill="none" xmlns="http://www.w3.org/2000/svg">
<ellipse cx="114" cy="114.5" rx="114" ry="114.5" fill="#F4ECED"/>
<path d="M113.855 197.508C67.8409 197.508 30.4297 160.29 30.4297 114.514C30.4297 68.6082 67.7105 31.5205 113.855 31.5205C160 31.5205 197.281 68.7379 197.281 114.514C197.281 160.29 159.87 197.508 113.855 197.508Z" fill="white"/>
<path d="M173.558 68.0903C199.237 100.899 193.371 148.231 160.392 173.907C127.413 199.583 79.8342 193.618 54.1548 160.81C28.4753 128.001 34.3412 80.669 67.3204 55.1226C100.169 29.4465 147.748 35.2819 173.558 68.0903Z" fill="url(#paint0_linear_0_1993)"/>
<path d="M152.57 71.5908V133.966C152.57 142.265 146.052 149.008 137.84 149.008C129.758 149.008 123.11 142.265 123.11 133.966V80.0198L103.818 85.5959V115.551C103.818 123.851 97.3006 130.464 89.0884 130.594C81.0066 130.594 74.3586 123.851 74.3586 115.551V94.025L55.0664 99.6011V115.422C55.0664 134.614 70.3177 150.046 88.9581 150.046C95.0846 150.046 100.69 148.36 105.643 145.637C110.336 158.993 122.85 168.589 137.58 168.589C156.35 168.589 171.471 153.028 171.471 133.966V66.0146L152.57 71.5908Z" fill="white"/>
<path d="M113.856 24C63.67 24 23 64.589 23 114.515C23 164.441 63.67 205.03 113.856 205.03C164.042 205.03 204.711 164.57 204.711 114.515C204.711 64.589 164.042 24 113.856 24ZM113.856 197.508C67.8413 197.508 30.4301 160.291 30.4301 114.515C30.4301 68.609 67.7109 31.5213 113.856 31.5213C160.001 31.5213 197.281 68.7387 197.281 114.515C197.281 160.291 159.87 197.508 113.856 197.508Z" fill="#32352C"/>
<defs>
<linearGradient id="paint0_linear_0_1993" x1="38.1381" y1="114.507" x2="189.553" y2="114.507" gradientUnits="userSpaceOnUse">
<stop stop-color="#FFBA3B"/>
<stop offset="0.5315" stop-color="#FFA53B"/>
<stop offset="1" stop-color="#FF983B"/>
</linearGradient>
</defs>
</svg>
