<svg width="655" height="519" viewBox="0 0 655 519" fill="none" xmlns="http://www.w3.org/2000/svg">
<g clip-path="url(#clip0_0_1689)">
<path d="M409.176 451.89H262.495C244.81 451.779 230.329 436.746 230.44 419.061L231.987 50.8671C232.098 33.1814 246.468 18.9223 264.153 19.0329L411.055 19.6961C428.741 19.8066 443 34.1762 442.889 51.8619L441.342 420.056C441.231 437.741 426.862 452 409.176 451.89Z" fill="#263238"/>
<path d="M410.835 32.4083L382.317 32.2977C378.448 32.2977 375.353 35.5032 375.353 39.4825V44.6777C375.353 48.657 372.258 51.8625 368.389 51.8625L312.9 51.6414C309.031 51.6414 306.047 48.3254 306.047 44.3461V39.1509C306.047 35.1716 302.952 31.8556 299.194 31.8556H289.135L264.265 31.745C251.885 31.6345 241.826 41.6932 241.715 54.0732L240.168 413.424C240.168 425.804 250.116 435.863 262.496 435.973L409.066 436.637C421.446 436.747 431.505 426.688 431.615 414.308L433.163 54.9575C433.163 42.5775 423.215 32.5188 410.835 32.4083Z" fill="#FAFAFA"/>
<path d="M283.39 69.108C283.39 69.2185 278.526 69.4396 272.447 69.4396C266.367 69.4396 261.504 69.329 261.504 69.108C261.504 68.8869 266.367 68.7764 272.447 68.7764C278.526 68.8869 283.39 68.9974 283.39 69.108Z" fill="#263238"/>
<path d="M283.39 65.0172C283.39 65.1277 278.526 65.3488 272.447 65.3488C266.367 65.3488 261.504 65.2382 261.504 65.0172C261.504 64.9066 266.367 64.6855 272.447 64.6855C278.526 64.6855 283.39 64.7961 283.39 65.0172Z" fill="#263238"/>
<path d="M283.39 60.817C283.39 60.9275 278.526 61.1486 272.447 61.1486C266.367 61.1486 261.504 61.038 261.504 60.817C261.504 60.7064 266.367 60.4854 272.447 60.4854C278.526 60.5959 283.39 60.7064 283.39 60.817Z" fill="#263238"/>
<path d="M409.288 412.872H264.045C262.055 412.872 260.508 411.325 260.508 409.335V381.591C260.508 379.601 262.055 378.054 264.045 378.054H409.288C411.278 378.054 412.826 379.601 412.826 381.591V409.335C412.826 411.325 411.278 412.872 409.288 412.872Z" fill="url(#paint0_linear_0_1689)"/>
<g opacity="0.3">
<path d="M295.104 406.681H280.403C278.524 406.681 276.976 405.134 276.976 403.255V388.554C276.976 386.674 278.524 385.127 280.403 385.127H295.104C296.983 385.127 298.531 386.674 298.531 388.554V403.255C298.641 405.134 297.094 406.681 295.104 406.681Z" fill="black"/>
</g>
<path d="M287.808 402.15C287.477 402.15 287.256 401.929 287.256 401.597V390.212C287.256 389.88 287.477 389.659 287.808 389.659C288.14 389.659 288.361 389.88 288.361 390.212V401.597C288.361 401.929 288.14 402.15 287.808 402.15Z" fill="white"/>
<path d="M293.445 396.513H282.281C281.949 396.513 281.728 396.292 281.728 395.96C281.728 395.629 281.949 395.407 282.281 395.407H293.445C293.777 395.407 293.998 395.629 293.998 395.96C293.998 396.181 293.777 396.513 293.445 396.513Z" fill="white"/>
<path d="M317.543 397.949H313.785L313.012 399.718H311.906L315.112 392.533H316.106L319.312 399.718H318.207L317.543 397.949ZM317.212 397.176L315.664 393.639L314.117 397.176H317.212Z" fill="white"/>
<path d="M320.418 392.645H323.402C325.724 392.645 327.271 394.082 327.271 396.182C327.271 398.282 325.724 399.719 323.402 399.719H320.418V392.645ZM323.402 398.835C325.171 398.835 326.276 397.729 326.276 396.182C326.276 394.524 325.171 393.529 323.402 393.529H321.413V398.945H323.402V398.835Z" fill="white"/>
<path d="M328.93 392.645H331.914C334.235 392.645 335.783 394.082 335.783 396.182C335.783 398.282 334.235 399.719 331.914 399.719H328.93V392.645ZM331.914 398.835C333.683 398.835 334.788 397.729 334.788 396.182C334.788 394.524 333.683 393.529 331.914 393.529H329.924V398.945H331.914V398.835Z" fill="white"/>
<path d="M341.529 393.528H339.098V392.644H345.066V393.528H342.635V399.828H341.64V393.528H341.529Z" fill="white"/>
<path d="M345.51 396.181C345.51 394.081 347.168 392.533 349.378 392.533C351.589 392.533 353.137 394.081 353.137 396.181C353.137 398.281 351.479 399.829 349.378 399.829C347.057 399.829 345.51 398.281 345.51 396.181ZM352.031 396.181C352.031 394.633 350.815 393.418 349.268 393.418C347.61 393.418 346.504 394.633 346.504 396.181C346.504 397.728 347.72 398.944 349.268 398.944C350.926 398.944 352.031 397.728 352.031 396.181Z" fill="white"/>
<path d="M356.894 396.181C356.894 394.081 358.552 392.533 360.653 392.533C361.758 392.533 362.753 392.865 363.416 393.639L362.753 394.302C362.2 393.749 361.537 393.418 360.763 393.418C359.105 393.418 358 394.633 358 396.181C358 397.728 359.216 398.944 360.763 398.944C361.537 398.944 362.2 398.613 362.753 398.06L363.416 398.723C362.753 399.497 361.758 399.829 360.653 399.829C358.442 399.829 356.894 398.281 356.894 396.181Z" fill="white"/>
<path d="M369.274 397.949H365.516L364.742 399.718H363.637L366.842 392.533H367.837L371.042 399.718H369.937L369.274 397.949ZM368.832 397.176L367.284 393.639L365.737 397.176H368.832Z" fill="white"/>
<path d="M376.901 399.718L375.354 397.507C375.243 397.507 375.022 397.507 374.912 397.507H373.143V399.718H372.148V392.533H374.912C376.791 392.533 377.896 393.528 377.896 395.076C377.896 396.181 377.344 396.955 376.349 397.286L378.007 399.718H376.901ZM376.901 395.076C376.901 394.081 376.238 393.418 374.912 393.418H373.143V396.623H374.912C376.238 396.734 376.901 396.07 376.901 395.076Z" fill="white"/>
<path d="M380.881 393.529H378.449V392.645H384.418V393.529H381.986V399.829H380.991V393.529H380.881Z" fill="white"/>
<path d="M272.667 311.732L274.546 315.601L278.747 316.154L275.652 319.138L276.425 323.339L272.667 321.349L268.909 323.339L269.572 319.138L266.588 316.154L270.788 315.601L272.667 311.732Z" fill="url(#paint1_linear_0_1689)"/>
<path d="M288.142 311.732L290.021 315.601L294.221 316.154L291.126 319.138L291.9 323.339L288.142 321.349L284.384 323.339L285.047 319.138L282.062 316.154L286.263 315.601L288.142 311.732Z" fill="url(#paint2_linear_0_1689)"/>
<path d="M303.618 311.732L305.498 315.601L309.698 316.154L306.603 319.138L307.377 323.339L303.618 321.349L299.86 323.339L300.634 319.138L297.539 316.154L301.739 315.601L303.618 311.732Z" fill="url(#paint3_linear_0_1689)"/>
<path d="M319.093 311.732L320.972 315.601L325.172 316.154L322.188 319.138L322.851 323.339L319.093 321.349L315.335 323.339L316.109 319.138L313.014 316.154L317.214 315.601L319.093 311.732Z" fill="url(#paint4_linear_0_1689)"/>
<path d="M334.568 311.732L336.447 315.601L340.647 316.154L337.663 319.138L338.326 323.339L334.568 321.349L330.809 323.339L331.583 319.138L328.488 316.154L332.688 315.601L334.568 311.732Z" fill="url(#paint5_linear_0_1689)"/>
<path d="M357.338 320.576V321.46H352.364V320.797L355.127 318.144C355.901 317.481 356.011 317.039 356.011 316.597C356.011 315.934 355.459 315.492 354.574 315.492C353.801 315.492 353.248 315.713 352.806 316.265L352.142 315.713C352.695 315.049 353.579 314.718 354.685 314.718C356.122 314.718 357.006 315.492 357.006 316.597C357.006 317.26 356.785 317.813 355.901 318.808L353.801 320.797H357.338V320.576Z" fill="black"/>
<path d="M362.865 319.36C362.865 320.465 361.981 321.46 360.212 321.46C359.217 321.46 358.223 321.128 357.67 320.576L358.112 319.802C358.554 320.244 359.328 320.576 360.212 320.576C361.207 320.576 361.87 320.133 361.87 319.36C361.87 318.586 361.317 318.144 360.212 318.144H359.659V317.481L361.428 315.38H358.112V314.496H362.644V315.159L360.875 317.37C362.202 317.591 362.865 318.365 362.865 319.36Z" fill="black"/>
<path d="M371.596 321.46L370.159 319.359C370.049 319.359 369.828 319.359 369.717 319.359H368.059V321.46H367.064V314.606H369.717C371.486 314.606 372.591 315.491 372.591 317.038C372.591 318.144 372.038 318.917 371.044 319.249L372.702 321.57H371.596V321.46ZM371.486 316.928C371.486 315.933 370.823 315.38 369.607 315.38H367.949V318.475H369.607C370.823 318.475 371.486 317.923 371.486 316.928Z" fill="black"/>
<path d="M378.67 319.139H374.47C374.581 320.023 375.354 320.686 376.349 320.686C377.012 320.686 377.455 320.465 377.897 320.023L378.449 320.576C378.007 321.128 377.234 321.46 376.349 321.46C374.691 321.46 373.586 320.355 373.586 318.807C373.586 317.26 374.691 316.154 376.239 316.154C377.786 316.154 378.781 317.26 378.781 318.807C378.67 318.918 378.67 319.028 378.67 319.139ZM374.47 318.476H377.786C377.676 317.591 377.012 316.928 376.128 316.928C375.244 316.928 374.47 317.591 374.47 318.476Z" fill="black"/>
<path d="M384.53 316.265L382.208 321.46H381.214L378.892 316.265H379.887L381.656 320.465L383.535 316.265H384.53Z" fill="black"/>
<path d="M385.193 314.607C385.193 314.275 385.414 313.943 385.856 313.943C386.188 313.943 386.519 314.164 386.519 314.496C386.519 314.828 386.298 315.159 385.856 315.159C385.414 315.27 385.193 314.938 385.193 314.607ZM385.414 316.265H386.409V321.46H385.414V316.265Z" fill="black"/>
<path d="M392.819 319.139H388.619C388.729 320.023 389.503 320.686 390.498 320.686C391.161 320.686 391.603 320.465 392.045 320.023L392.598 320.576C392.156 321.128 391.382 321.46 390.498 321.46C388.84 321.46 387.734 320.355 387.734 318.807C387.734 317.26 388.84 316.154 390.387 316.154C391.935 316.154 392.929 317.26 392.929 318.807C392.819 318.918 392.819 319.028 392.819 319.139ZM388.508 318.476H391.824C391.714 317.591 391.05 316.928 390.166 316.928C389.282 316.928 388.619 317.591 388.508 318.476Z" fill="black"/>
<path d="M401.883 316.264L399.893 321.459H399.009L397.461 317.48L395.914 321.459H395.029L393.15 316.264H394.035L395.582 320.353L397.13 316.264H397.903L399.451 320.464L400.998 316.264H401.883Z" fill="black"/>
<path d="M402.105 320.907L402.548 320.133C402.99 320.465 403.653 320.686 404.427 320.686C405.311 320.686 405.642 320.465 405.642 320.023C405.642 318.807 402.326 319.912 402.326 317.812C402.326 316.928 403.211 316.265 404.537 316.265C405.2 316.265 405.974 316.486 406.416 316.707L405.974 317.481C405.532 317.149 404.979 317.038 404.427 317.038C403.653 317.038 403.211 317.37 403.211 317.702C403.211 318.918 406.527 317.923 406.527 319.912C406.527 320.907 405.643 321.46 404.316 321.46C403.432 321.46 402.548 321.239 402.105 320.907Z" fill="black"/>
<path d="M272.667 350.862V352.962H271.562V350.862C269.793 350.751 268.135 350.199 267.141 349.314L267.804 347.877C268.688 348.651 270.014 349.204 271.562 349.314V345.114C269.572 344.672 267.472 344.009 267.472 341.577C267.472 339.808 268.799 338.261 271.562 338.04V335.939H272.667V338.04C273.994 338.04 275.431 338.482 276.315 339.145L275.762 340.582C274.767 339.919 273.662 339.587 272.667 339.587V343.787C274.657 344.34 276.868 344.893 276.868 347.325C276.868 349.093 275.541 350.641 272.667 350.862ZM271.451 343.456V339.587C269.793 339.808 269.13 340.582 269.13 341.577C269.13 342.572 270.125 343.014 271.451 343.456ZM275.099 347.435C275.099 346.33 273.994 345.777 272.667 345.446V349.314C274.325 349.204 275.099 348.319 275.099 347.435Z" fill="black"/>
<path d="M294.333 347.656H291.901V350.751H290.133V347.656H283.059V346.329L289.58 338.039H291.57L285.38 345.998H290.243V343.234H291.901V345.998H294.333V347.656Z" fill="black"/>
<path d="M295.437 344.451C295.437 340.361 297.648 337.929 300.632 337.929C303.617 337.929 305.828 340.25 305.828 344.451C305.828 348.651 303.617 350.972 300.632 350.972C297.648 350.862 295.437 348.54 295.437 344.451ZM303.948 344.451C303.948 341.245 302.622 339.587 300.632 339.587C298.643 339.587 297.316 341.245 297.316 344.451C297.316 347.656 298.643 349.314 300.632 349.314C302.622 349.314 303.948 347.656 303.948 344.451Z" fill="black"/>
<path d="M307.266 349.646C307.266 348.872 307.818 348.43 308.481 348.43C309.145 348.43 309.697 348.982 309.697 349.646C309.697 350.419 309.145 350.861 308.481 350.861C307.818 350.861 307.266 350.309 307.266 349.646Z" fill="black"/>
<path d="M321.523 347.103C321.523 349.425 319.534 350.862 316.439 350.862C313.344 350.862 311.465 349.425 311.465 347.103C311.465 345.666 312.239 344.561 313.675 344.008C312.57 343.456 311.907 342.571 311.907 341.245C311.907 339.145 313.786 337.818 316.439 337.818C319.202 337.818 321.081 339.145 321.081 341.245C321.081 342.461 320.418 343.456 319.313 344.008C320.75 344.672 321.523 345.666 321.523 347.103ZM319.755 347.103C319.755 345.666 318.539 344.893 316.549 344.893C314.56 344.893 313.344 345.777 313.344 347.103C313.344 348.54 314.56 349.425 316.549 349.425C318.539 349.425 319.755 348.54 319.755 347.103ZM313.786 341.466C313.786 342.682 314.781 343.456 316.549 343.456C318.318 343.456 319.423 342.682 319.423 341.466C319.423 340.25 318.318 339.476 316.549 339.476C314.781 339.476 313.786 340.14 313.786 341.466Z" fill="black"/>
<path d="M323.182 344.45C323.182 340.36 325.392 337.929 328.377 337.929C331.361 337.929 333.572 340.25 333.572 344.45C333.572 348.651 331.361 350.972 328.377 350.972C325.392 350.861 323.182 348.54 323.182 344.45ZM331.693 344.45C331.693 341.245 330.366 339.587 328.377 339.587C326.387 339.587 325.061 341.245 325.061 344.45C325.061 347.656 326.387 349.314 328.377 349.314C330.366 349.314 331.693 347.656 331.693 344.45Z" fill="black"/>
<path d="M389.725 263.097L283.832 263.318C279.632 263.318 276.316 260.002 276.316 255.802L276.205 156.209C276.205 152.009 279.521 148.693 283.721 148.693L389.614 148.472C393.815 148.472 397.131 151.788 397.131 155.988L397.241 255.581C397.241 259.67 393.815 263.097 389.725 263.097Z" fill="url(#paint6_linear_0_1689)"/>
<path d="M351.59 212.029C351.59 212.029 353.911 208.713 355.901 210.15C355.901 210.15 357.117 211.366 356.232 214.35C356.122 214.903 356.011 215.456 355.901 216.008C355.79 216.45 355.79 216.893 355.68 217.335C355.68 217.777 355.79 218.219 355.68 218.661C355.459 219.545 355.016 220.54 354.243 221.093C353.911 221.314 353.469 221.535 353.137 221.535C352.916 221.535 351.59 221.424 351.59 221.203V212.029Z" fill="#E5BE90"/>
<path d="M351.59 213.024C351.59 213.024 353.469 210.371 355.016 211.476C355.016 211.476 356.011 212.471 355.348 214.792C355.237 215.234 355.127 215.677 355.016 216.119C354.906 216.45 354.906 216.782 354.906 217.114C354.906 217.445 355.016 217.887 354.906 218.219C354.685 218.993 354.353 219.766 353.69 220.209C353.358 220.43 353.137 220.54 352.806 220.54C352.695 220.54 351.59 220.43 351.59 220.319V213.024Z" fill="#DCB68B"/>
<path d="M321.082 212.029C321.082 212.029 318.761 208.713 316.771 210.15C316.771 210.15 315.555 211.366 316.439 214.35C316.55 214.903 316.661 215.456 316.771 216.008C316.882 216.45 316.882 216.893 316.992 217.335C316.992 217.777 316.882 218.219 316.992 218.661C317.213 219.545 317.655 220.54 318.429 221.093C318.761 221.314 319.203 221.535 319.534 221.535C319.756 221.535 321.082 221.424 321.082 221.203V212.029Z" fill="#E5BE90"/>
<path d="M321.082 213.024C321.082 213.024 319.203 210.371 317.655 211.476C317.655 211.476 316.66 212.471 317.324 214.792C317.434 215.234 317.545 215.677 317.655 216.119C317.766 216.45 317.766 216.782 317.766 217.114C317.766 217.445 317.655 217.887 317.766 218.219C317.987 218.993 318.319 219.766 318.982 220.209C319.313 220.43 319.534 220.54 319.866 220.54C319.977 220.54 321.082 220.43 321.082 220.319V213.024Z" fill="#DCB68B"/>
<path d="M328.156 234.136C328.156 234.136 329.924 241.873 326.166 245.411H347.831C347.831 245.411 343.299 239.331 345.731 233.252L328.156 234.136Z" fill="#E5BE90"/>
<path d="M328.599 239.664C329.373 240.327 330.257 240.769 331.252 241.101C333.462 241.985 335.784 242.317 338.215 241.764C340.426 241.211 342.637 239.885 343.963 237.895C344.516 237.011 344.958 235.906 345.4 234.911C345.511 234.358 345.621 233.806 345.953 233.142L328.378 234.027C328.157 234.137 328.82 236.679 328.599 239.664Z" fill="#D5B086"/>
<path d="M354.021 207.056C355.568 193.239 346.615 183.844 335.893 183.844C325.171 183.844 317.102 192.797 318.65 207.719C319.313 214.02 318.539 225.184 323.734 230.489C327.492 234.358 325.945 232.811 331.14 236.458C331.14 236.458 336.225 240.106 341.53 237.011C345.731 233.916 350.705 232.369 352.584 225.958C353.91 221.094 353.468 211.809 354.021 207.056Z" fill="#E5BE90"/>
<path d="M364.08 248.948L346.284 243.753L337.11 243.09H336.889H336.668L327.493 243.753L309.697 248.948C309.697 248.948 300.301 252.706 301.186 263.87H336.668H336.999H372.481C373.476 252.706 364.08 248.948 364.08 248.948Z" fill="#E5BE90"/>
<path d="M326.167 193.128C326.167 193.128 318.761 200.091 318.872 210.703C318.872 210.703 312.129 192.243 324.62 183.843C324.509 183.732 325.172 192.354 326.167 193.128Z" fill="#3B2C16"/>
<path d="M320.64 201.638C320.64 201.638 319.977 214.018 322.188 221.535L319.645 220.429L318.65 208.934C318.65 208.934 318.761 202.744 320.64 201.638Z" fill="#3B2C16"/>
<path d="M351.7 198.986C351.7 198.986 352.695 213.908 350.484 221.425L353.027 220.319L354.022 208.824C354.022 208.934 353.579 200.091 351.7 198.986Z" fill="#3B2C16"/>
<path d="M346.836 243.753L364.08 248.948C364.08 248.948 373.475 252.706 372.591 263.87H337.109H336.778H301.296C300.522 252.817 309.807 248.948 309.807 248.948L327.603 243.753L336.999 247.843L346.836 243.753Z" fill="#8DBCBE"/>
<path d="M325.393 191.138C325.393 191.138 324.177 197.66 345.732 195.339C345.732 195.339 350.927 196.665 352.253 200.755L353.469 210.371C353.469 210.371 360.212 195.891 352.253 184.617C352.253 184.617 348.274 180.416 337.883 179.642C337.883 179.642 327.493 178.316 321.635 186.385L325.393 191.138Z" fill="#3B2C16"/>
<path d="M332.578 247.953H341.421L338.768 256.575H335.01L332.578 247.953Z" fill="#C44732"/>
<path d="M341.42 263.759L338.767 255.58H335.009L333.02 263.759H341.42Z" fill="#953A28"/>
<path d="M352.032 245.08L364.08 248.838C364.08 248.838 373.475 252.596 372.591 263.76H337.109H336.778H301.296C300.522 252.707 309.807 248.838 309.807 248.838L321.855 245.411L329.372 263.76H337.109H344.515L352.032 245.08Z" fill="white"/>
<path d="M328.156 243.2L336.999 247.953L328.156 256.575L321.855 245.521L328.156 243.2Z" fill="#ADACB2"/>
<path d="M328.156 241.874L336.999 247.953L328.156 255.138L321.855 245.521L328.156 241.874Z" fill="#8DBCBE"/>
<path d="M345.73 243.201L336.998 247.954L345.73 256.576L352.031 245.522L345.73 243.201Z" fill="#ADACB2"/>
<path d="M345.73 241.875L336.998 247.954L345.73 255.139L352.031 245.522L345.73 241.875Z" fill="#8DBCBE"/>
<path d="M321.855 245.521L329.482 263.76H325.613L313.344 247.953L321.855 245.521Z" fill="#CACBD0"/>
<path d="M352.032 245.08L344.516 263.76H348.274L360.543 247.954L352.032 245.08Z" fill="#CACBD0"/>
<path d="M397.794 349.535H397.683H397.573C397.462 349.535 397.462 349.425 397.352 349.425L393.372 345.445C392.046 344.119 391.604 342.24 392.156 340.582C392.599 339.145 393.593 338.371 395.141 338.371C396.136 338.371 396.799 338.592 397.352 339.255C397.462 339.366 397.573 339.587 397.683 339.698C397.794 339.587 397.904 339.366 398.015 339.255C398.567 338.703 399.341 338.482 400.226 338.482C401.662 338.482 402.768 339.255 403.21 340.692C403.763 342.35 403.321 344.229 401.994 345.556L398.015 349.535C398.125 349.535 397.904 349.535 397.794 349.535ZM395.251 339.366C394.146 339.366 393.593 339.808 393.262 340.803C392.82 342.019 393.262 343.456 394.257 344.561L397.794 348.209L401.331 344.561C402.326 343.566 402.657 342.129 402.326 340.803C401.994 339.808 401.441 339.366 400.336 339.366C399.673 339.366 399.231 339.476 398.899 339.919C398.346 340.582 398.346 341.577 398.346 341.577C398.346 341.687 398.346 341.798 398.236 341.798C398.125 342.019 397.904 342.129 397.573 342.129C397.352 342.019 397.131 341.798 397.131 341.577C397.131 341.577 397.131 341.577 397.131 341.466C397.131 341.245 397.02 340.471 396.578 339.919C396.357 339.587 395.915 339.366 395.251 339.366Z" fill="#E8505B"/>
<path d="M378.34 117.412C378.34 117.522 359.659 117.744 336.668 117.744C313.677 117.744 294.996 117.633 294.996 117.412C294.996 117.191 313.677 117.08 336.668 117.08C359.659 117.191 378.34 117.301 378.34 117.412Z" fill="#263238"/>
<path d="M366.957 105.916H304.836V109.453H366.957V105.916Z" fill="url(#paint7_linear_0_1689)"/>
<path d="M393.041 293.826C393.041 293.936 367.728 294.157 336.668 294.157C305.497 294.157 280.295 294.047 280.295 293.826C280.295 293.715 305.497 293.494 336.668 293.494C367.839 293.494 393.041 293.605 393.041 293.826Z" fill="#263238"/>
<path d="M377.235 284.099C377.235 284.21 359.107 284.431 336.668 284.431C314.229 284.431 296.101 284.32 296.101 284.099C296.101 283.989 314.229 283.768 336.668 283.768C358.996 283.768 377.235 283.878 377.235 284.099Z" fill="#263238"/>
<path d="M413.268 69.5497C413.268 69.6602 411.72 69.6602 409.067 69.7707C406.525 69.8813 402.877 69.8813 398.788 69.8813H398.456V69.5497C398.345 68.997 398.345 68.4443 398.235 67.8916C397.572 62.9175 397.019 58.4961 396.687 55.6222L396.908 55.8433C394.587 55.7327 393.15 55.7327 393.15 55.6222C393.15 55.5117 394.477 55.5117 396.908 55.4011H397.13V55.6222C397.572 58.4961 398.235 62.9175 399.009 67.8916C399.119 68.4443 399.119 68.997 399.23 69.5497L398.898 69.2181C402.988 69.2181 406.525 69.2181 409.178 69.3286C411.72 69.3286 413.268 69.4391 413.268 69.5497Z" fill="#263238"/>
<path d="M398.458 66.5648C398.458 66.5648 398.9 66.4543 399.563 66.4543C400.448 66.4543 401.442 66.4543 402.658 66.3438C405.311 66.3438 408.959 66.2332 413.27 66.2332L412.938 66.4543C413.27 64.6857 413.601 62.6961 413.933 60.7064C414.154 59.7116 414.265 58.7168 414.486 57.722L414.817 58.0536C409.843 58.0536 405.422 58.0536 402.327 57.9431C400.89 57.9431 399.563 57.8325 398.569 57.8325C397.684 57.8325 397.242 57.722 397.242 57.722C397.242 57.722 397.684 57.6115 398.569 57.6115C399.563 57.6115 400.779 57.5009 402.327 57.5009C405.532 57.3904 409.843 57.3904 414.817 57.3904H415.149L415.038 57.722C414.817 58.7168 414.707 59.7116 414.486 60.7064C414.154 62.6961 413.822 64.6857 413.491 66.4543V66.6754H413.27C408.959 66.6754 405.311 66.5648 402.658 66.5648C401.442 66.5648 400.448 66.4543 399.563 66.4543C398.9 66.5648 398.458 66.5648 398.458 66.5648Z" fill="#263238"/>
<path d="M402.545 73.4179C402.434 73.4179 402.434 72.8652 401.881 72.4231C401.55 72.202 401.108 72.202 400.776 72.3126C400.334 72.4231 400.002 72.8652 400.002 73.4179C400.002 73.8601 400.334 74.3022 400.776 74.5233C401.218 74.6338 401.66 74.6338 401.881 74.4127C402.434 73.9706 402.434 73.4179 402.545 73.4179C402.545 73.4179 402.655 73.5285 402.655 73.7495C402.655 73.9706 402.545 74.4127 402.102 74.7443C401.771 75.076 401.108 75.297 400.444 75.076C399.781 74.8549 399.229 74.1917 399.229 73.4179C399.229 72.6442 399.781 71.981 400.444 71.7599C401.108 71.5388 401.66 71.7599 402.102 72.0915C402.434 72.4231 402.545 72.7547 402.655 73.0863C402.545 73.3074 402.545 73.4179 402.545 73.4179Z" fill="#263238"/>
<path d="M411.72 73.4184C411.61 73.4184 411.61 72.8657 411.057 72.4236C410.725 72.2025 410.283 72.2025 409.952 72.3131C409.509 72.4236 409.178 72.8657 409.178 73.4184C409.178 73.8605 409.509 74.3027 409.952 74.5238C410.394 74.6343 410.836 74.6343 411.057 74.4132C411.61 73.9711 411.72 73.4184 411.72 73.4184C411.72 73.4184 411.831 73.5289 411.831 73.75C411.831 73.9711 411.72 74.4132 411.278 74.7448C410.946 75.0764 410.283 75.2975 409.62 75.0764C408.957 74.8554 408.404 74.1922 408.404 73.4184C408.404 72.6447 408.957 71.9814 409.62 71.7604C410.283 71.5393 410.836 71.7604 411.278 72.092C411.61 72.4236 411.72 72.7552 411.831 73.0868C411.831 73.3079 411.831 73.4184 411.72 73.4184Z" fill="#263238"/>
<path d="M421.338 56.9489C421.338 60.3755 418.575 63.0283 415.259 63.0283C411.832 63.0283 409.18 60.2649 409.18 56.9489C409.18 53.5223 411.943 50.8694 415.259 50.8694C418.575 50.7589 421.338 53.5223 421.338 56.9489Z" fill="#E8505B"/>
<path d="M415.811 54.4062V59.3803H415.148V55.0695H414.043V54.4062H415.811Z" fill="white"/>
</g>
<path d="M175.459 92.0368H111.705L223.837 16.4697H255.714L175.459 92.0368Z" fill="#32352C"/>
<path d="M239.213 92.0368H175.459L255.714 16.4697H287.778L239.213 92.0368Z" fill="url(#paint8_linear_0_1689)"/>
<path d="M303.154 92.0368H239.213L287.778 16.4697H319.843L303.154 92.0368Z" fill="#32352C"/>
<path d="M370.096 92.0368H303.154L319.843 16.4697H351.72L370.096 92.0368Z" fill="url(#paint9_linear_0_1689)"/>
<path d="M434.036 92.0368H370.095L351.719 16.4697H383.783L434.036 92.0368Z" fill="#32352C"/>
<path d="M561.544 92.0368H497.79L415.848 16.4697H447.725L561.544 92.0368Z" fill="#32352C"/>
<path d="M497.792 92.0368H434.038L383.785 16.4697H415.85L497.792 92.0368Z" fill="url(#paint10_linear_0_1689)"/>
<path d="M175.459 92.0361H111.705V101.974C111.705 117.35 124.268 129.913 139.644 129.913H147.52C162.896 129.913 175.459 117.35 175.459 101.974V92.0361Z" fill="url(#paint11_linear_0_1689)"/>
<path d="M239.213 92.0371H175.459V101.975C175.459 117.351 188.022 129.914 203.398 129.914H211.274C226.65 129.914 239.213 117.351 239.213 101.975V92.0371Z" fill="#32352C"/>
<path d="M303.154 92.0361H239.4V101.974C239.4 117.35 251.964 129.913 267.34 129.913H275.215C290.591 129.913 303.154 117.35 303.154 101.974V92.0361Z" fill="url(#paint12_linear_0_1689)"/>
<path d="M370.096 92.0361H302.967V100.474C302.967 116.788 316.093 129.913 332.406 129.913H340.844C357.158 129.913 370.283 116.788 370.283 100.474V92.0361H370.096Z" fill="#32352C"/>
<path d="M434.037 92.0371H370.283V101.975C370.283 117.351 382.846 129.914 398.222 129.914H406.098C421.474 129.914 434.037 117.351 434.037 101.975V92.0371Z" fill="url(#paint13_linear_0_1689)"/>
<path d="M561.545 92.0361H497.791V101.974C497.791 117.35 510.354 129.913 525.73 129.913H533.606C548.982 129.913 561.545 117.35 561.545 101.974V92.0361Z" fill="url(#paint14_linear_0_1689)"/>
<path d="M497.791 92.0371H434.037V101.975C434.037 117.351 446.6 129.914 461.976 129.914H469.852C485.228 129.914 497.791 117.351 497.791 101.975V92.0371Z" fill="#32352C"/>
<path d="M450.225 16.4697H226.148V11.7819C226.148 5.78152 231.024 0.90625 237.024 0.90625H439.161C445.162 0.90625 450.037 5.78152 450.037 11.7819V16.4697H450.225Z" fill="#D68700"/>
<path d="M544.159 168.166L532.908 179.604" stroke="white" stroke-width="3.75023" stroke-miterlimit="10" stroke-linecap="round" stroke-linejoin="round"/>
<path d="M544.159 179.604L532.908 168.166" stroke="white" stroke-width="3.75023" stroke-miterlimit="10" stroke-linecap="round" stroke-linejoin="round"/>
<path d="M69.5671 252.171L58.3164 263.422" stroke="white" stroke-width="3.75023" stroke-miterlimit="10" stroke-linecap="round" stroke-linejoin="round"/>
<path d="M69.5671 263.422L58.3164 252.171" stroke="white" stroke-width="3.75023" stroke-miterlimit="10" stroke-linecap="round" stroke-linejoin="round"/>
<path d="M163.698 157.854C163.698 161.979 160.323 165.167 156.385 165.167C152.26 165.167 149.072 161.792 149.072 157.854C149.072 153.916 152.447 150.541 156.385 150.541C160.323 150.541 163.698 153.916 163.698 157.854Z" stroke="white" stroke-width="3.75023" stroke-miterlimit="10" stroke-linecap="round" stroke-linejoin="round"/>
<path opacity="0.9091" d="M415.901 508.687C510.244 508.687 586.724 500.376 586.724 490.123C586.724 479.871 510.244 471.56 415.901 471.56C321.558 471.56 245.078 479.871 245.078 490.123C245.078 500.376 321.558 508.687 415.901 508.687Z" fill="url(#paint15_radial_0_1689)"/>
<path opacity="0.9091" d="M415.901 508.687C510.244 508.687 586.724 500.376 586.724 490.123C586.724 479.871 510.244 471.56 415.901 471.56C321.558 471.56 245.078 479.871 245.078 490.123C245.078 500.376 321.558 508.687 415.901 508.687Z" fill="url(#paint16_radial_0_1689)"/>
<path opacity="0.9091" d="M483.592 494.061C577.935 494.061 654.415 485.75 654.415 475.497C654.415 465.245 577.935 456.934 483.592 456.934C389.249 456.934 312.77 465.245 312.77 475.497C312.77 485.75 389.249 494.061 483.592 494.061Z" fill="url(#paint17_radial_0_1689)"/>
<path opacity="0.9091" d="M483.592 494.061C577.935 494.061 654.415 485.75 654.415 475.497C654.415 465.245 577.935 456.934 483.592 456.934C389.249 456.934 312.77 465.245 312.77 475.497C312.77 485.75 389.249 494.061 483.592 494.061Z" fill="url(#paint18_radial_0_1689)"/>
<path opacity="0.9091" d="M170.823 519.001C265.166 519.001 341.646 510.689 341.646 500.437C341.646 490.184 265.166 481.873 170.823 481.873C76.4799 481.873 0 490.184 0 500.437C0 510.689 76.4799 519.001 170.823 519.001Z" fill="url(#paint19_radial_0_1689)"/>
<path opacity="0.9091" d="M170.823 519.001C265.166 519.001 341.646 510.689 341.646 500.437C341.646 490.184 265.166 481.873 170.823 481.873C76.4799 481.873 0 490.184 0 500.437C0 510.689 76.4799 519.001 170.823 519.001Z" fill="url(#paint20_radial_0_1689)"/>
<path opacity="0.9091" d="M277.141 487.123C388.468 487.123 478.716 478.812 478.716 468.56C478.716 458.307 388.468 449.996 277.141 449.996C165.814 449.996 75.5664 458.307 75.5664 468.56C75.5664 478.812 165.814 487.123 277.141 487.123Z" fill="url(#paint21_radial_0_1689)"/>
<path opacity="0.9091" d="M277.141 487.123C388.468 487.123 478.716 478.812 478.716 468.56C478.716 458.307 388.468 449.996 277.141 449.996C165.814 449.996 75.5664 458.307 75.5664 468.56C75.5664 478.812 165.814 487.123 277.141 487.123Z" fill="url(#paint22_radial_0_1689)"/>
<path opacity="0.9091" d="M277.141 487.123C388.468 487.123 478.716 478.812 478.716 468.56C478.716 458.307 388.468 449.996 277.141 449.996C165.814 449.996 75.5664 458.307 75.5664 468.56C75.5664 478.812 165.814 487.123 277.141 487.123Z" fill="url(#paint23_radial_0_1689)"/>
<path opacity="0.9091" d="M277.141 498.374C388.468 498.374 478.716 487.544 478.716 474.185C478.716 460.826 388.468 449.996 277.141 449.996C165.814 449.996 75.5664 460.826 75.5664 474.185C75.5664 487.544 165.814 498.374 277.141 498.374Z" fill="url(#paint24_radial_0_1689)"/>
<path d="M389.836 424.87H359.084V430.12H389.836V424.87Z" fill="#D9DCDD"/>
<path d="M389.836 383.43H355.522V388.68H389.836V383.43Z" fill="#D9DCDD"/>
<path d="M296.08 410.994H238.139V416.244H296.08V410.994Z" fill="#D9DCDD"/>
<path d="M274.704 330.738H232.326V359.99H274.704V330.738Z" fill="url(#paint25_linear_0_1689)"/>
<path d="M251.264 343.677H246.389V351.365H251.264V343.677Z" fill="#FDFCFF"/>
<path d="M252.016 343.677C252.016 343.677 253.703 341.427 255.953 336.552C256.328 335.802 258.016 336.364 257.078 339.552C256.328 341.989 256.141 342.364 256.141 342.364H261.016C261.391 342.364 261.579 342.552 261.766 342.927C262.141 344.427 262.891 348.927 259.703 351.177C259.516 351.177 259.516 351.365 259.328 351.365H252.016V343.677Z" fill="#FDFCFF"/>
<path d="M182.824 312.738H123.57V442.309H182.824V312.738Z" fill="url(#paint26_linear_0_1689)"/>
<path d="M108.756 442.309H123.569V312.738L108.756 317.801V442.309Z" fill="#A08652"/>
<path d="M260.267 343.49H211.701V374.805H260.267V343.49Z" fill="url(#paint27_linear_0_1689)"/>
<path d="M199.699 374.617H211.7V343.49L199.699 344.615V374.617Z" fill="#A08652"/>
<path d="M108.756 442.309H123.569V312.738L108.756 317.801V442.309Z" fill="url(#paint28_linear_0_1689)"/>
<path d="M199.699 374.617H211.7V343.49L199.699 344.615V374.617Z" fill="url(#paint29_linear_0_1689)"/>
<path d="M108.756 442.309H123.569V312.738L108.756 317.801V442.309Z" fill="#A08652"/>
<path d="M108.756 442.309H123.569V312.738L108.756 317.801V442.309Z" fill="#32352C"/>
<path d="M199.699 374.617H211.7V343.49L199.699 344.615V374.617Z" fill="#32352C"/>
<path d="M285.954 371.99H173.635V443.245H285.954V371.99Z" fill="url(#paint30_linear_0_1689)"/>
<path d="M145.885 443.245H173.636V371.99L145.885 374.615V443.245Z" fill="#32352C"/>
<path d="M102.757 447.183C101.069 447.183 99.3813 446.058 98.8188 444.183L59.0664 305.237H32.4397C30.1896 305.237 28.3145 303.362 28.3145 301.112C28.3145 298.861 30.1896 296.986 32.4397 296.986H62.254C64.1291 296.986 65.6292 298.111 66.1918 299.987L106.882 441.933C107.444 444.183 106.319 446.433 104.069 446.995C103.507 446.995 103.132 447.183 102.757 447.183Z" fill="#D68700"/>
<path d="M302.457 372.554H81.7559V376.679H302.457V372.554Z" fill="url(#paint31_linear_0_1689)"/>
<path d="M249.764 446.057L245.826 445.12L269.265 338.613L273.203 339.551L249.764 446.057Z" fill="url(#paint32_linear_0_1689)"/>
<path d="M137.259 446.057L112.133 339.551L116.258 338.613L141.197 445.12L137.259 446.057Z" fill="url(#paint33_linear_0_1689)"/>
<path d="M169.885 338.988H165.76V445.495H169.885V338.988Z" fill="url(#paint34_linear_0_1689)"/>
<path d="M221.076 338.988H216.951V445.495H221.076V338.988Z" fill="url(#paint35_linear_0_1689)"/>
<path d="M293.831 408.555H91.5059V412.681H293.831V408.555Z" fill="url(#paint36_linear_0_1689)"/>
<path d="M247.702 488.435H95.0679C82.1296 488.435 71.6289 477.935 71.6289 464.996C71.6289 452.058 82.1296 441.557 95.0679 441.557H116.069C118.319 441.557 120.194 443.432 120.194 445.683C120.194 447.933 118.319 449.808 116.069 449.808H95.0679C86.6298 449.808 79.692 456.746 79.692 465.184C79.692 473.622 86.6298 480.56 95.0679 480.56H247.702C249.952 480.56 251.827 482.435 251.827 484.685C251.827 486.56 249.952 488.435 247.702 488.435Z" fill="#D68700"/>
<path d="M123.57 507.187C135.583 507.187 145.321 497.449 145.321 485.436C145.321 473.423 135.583 463.685 123.57 463.685C111.557 463.685 101.818 473.423 101.818 485.436C101.818 497.449 111.557 507.187 123.57 507.187Z" fill="#32352C"/>
<path d="M123.569 494.062C128.333 494.062 132.194 490.2 132.194 485.436C132.194 480.672 128.333 476.811 123.569 476.811C118.805 476.811 114.943 480.672 114.943 485.436C114.943 490.2 118.805 494.062 123.569 494.062Z" fill="white"/>
<path d="M210.763 507.187C222.776 507.187 232.514 497.449 232.514 485.436C232.514 473.423 222.776 463.685 210.763 463.685C198.75 463.685 189.012 473.423 189.012 485.436C189.012 497.449 198.75 507.187 210.763 507.187Z" fill="url(#paint37_linear_0_1689)"/>
<path d="M210.763 507.187C222.776 507.187 232.514 497.449 232.514 485.436C232.514 473.423 222.776 463.685 210.763 463.685C198.75 463.685 189.012 473.423 189.012 485.436C189.012 497.449 198.75 507.187 210.763 507.187Z" fill="#32352C"/>
<path d="M210.762 494.062C215.526 494.062 219.388 490.2 219.388 485.436C219.388 480.672 215.526 476.811 210.762 476.811C205.999 476.811 202.137 480.672 202.137 485.436C202.137 490.2 205.999 494.062 210.762 494.062Z" fill="white"/>
<path d="M288.392 449.62H103.13C101.255 449.62 99.7552 448.495 99.1927 446.62L69.0034 340.114C68.6283 338.801 68.8158 337.488 69.7534 336.551C70.5034 335.613 71.816 334.863 72.9411 334.863H312.393C313.706 334.863 314.831 335.426 315.581 336.363C316.331 337.301 316.706 338.613 316.331 339.739L292.329 446.245C291.954 448.308 290.454 449.62 288.392 449.62ZM106.318 441.557H285.204L307.33 343.301H78.3789L106.318 441.557Z" fill="#D68700"/>
<path d="M542.657 337.302C541.345 337.302 540.22 336.177 540.22 334.864V314.425C540.22 302.237 530.282 292.299 518.093 292.299C505.905 292.299 495.967 302.237 495.967 314.425V333.364C495.967 334.677 494.842 335.802 493.53 335.802C492.217 335.802 491.092 334.677 491.092 333.364V314.425C491.092 299.612 503.093 287.424 518.093 287.424C532.907 287.424 545.095 299.425 545.095 314.425V334.864C545.095 336.177 543.97 337.302 542.657 337.302Z" fill="#D68700"/>
<path d="M575.848 475.498H531.408L442.34 475.31H442.152L442.527 470.248L443.277 459.934L443.652 454.684L444.403 444.559L444.778 439.308L445.528 429.183L445.903 423.932L446.653 413.619L447.028 408.556L447.59 398.243L447.965 392.993L448.715 382.867L449.09 377.617L449.84 367.491L450.215 362.241L450.965 352.115L451.153 350.803L451.34 346.865L453.216 320.613L453.403 317.613H565.535L565.722 320.613L566.66 333.177L566.847 337.49L567.41 346.865L567.785 352.115L568.535 362.241L568.723 367.491L569.473 377.617L569.848 382.867L570.41 392.993L570.785 398.243L571.535 408.556L571.91 413.619L572.473 423.932L572.848 429.183L573.41 439.308L573.785 444.559L574.535 454.684L574.723 458.059V458.434L574.91 459.934L575.473 470.248L575.848 475.498Z" fill="#FFA43B"/>
<path d="M459.216 325.489L453.028 336.739L452.278 346.865L451.903 352.115L451.153 362.241L450.778 367.491L449.84 377.617L449.465 382.867L448.715 392.993L448.34 398.243L447.59 408.556L447.028 413.619L446.278 423.932L445.903 429.183L445.153 439.308L444.778 444.559L443.84 454.684L443.465 459.934L442.715 470.248L442.34 475.31L442.715 470.248L443.465 459.934L443.652 454.684L444.403 444.559L444.778 439.308L445.528 429.183L445.903 423.932L446.653 413.619L447.028 408.556L447.778 398.243L448.153 392.993L448.715 382.867H448.903L449.09 377.617L449.84 367.491L450.215 362.241L450.965 352.115L451.153 350.803L451.34 346.865L453.216 320.613L453.403 317.613L455.653 320.613L459.216 325.489Z" fill="#32352C"/>
<path d="M459.215 325.488V342.177L453.027 336.551L459.215 325.488Z" fill="#BF5A4D"/>
<path d="M576.036 475.498V474.185L575.849 473.248L575.661 470.248L574.911 459.934L574.724 458.434V458.059L574.536 454.684L573.598 444.559L573.223 439.308L572.473 429.183L572.098 423.932L571.161 413.619L570.786 408.556L570.036 398.243L569.661 392.993L568.911 382.867L568.348 377.617L567.598 367.491L567.223 362.241L566.473 352.115L566.098 346.865L565.16 336.739L562.91 332.052L559.723 325.489L560.66 324.176L563.285 320.613L565.535 317.613L565.723 320.613L566.661 333.177L566.848 337.49V338.427L567.411 346.865L567.786 352.115L568.536 362.241L568.911 367.491L569.473 377.617L569.848 382.867L570.598 392.993L570.973 398.243L571.536 408.556L571.911 413.619L572.661 423.932L573.036 429.183L573.598 439.308L573.973 444.559L574.724 454.684L575.099 459.934L575.661 470.248L576.036 475.498Z" fill="#32352C"/>
<path d="M559.723 322.863V334.301L565.16 330.551L559.723 322.863Z" fill="#BF5A4D"/>
<path d="M576.036 475.498H442.34V475.31L442.715 470.247L443.277 459.934L443.652 454.684L444.403 444.558L444.778 439.308L445.528 429.182L445.903 423.932L446.653 413.619L447.028 408.556L447.778 398.243L448.153 392.993L448.715 382.867H448.903L449.09 377.617L449.84 367.491L450.215 362.241L450.965 352.115L451.153 350.803L451.34 346.865L453.216 320.613H565.722L566.66 333.177L566.847 337.489V338.427L567.41 346.865L567.785 352.115L568.535 362.241L568.91 367.491L569.473 377.617L569.848 382.867L570.598 392.993L570.973 398.243L571.535 408.556L571.91 413.619L572.66 423.932L573.035 429.182L573.598 439.308L573.973 444.558L574.723 454.684L575.098 459.934L575.661 470.247L575.848 473.248L576.036 474.185V475.498Z" fill="url(#paint38_linear_0_1689)"/>
<path d="M488.28 336.552C488.843 338.99 487.343 341.615 484.718 342.178C482.28 342.74 479.655 341.24 479.092 338.615C478.53 336.177 480.03 333.552 482.655 332.989C485.092 332.427 487.718 334.115 488.28 336.552Z" fill="#32352C"/>
<path d="M537.409 337.115C537.972 339.552 536.472 342.177 533.846 342.74C531.409 343.303 528.784 341.802 528.221 339.177C527.659 336.74 529.159 334.114 531.784 333.552C534.221 332.989 536.847 334.677 537.409 337.115Z" fill="#32352C"/>
<path d="M532.907 341.427C531.595 341.427 530.47 340.302 530.47 338.989V318.55C530.47 306.362 520.532 296.424 508.343 296.424C496.155 296.424 486.217 306.362 486.217 318.55V337.489C486.217 338.802 485.092 339.927 483.779 339.927C482.467 339.927 481.342 338.802 481.342 337.489V318.55C481.342 303.737 493.342 291.549 508.343 291.549C523.157 291.549 535.345 303.55 535.345 318.55V339.177C535.158 340.489 534.22 341.427 532.907 341.427Z" fill="#32352C"/>
<path d="M567.784 352.116H450.965L451.152 350.803L451.34 346.865H567.409L567.784 352.116Z" fill="url(#paint39_linear_0_1689)"/>
<path d="M568.91 367.491H449.84L450.215 362.24H568.535L568.91 367.491Z" fill="url(#paint40_linear_0_1689)"/>
<path d="M569.847 382.867H448.715L449.09 377.617H569.472L569.847 382.867Z" fill="url(#paint41_linear_0_1689)"/>
<path d="M570.972 398.242H447.59L447.965 392.992H570.597L570.972 398.242Z" fill="url(#paint42_linear_0_1689)"/>
<path d="M571.91 413.619H446.652L447.027 408.557H571.535L571.91 413.619Z" fill="url(#paint43_linear_0_1689)"/>
<path d="M573.035 429.182H445.527L445.902 423.932H572.66L573.035 429.182Z" fill="url(#paint44_linear_0_1689)"/>
<path d="M573.973 444.558H444.402L444.777 439.308H573.598L573.973 444.558Z" fill="url(#paint45_linear_0_1689)"/>
<path d="M575.098 459.934H443.277L443.652 454.684H574.723L575.098 459.934Z" fill="url(#paint46_linear_0_1689)"/>
<path d="M576.036 475.498H442.34V475.311H442.152L442.527 470.248H575.66L576.036 475.498Z" fill="url(#paint47_linear_0_1689)"/>
<path opacity="0.5" d="M465.779 484.498C499.85 484.498 527.47 455.283 527.47 419.244C527.47 383.205 499.85 353.99 465.779 353.99C431.708 353.99 404.088 383.205 404.088 419.244C404.088 455.283 431.708 484.498 465.779 484.498Z" fill="url(#paint48_radial_0_1689)"/>
<path d="M446.652 403.306C445.339 403.306 444.214 402.181 444.214 400.868V380.429C444.214 368.241 434.276 358.303 422.088 358.303C409.899 358.303 399.961 368.241 399.961 380.429V399.368C399.961 400.681 398.836 401.806 397.524 401.806C396.211 401.806 395.086 400.681 395.086 399.368V380.429C395.086 365.616 407.087 353.428 422.088 353.428C436.901 353.428 449.089 365.428 449.089 380.429V401.056C448.902 402.368 447.964 403.306 446.652 403.306Z" fill="#D68700"/>
<path d="M472.529 380.43L482.842 487.686H349.146L360.397 380.43" fill="#32352C"/>
<path d="M360.397 380.43L366.21 385.68L360.022 393.368L349.146 487.686L360.397 380.43Z" fill="#32352C"/>
<path d="M366.209 385.68V397.118L360.021 393.368L366.209 385.68Z" fill="#BF5A4D"/>
<path d="M472.528 380.43L466.715 385.68L472.153 393.368L483.028 487.686L472.528 380.43Z" fill="#32352C"/>
<path d="M466.715 385.68V397.118L472.153 393.368L466.715 385.68Z" fill="#BF5A4D"/>
<path d="M483.029 487.686H349.146L360.022 383.43H472.716L483.029 487.686Z" fill="url(#paint49_linear_0_1689)"/>
<path d="M483.029 487.686H349.146L360.022 383.43H472.716L483.029 487.686Z" fill="url(#paint50_linear_0_1689)"/>
<path d="M480.217 495.375V373.305H481.717L485.655 373.68V495L480.217 495.375Z" fill="url(#paint51_linear_0_1689)"/>
<path d="M464.09 496.499V372.179L469.528 372.554V496.124L464.09 496.499Z" fill="url(#paint52_linear_0_1689)"/>
<path d="M447.965 497.436V371.054L453.403 371.429V497.249L447.965 497.436Z" fill="url(#paint53_linear_0_1689)"/>
<path d="M432.027 498.562V369.741L437.465 370.116V498.187L432.027 498.562Z" fill="url(#paint54_linear_0_1689)"/>
<path d="M415.9 499.708V368.638L421.338 369.013V499.333L415.9 499.708Z" fill="url(#paint55_linear_0_1689)"/>
<path d="M399.775 500.833V367.513L405.213 367.888V500.458L399.775 500.833Z" fill="url(#paint56_linear_0_1689)"/>
<path d="M383.648 501.77V366.387L389.086 366.762V501.582L383.648 501.77Z" fill="url(#paint57_linear_0_1689)"/>
<path d="M367.521 502.875V365.241L372.959 365.616V502.5L367.521 502.875Z" fill="url(#paint58_linear_0_1689)"/>
<path d="M351.396 504.021V364.138L356.834 364.513V503.646L351.396 504.021Z" fill="url(#paint59_linear_0_1689)"/>
<path d="M395.274 399.368C395.837 401.805 394.337 404.43 391.712 404.993C389.274 405.555 386.649 404.055 386.086 401.43C385.524 398.993 387.024 396.367 389.649 395.805C392.087 395.242 394.712 396.93 395.274 399.368Z" fill="#32352C"/>
<path d="M444.401 399.93C444.964 402.368 443.464 404.993 440.839 405.555C438.401 406.118 435.776 404.618 435.213 401.993C434.651 399.368 436.151 396.93 438.776 396.367C441.214 395.805 443.839 397.492 444.401 399.93Z" fill="#32352C"/>
<path d="M439.527 403.306C438.214 403.306 437.089 402.181 437.089 400.868V380.429C437.089 368.241 427.151 358.303 414.963 358.303C402.774 358.303 392.836 368.241 392.836 380.429V399.368C392.836 400.681 391.711 401.806 390.399 401.806C389.086 401.806 387.961 400.681 387.961 399.368V380.429C387.961 365.616 399.962 353.428 414.963 353.428C429.776 353.428 441.964 365.428 441.964 380.429V401.056C441.964 402.368 440.839 403.306 439.527 403.306Z" fill="#32352C"/>
<path d="M564 260.865H478.12C468.182 260.865 460.119 252.802 460.119 242.864C460.119 232.926 468.182 224.863 478.12 224.863H564C573.939 224.863 582.001 232.926 582.001 242.864C582.001 252.802 573.939 260.865 564 260.865Z" fill="url(#paint60_linear_0_1689)"/>
<path d="M486.598 242.565C487.261 242.775 487.781 243.129 488.156 243.626C488.532 244.113 488.72 244.715 488.72 245.434C488.72 246.451 488.322 247.235 487.526 247.788C486.742 248.33 485.592 248.601 484.078 248.601H478.076V236.994H483.746C485.161 236.994 486.244 237.265 486.996 237.807C487.758 238.348 488.14 239.083 488.14 240.012C488.14 240.576 488.002 241.079 487.725 241.521C487.46 241.963 487.084 242.311 486.598 242.565ZM480.745 239.017V241.753H483.414C484.078 241.753 484.581 241.637 484.923 241.405C485.266 241.173 485.437 240.83 485.437 240.377C485.437 239.924 485.266 239.586 484.923 239.365C484.581 239.133 484.078 239.017 483.414 239.017H480.745ZM483.879 246.578C484.586 246.578 485.117 246.462 485.47 246.23C485.835 245.997 486.018 245.638 486.018 245.152C486.018 244.19 485.305 243.709 483.879 243.709H480.745V246.578H483.879ZM495.91 248.8C494.252 248.8 492.959 248.341 492.03 247.423C491.113 246.506 490.654 245.196 490.654 243.494V236.994H493.34V243.394C493.34 245.472 494.202 246.511 495.927 246.511C496.767 246.511 497.408 246.263 497.85 245.765C498.292 245.257 498.513 244.467 498.513 243.394V236.994H501.166V243.494C501.166 245.196 500.702 246.506 499.773 247.423C498.856 248.341 497.568 248.8 495.91 248.8ZM509.229 244.489V248.601H506.543V244.456L502.05 236.994H504.902L508.003 242.151L511.103 236.994H513.739L509.229 244.489ZM530.203 236.994V248.601H527.998L522.212 241.554V248.601H519.559V236.994H521.781L527.55 244.041V236.994H530.203ZM538.57 248.8C537.365 248.8 536.276 248.54 535.304 248.02C534.342 247.501 533.585 246.788 533.032 245.881C532.491 244.964 532.22 243.936 532.22 242.797C532.22 241.659 532.491 240.637 533.032 239.73C533.585 238.813 534.342 238.094 535.304 237.575C536.276 237.055 537.365 236.795 538.57 236.795C539.775 236.795 540.858 237.055 541.82 237.575C542.781 238.094 543.539 238.813 544.091 239.73C544.644 240.637 544.92 241.659 544.92 242.797C544.92 243.936 544.644 244.964 544.091 245.881C543.539 246.788 542.781 247.501 541.82 248.02C540.858 248.54 539.775 248.8 538.57 248.8ZM538.57 246.511C539.255 246.511 539.874 246.357 540.427 246.047C540.98 245.727 541.411 245.285 541.72 244.721C542.041 244.157 542.201 243.516 542.201 242.797C542.201 242.079 542.041 241.438 541.72 240.874C541.411 240.31 540.98 239.874 540.427 239.564C539.874 239.244 539.255 239.083 538.57 239.083C537.885 239.083 537.266 239.244 536.713 239.564C536.16 239.874 535.724 240.31 535.403 240.874C535.094 241.438 534.939 242.079 534.939 242.797C534.939 243.516 535.094 244.157 535.403 244.721C535.724 245.285 536.16 245.727 536.713 246.047C537.266 246.357 537.885 246.511 538.57 246.511ZM564.092 236.994L560.295 248.601H557.41L554.857 240.742L552.221 248.601H549.352L545.539 236.994H548.324L550.944 245.152L553.68 236.994H556.167L558.82 245.218L561.522 236.994H564.092Z" fill="white"/>
<path d="M137.635 269.235C154.515 269.235 168.199 255.551 168.199 238.671C168.199 221.791 154.515 208.106 137.635 208.106C120.754 208.106 107.07 221.791 107.07 238.671C107.07 255.551 120.754 269.235 137.635 269.235Z" fill="url(#paint61_linear_0_1689)"/>
<path d="M129.571 233.607H118.133V251.608H129.571V233.607Z" fill="white"/>
<path d="M131.445 233.608C131.445 233.608 135.571 228.545 140.821 217.107C141.571 215.419 145.696 216.919 143.634 224.045C141.946 229.67 141.384 230.608 141.384 230.608H152.822C153.572 230.608 154.134 231.17 154.322 231.733C155.072 235.296 156.947 245.984 149.447 251.234C149.259 251.422 148.884 251.609 148.509 251.609H131.445V233.608Z" fill="white"/>
<path d="M481.529 197.606C494.888 197.606 505.718 186.777 505.718 173.418C505.718 160.058 494.888 149.229 481.529 149.229C468.17 149.229 457.34 160.058 457.34 173.418C457.34 186.777 468.17 197.606 481.529 197.606Z" fill="url(#paint62_linear_0_1689)"/>
<path d="M491.843 172.104C488.468 177.355 481.53 183.355 481.53 183.355C481.53 183.355 474.592 177.542 471.217 172.104C469.904 170.042 470.279 167.979 471.217 166.479C472.342 164.604 474.405 163.291 476.467 163.479C480.405 163.666 481.343 167.792 481.343 167.792C481.343 167.792 482.28 163.854 486.218 163.479C488.468 163.291 490.531 164.604 491.468 166.479C492.593 167.979 493.156 170.042 491.843 172.104Z" fill="white"/>
<defs>
<linearGradient id="paint0_linear_0_1689" x1="260.46" y1="395.489" x2="412.865" y2="395.489" gradientUnits="userSpaceOnUse">
<stop stop-color="#EFB93B"/>
<stop offset="0.5363" stop-color="#EBA43B"/>
<stop offset="1" stop-color="#E9973B"/>
</linearGradient>
<linearGradient id="paint1_linear_0_1689" x1="266.543" y1="317.529" x2="278.693" y2="317.529" gradientUnits="userSpaceOnUse">
<stop stop-color="#EFB93B"/>
<stop offset="0.5363" stop-color="#EBA43B"/>
<stop offset="1" stop-color="#E9973B"/>
</linearGradient>
<linearGradient id="paint2_linear_0_1689" x1="282.042" y1="317.529" x2="294.192" y2="317.529" gradientUnits="userSpaceOnUse">
<stop stop-color="#EFB93B"/>
<stop offset="0.5363" stop-color="#EBA43B"/>
<stop offset="1" stop-color="#E9973B"/>
</linearGradient>
<linearGradient id="paint3_linear_0_1689" x1="297.543" y1="317.529" x2="309.693" y2="317.529" gradientUnits="userSpaceOnUse">
<stop stop-color="#EFB93B"/>
<stop offset="0.5363" stop-color="#EBA43B"/>
<stop offset="1" stop-color="#E9973B"/>
</linearGradient>
<linearGradient id="paint4_linear_0_1689" x1="313.043" y1="317.529" x2="325.192" y2="317.529" gradientUnits="userSpaceOnUse">
<stop stop-color="#EFB93B"/>
<stop offset="0.5363" stop-color="#EBA43B"/>
<stop offset="1" stop-color="#E9973B"/>
</linearGradient>
<linearGradient id="paint5_linear_0_1689" x1="328.542" y1="317.529" x2="340.691" y2="317.529" gradientUnits="userSpaceOnUse">
<stop stop-color="#EFB93B"/>
<stop offset="0.5363" stop-color="#EBA43B"/>
<stop offset="1" stop-color="#E9973B"/>
</linearGradient>
<linearGradient id="paint6_linear_0_1689" x1="276.147" y1="205.854" x2="397.18" y2="205.854" gradientUnits="userSpaceOnUse">
<stop stop-color="#EFB93B"/>
<stop offset="0.5363" stop-color="#EBA43B"/>
<stop offset="1" stop-color="#E9973B"/>
</linearGradient>
<linearGradient id="paint7_linear_0_1689" x1="304.881" y1="107.65" x2="367.019" y2="107.65" gradientUnits="userSpaceOnUse">
<stop stop-color="#EFB93B"/>
<stop offset="0.5363" stop-color="#EBA43B"/>
<stop offset="1" stop-color="#E9973B"/>
</linearGradient>
<linearGradient id="paint8_linear_0_1689" x1="231.588" y1="9.65887" x2="231.588" y2="84.1425" gradientUnits="userSpaceOnUse">
<stop stop-color="#FFBA3B"/>
<stop offset="0.5315" stop-color="#FFA53B"/>
<stop offset="1" stop-color="#FF983B"/>
</linearGradient>
<linearGradient id="paint9_linear_0_1689" x1="336.607" y1="9.65887" x2="336.607" y2="84.1425" gradientUnits="userSpaceOnUse">
<stop stop-color="#FFBA3B"/>
<stop offset="0.5315" stop-color="#FFA53B"/>
<stop offset="1" stop-color="#FF983B"/>
</linearGradient>
<linearGradient id="paint10_linear_0_1689" x1="440.758" y1="9.65887" x2="440.758" y2="84.1425" gradientUnits="userSpaceOnUse">
<stop stop-color="#FFBA3B"/>
<stop offset="0.5315" stop-color="#FFA53B"/>
<stop offset="1" stop-color="#FF983B"/>
</linearGradient>
<linearGradient id="paint11_linear_0_1689" x1="143.565" y1="88.6223" x2="143.565" y2="125.956" gradientUnits="userSpaceOnUse">
<stop stop-color="#FFBA3B"/>
<stop offset="0.5315" stop-color="#FFA53B"/>
<stop offset="1" stop-color="#FF983B"/>
</linearGradient>
<linearGradient id="paint12_linear_0_1689" x1="271.26" y1="88.6223" x2="271.26" y2="125.956" gradientUnits="userSpaceOnUse">
<stop stop-color="#FFBA3B"/>
<stop offset="0.5315" stop-color="#FFA53B"/>
<stop offset="1" stop-color="#FF983B"/>
</linearGradient>
<linearGradient id="paint13_linear_0_1689" x1="402.143" y1="88.6232" x2="402.143" y2="125.957" gradientUnits="userSpaceOnUse">
<stop stop-color="#FFBA3B"/>
<stop offset="0.5315" stop-color="#FFA53B"/>
<stop offset="1" stop-color="#FF983B"/>
</linearGradient>
<linearGradient id="paint14_linear_0_1689" x1="529.651" y1="88.6223" x2="529.651" y2="125.956" gradientUnits="userSpaceOnUse">
<stop stop-color="#FFBA3B"/>
<stop offset="0.5315" stop-color="#FFA53B"/>
<stop offset="1" stop-color="#FF983B"/>
</linearGradient>
<radialGradient id="paint15_radial_0_1689" cx="0" cy="0" r="1" gradientUnits="userSpaceOnUse" gradientTransform="translate(415.862 490.181) scale(232.885 34.9327)">
<stop offset="5.4e-07" stop-color="#B0B0AF" stop-opacity="0.7"/>
<stop offset="0.1058" stop-color="#C0C0BF" stop-opacity="0.6259"/>
<stop offset="0.3285" stop-color="#DBDBDB" stop-opacity="0.4701"/>
<stop offset="0.5523" stop-color="#EFEFEF" stop-opacity="0.3134"/>
<stop offset="0.7761" stop-color="#FBFBFB" stop-opacity="0.1567"/>
<stop offset="1" stop-color="white" stop-opacity="0"/>
</radialGradient>
<radialGradient id="paint16_radial_0_1689" cx="0" cy="0" r="1" gradientUnits="userSpaceOnUse" gradientTransform="translate(415.862 490.181) scale(232.885 34.9327)">
<stop offset="5.4e-07" stop-color="#B0B0AF" stop-opacity="0.7"/>
<stop offset="0.1058" stop-color="#C0C0BF" stop-opacity="0.6259"/>
<stop offset="0.3285" stop-color="#DBDBDB" stop-opacity="0.4701"/>
<stop offset="0.5523" stop-color="#EFEFEF" stop-opacity="0.3134"/>
<stop offset="0.7761" stop-color="#FBFBFB" stop-opacity="0.1567"/>
<stop offset="1" stop-color="white" stop-opacity="0"/>
</radialGradient>
<radialGradient id="paint17_radial_0_1689" cx="0" cy="0" r="1" gradientUnits="userSpaceOnUse" gradientTransform="translate(483.526 475.499) scale(232.885 34.9328)">
<stop offset="5.4e-07" stop-color="#B0B0AF" stop-opacity="0.7"/>
<stop offset="0.1058" stop-color="#C0C0BF" stop-opacity="0.6259"/>
<stop offset="0.3285" stop-color="#DBDBDB" stop-opacity="0.4701"/>
<stop offset="0.5523" stop-color="#EFEFEF" stop-opacity="0.3134"/>
<stop offset="0.7761" stop-color="#FBFBFB" stop-opacity="0.1567"/>
<stop offset="1" stop-color="white" stop-opacity="0"/>
</radialGradient>
<radialGradient id="paint18_radial_0_1689" cx="0" cy="0" r="1" gradientUnits="userSpaceOnUse" gradientTransform="translate(483.526 475.499) scale(232.885 34.9328)">
<stop offset="5.4e-07" stop-color="#B0B0AF" stop-opacity="0.7"/>
<stop offset="0.1058" stop-color="#C0C0BF" stop-opacity="0.6259"/>
<stop offset="0.3285" stop-color="#DBDBDB" stop-opacity="0.4701"/>
<stop offset="0.5523" stop-color="#EFEFEF" stop-opacity="0.3134"/>
<stop offset="0.7761" stop-color="#FBFBFB" stop-opacity="0.1567"/>
<stop offset="1" stop-color="white" stop-opacity="0"/>
</radialGradient>
<radialGradient id="paint19_radial_0_1689" cx="0" cy="0" r="1" gradientUnits="userSpaceOnUse" gradientTransform="translate(170.74 500.395) scale(232.885 34.9327)">
<stop offset="5.4e-07" stop-color="#B0B0AF" stop-opacity="0.7"/>
<stop offset="0.1058" stop-color="#C0C0BF" stop-opacity="0.6259"/>
<stop offset="0.3285" stop-color="#DBDBDB" stop-opacity="0.4701"/>
<stop offset="0.5523" stop-color="#EFEFEF" stop-opacity="0.3134"/>
<stop offset="0.7761" stop-color="#FBFBFB" stop-opacity="0.1567"/>
<stop offset="1" stop-color="white" stop-opacity="0"/>
</radialGradient>
<radialGradient id="paint20_radial_0_1689" cx="0" cy="0" r="1" gradientUnits="userSpaceOnUse" gradientTransform="translate(170.74 500.395) scale(232.885 34.9327)">
<stop offset="5.4e-07" stop-color="#B0B0AF" stop-opacity="0.7"/>
<stop offset="0.1058" stop-color="#C0C0BF" stop-opacity="0.6259"/>
<stop offset="0.3285" stop-color="#DBDBDB" stop-opacity="0.4701"/>
<stop offset="0.5523" stop-color="#EFEFEF" stop-opacity="0.3134"/>
<stop offset="0.7761" stop-color="#FBFBFB" stop-opacity="0.1567"/>
<stop offset="1" stop-color="white" stop-opacity="0"/>
</radialGradient>
<radialGradient id="paint21_radial_0_1689" cx="0" cy="0" r="1" gradientUnits="userSpaceOnUse" gradientTransform="translate(277.158 468.477) scale(274.916 34.9321)">
<stop offset="5.4e-07" stop-color="#B0B0AF" stop-opacity="0.7"/>
<stop offset="0.1058" stop-color="#C0C0BF" stop-opacity="0.6259"/>
<stop offset="0.3285" stop-color="#DBDBDB" stop-opacity="0.4701"/>
<stop offset="0.5523" stop-color="#EFEFEF" stop-opacity="0.3134"/>
<stop offset="0.7761" stop-color="#FBFBFB" stop-opacity="0.1567"/>
<stop offset="1" stop-color="white" stop-opacity="0"/>
</radialGradient>
<radialGradient id="paint22_radial_0_1689" cx="0" cy="0" r="1" gradientUnits="userSpaceOnUse" gradientTransform="translate(277.158 468.477) scale(274.916 34.9321)">
<stop offset="5.4e-07" stop-color="#B0B0AF" stop-opacity="0.7"/>
<stop offset="0.1058" stop-color="#C0C0BF" stop-opacity="0.6259"/>
<stop offset="0.3285" stop-color="#DBDBDB" stop-opacity="0.4701"/>
<stop offset="0.5523" stop-color="#EFEFEF" stop-opacity="0.3134"/>
<stop offset="0.7761" stop-color="#FBFBFB" stop-opacity="0.1567"/>
<stop offset="1" stop-color="white" stop-opacity="0"/>
</radialGradient>
<radialGradient id="paint23_radial_0_1689" cx="0" cy="0" r="1" gradientUnits="userSpaceOnUse" gradientTransform="translate(277.158 468.477) scale(274.916 34.9321)">
<stop offset="5.4e-07" stop-color="#B0B0AF" stop-opacity="0.7"/>
<stop offset="0.1058" stop-color="#C0C0BF" stop-opacity="0.6259"/>
<stop offset="0.3285" stop-color="#DBDBDB" stop-opacity="0.4701"/>
<stop offset="0.5523" stop-color="#EFEFEF" stop-opacity="0.3134"/>
<stop offset="0.7761" stop-color="#FBFBFB" stop-opacity="0.1567"/>
<stop offset="1" stop-color="white" stop-opacity="0"/>
</radialGradient>
<radialGradient id="paint24_radial_0_1689" cx="0" cy="0" r="1" gradientUnits="userSpaceOnUse" gradientTransform="translate(277.158 474.27) scale(274.916 45.8542)">
<stop offset="5.4e-07" stop-color="#B0B0AF" stop-opacity="0.7"/>
<stop offset="0.1058" stop-color="#C0C0BF" stop-opacity="0.6259"/>
<stop offset="0.3285" stop-color="#DBDBDB" stop-opacity="0.4701"/>
<stop offset="0.5523" stop-color="#EFEFEF" stop-opacity="0.3134"/>
<stop offset="0.7761" stop-color="#FBFBFB" stop-opacity="0.1567"/>
<stop offset="1" stop-color="white" stop-opacity="0"/>
</radialGradient>
<linearGradient id="paint25_linear_0_1689" x1="253.503" y1="328.102" x2="253.503" y2="356.934" gradientUnits="userSpaceOnUse">
<stop stop-color="#FFBA3B"/>
<stop offset="0.5315" stop-color="#FFA53B"/>
<stop offset="1" stop-color="#FF983B"/>
</linearGradient>
<linearGradient id="paint26_linear_0_1689" x1="153.181" y1="301.06" x2="153.181" y2="428.773" gradientUnits="userSpaceOnUse">
<stop stop-color="#FFBA3B"/>
<stop offset="0.5315" stop-color="#FFA53B"/>
<stop offset="1" stop-color="#FF983B"/>
</linearGradient>
<linearGradient id="paint27_linear_0_1689" x1="235.971" y1="340.668" x2="235.971" y2="371.533" gradientUnits="userSpaceOnUse">
<stop stop-color="#FFBA3B"/>
<stop offset="0.5315" stop-color="#FFA53B"/>
<stop offset="1" stop-color="#FF983B"/>
</linearGradient>
<linearGradient id="paint28_linear_0_1689" x1="108.794" y1="377.607" x2="123.531" y2="377.607" gradientUnits="userSpaceOnUse">
<stop offset="5e-08" stop-color="#F1C88D"/>
<stop offset="0.2682" stop-color="#EEC58A"/>
<stop offset="0.468" stop-color="#E6BB82"/>
<stop offset="0.6457" stop-color="#D7AB73"/>
<stop offset="0.8106" stop-color="#C2955F"/>
<stop offset="0.9652" stop-color="#A87845"/>
<stop offset="1" stop-color="#A1703E"/>
</linearGradient>
<linearGradient id="paint29_linear_0_1689" x1="199.611" y1="359.06" x2="211.663" y2="359.06" gradientUnits="userSpaceOnUse">
<stop offset="5e-08" stop-color="#F1C88D"/>
<stop offset="0.2682" stop-color="#EEC58A"/>
<stop offset="0.468" stop-color="#E6BB82"/>
<stop offset="0.6457" stop-color="#D7AB73"/>
<stop offset="0.8106" stop-color="#C2955F"/>
<stop offset="0.9652" stop-color="#A87845"/>
<stop offset="1" stop-color="#A1703E"/>
</linearGradient>
<linearGradient id="paint30_linear_0_1689" x1="229.764" y1="365.568" x2="229.764" y2="435.801" gradientUnits="userSpaceOnUse">
<stop stop-color="#FFBA3B"/>
<stop offset="0.5315" stop-color="#FFA53B"/>
<stop offset="1" stop-color="#FF983B"/>
</linearGradient>
<linearGradient id="paint31_linear_0_1689" x1="204.559" y1="376.689" x2="204.578" y2="373.234" gradientUnits="userSpaceOnUse">
<stop stop-color="#925200"/>
<stop offset="0.953125" stop-color="#D37D0B"/>
</linearGradient>
<linearGradient id="paint32_linear_0_1689" x1="261.059" y1="446.316" x2="305.746" y2="406.61" gradientUnits="userSpaceOnUse">
<stop stop-color="#925200"/>
<stop offset="0.953125" stop-color="#D37D0B"/>
</linearGradient>
<linearGradient id="paint33_linear_0_1689" x1="128.305" y1="446.316" x2="173.228" y2="403.939" gradientUnits="userSpaceOnUse">
<stop stop-color="#925200"/>
<stop offset="0.953125" stop-color="#D37D0B"/>
</linearGradient>
<linearGradient id="paint34_linear_0_1689" x1="168.055" y1="445.752" x2="179.889" y2="444.153" gradientUnits="userSpaceOnUse">
<stop stop-color="#925200"/>
<stop offset="0.953125" stop-color="#D37D0B"/>
</linearGradient>
<linearGradient id="paint35_linear_0_1689" x1="219.247" y1="445.752" x2="231.081" y2="444.153" gradientUnits="userSpaceOnUse">
<stop stop-color="#925200"/>
<stop offset="0.953125" stop-color="#D37D0B"/>
</linearGradient>
<linearGradient id="paint36_linear_0_1689" x1="204.084" y1="412.691" x2="204.104" y2="409.235" gradientUnits="userSpaceOnUse">
<stop stop-color="#925200"/>
<stop offset="0.953125" stop-color="#D37D0B"/>
</linearGradient>
<linearGradient id="paint37_linear_0_1689" x1="189.107" y1="485.355" x2="232.591" y2="485.355" gradientUnits="userSpaceOnUse">
<stop offset="4.1e-07" stop-color="white"/>
<stop offset="0.1438" stop-color="#FCFAFF" stop-opacity="0.8562"/>
<stop offset="0.313" stop-color="#F2ECFE" stop-opacity="0.687"/>
<stop offset="0.4951" stop-color="#E1D4FD" stop-opacity="0.5049"/>
<stop offset="0.6863" stop-color="#CAB3FB" stop-opacity="0.3137"/>
<stop offset="0.8825" stop-color="#AC89F9" stop-opacity="0.1175"/>
<stop offset="1" stop-color="#986CF7" stop-opacity="0"/>
</linearGradient>
<linearGradient id="paint38_linear_0_1689" x1="516.731" y1="475.871" x2="555.546" y2="359.03" gradientUnits="userSpaceOnUse">
<stop stop-color="#FFAA3B"/>
<stop offset="0.953125" stop-color="#D37D0B"/>
</linearGradient>
<linearGradient id="paint39_linear_0_1689" x1="456.25" y1="349.768" x2="567.338" y2="349.768" gradientUnits="userSpaceOnUse">
<stop stop-color="#FDFCFF" stop-opacity="0.68"/>
<stop offset="1" stop-color="#FDFCFF" stop-opacity="0.68"/>
</linearGradient>
<linearGradient id="paint40_linear_0_1689" x1="455.227" y1="365.143" x2="568.455" y2="365.143" gradientUnits="userSpaceOnUse">
<stop stop-color="#FDFCFF" stop-opacity="0.68"/>
<stop offset="1" stop-color="#FDFCFF" stop-opacity="0.68"/>
</linearGradient>
<linearGradient id="paint41_linear_0_1689" x1="454.195" y1="380.52" x2="569.384" y2="380.52" gradientUnits="userSpaceOnUse">
<stop stop-color="#FDFCFF" stop-opacity="0.68"/>
<stop offset="1" stop-color="#FDFCFF" stop-opacity="0.68"/>
</linearGradient>
<linearGradient id="paint42_linear_0_1689" x1="453.172" y1="395.895" x2="570.501" y2="395.895" gradientUnits="userSpaceOnUse">
<stop stop-color="#FDFCFF" stop-opacity="0.68"/>
<stop offset="1" stop-color="#FDFCFF" stop-opacity="0.68"/>
</linearGradient>
<linearGradient id="paint43_linear_0_1689" x1="452.319" y1="411.356" x2="571.431" y2="411.356" gradientUnits="userSpaceOnUse">
<stop stop-color="#FDFCFF" stop-opacity="0.68"/>
<stop offset="1" stop-color="#FDFCFF" stop-opacity="0.68"/>
</linearGradient>
<linearGradient id="paint44_linear_0_1689" x1="451.296" y1="426.835" x2="572.548" y2="426.835" gradientUnits="userSpaceOnUse">
<stop stop-color="#FDFCFF" stop-opacity="0.68"/>
<stop offset="1" stop-color="#FDFCFF" stop-opacity="0.68"/>
</linearGradient>
<linearGradient id="paint45_linear_0_1689" x1="450.264" y1="442.211" x2="573.478" y2="442.211" gradientUnits="userSpaceOnUse">
<stop stop-color="#FDFCFF" stop-opacity="0.68"/>
<stop offset="1" stop-color="#FDFCFF" stop-opacity="0.68"/>
</linearGradient>
<linearGradient id="paint46_linear_0_1689" x1="449.241" y1="457.587" x2="574.594" y2="457.587" gradientUnits="userSpaceOnUse">
<stop stop-color="#FDFCFF" stop-opacity="0.68"/>
<stop offset="1" stop-color="#FDFCFF" stop-opacity="0.68"/>
</linearGradient>
<linearGradient id="paint47_linear_0_1689" x1="448.209" y1="473.151" x2="575.524" y2="473.151" gradientUnits="userSpaceOnUse">
<stop stop-color="#FDFCFF" stop-opacity="0.68"/>
<stop offset="1" stop-color="#FDFCFF" stop-opacity="0.68"/>
</linearGradient>
<radialGradient id="paint48_radial_0_1689" cx="0" cy="0" r="1" gradientUnits="userSpaceOnUse" gradientTransform="translate(465.718 419.226) scale(105.122 105.122)">
<stop stop-color="#1D214B"/>
<stop offset="0.0493343" stop-color="#32365C" stop-opacity="0.9507"/>
<stop offset="0.188" stop-color="#686A87" stop-opacity="0.812"/>
<stop offset="0.3282" stop-color="#9698AB" stop-opacity="0.6718"/>
<stop offset="0.4673" stop-color="#BCBDCA" stop-opacity="0.5327"/>
<stop offset="0.6047" stop-color="#D9DAE1" stop-opacity="0.3953"/>
<stop offset="0.7403" stop-color="#EEEFF2" stop-opacity="0.2597"/>
<stop offset="0.8731" stop-color="#FBFBFC" stop-opacity="0.1269"/>
<stop offset="1" stop-color="white" stop-opacity="0"/>
</radialGradient>
<linearGradient id="paint49_linear_0_1689" x1="410.963" y1="366.15" x2="416.425" y2="494.511" gradientUnits="userSpaceOnUse">
<stop offset="4.1e-07" stop-color="#28067E"/>
<stop offset="0.1606" stop-color="#2D0A83"/>
<stop offset="0.3497" stop-color="#3A1691"/>
<stop offset="0.5532" stop-color="#502AA9"/>
<stop offset="0.7667" stop-color="#6E46CA"/>
<stop offset="0.9861" stop-color="#956AF4"/>
<stop offset="1" stop-color="#986CF7"/>
</linearGradient>
<linearGradient id="paint50_linear_0_1689" x1="423.642" y1="487.938" x2="442.216" y2="404.757" gradientUnits="userSpaceOnUse">
<stop stop-color="#FFAA3B"/>
<stop offset="0.953125" stop-color="#D37D0B"/>
</linearGradient>
<linearGradient id="paint51_linear_0_1689" x1="482.936" y1="373.305" x2="482.936" y2="495.375" gradientUnits="userSpaceOnUse">
<stop stop-color="#FDFCFF" stop-opacity="0.1"/>
<stop offset="1" stop-color="#FDFCFF"/>
</linearGradient>
<linearGradient id="paint52_linear_0_1689" x1="466.809" y1="372.179" x2="466.809" y2="496.499" gradientUnits="userSpaceOnUse">
<stop stop-color="#FDFCFF" stop-opacity="0.1"/>
<stop offset="1" stop-color="#FDFCFF"/>
</linearGradient>
<linearGradient id="paint53_linear_0_1689" x1="450.684" y1="371.054" x2="450.684" y2="497.436" gradientUnits="userSpaceOnUse">
<stop stop-color="#FDFCFF" stop-opacity="0.1"/>
<stop offset="1" stop-color="#FDFCFF"/>
</linearGradient>
<linearGradient id="paint54_linear_0_1689" x1="434.746" y1="369.741" x2="434.746" y2="498.562" gradientUnits="userSpaceOnUse">
<stop stop-color="#FDFCFF" stop-opacity="0.1"/>
<stop offset="1" stop-color="#FDFCFF"/>
</linearGradient>
<linearGradient id="paint55_linear_0_1689" x1="418.619" y1="368.638" x2="418.619" y2="499.708" gradientUnits="userSpaceOnUse">
<stop stop-color="#FDFCFF" stop-opacity="0.1"/>
<stop offset="1" stop-color="#FDFCFF"/>
</linearGradient>
<linearGradient id="paint56_linear_0_1689" x1="402.494" y1="367.513" x2="402.494" y2="500.833" gradientUnits="userSpaceOnUse">
<stop stop-color="#FDFCFF" stop-opacity="0.1"/>
<stop offset="1" stop-color="#FDFCFF"/>
</linearGradient>
<linearGradient id="paint57_linear_0_1689" x1="386.367" y1="366.387" x2="386.367" y2="501.77" gradientUnits="userSpaceOnUse">
<stop stop-color="#FDFCFF" stop-opacity="0.1"/>
<stop offset="1" stop-color="#FDFCFF"/>
</linearGradient>
<linearGradient id="paint58_linear_0_1689" x1="370.24" y1="365.241" x2="370.24" y2="502.875" gradientUnits="userSpaceOnUse">
<stop stop-color="#FDFCFF" stop-opacity="0.1"/>
<stop offset="1" stop-color="#FDFCFF"/>
</linearGradient>
<linearGradient id="paint59_linear_0_1689" x1="354.115" y1="364.138" x2="354.115" y2="504.021" gradientUnits="userSpaceOnUse">
<stop stop-color="#FDFCFF" stop-opacity="0.1"/>
<stop offset="1" stop-color="#FDFCFF"/>
</linearGradient>
<linearGradient id="paint60_linear_0_1689" x1="491.897" y1="249.822" x2="537.113" y2="218.603" gradientUnits="userSpaceOnUse">
<stop stop-color="#E88505"/>
<stop offset="1" stop-color="#FFAA3B"/>
</linearGradient>
<linearGradient id="paint61_linear_0_1689" x1="123.008" y1="250.484" x2="155.158" y2="243.927" gradientUnits="userSpaceOnUse">
<stop stop-color="#FFAA3B"/>
<stop offset="0.953125" stop-color="#D37D0B"/>
</linearGradient>
<linearGradient id="paint62_linear_0_1689" x1="469.953" y1="182.767" x2="495.397" y2="177.578" gradientUnits="userSpaceOnUse">
<stop stop-color="#FFAA3B"/>
<stop offset="0.953125" stop-color="#D37D0B"/>
</linearGradient>
<clipPath id="clip0_0_1689">
<rect width="211.338" height="461.056" fill="white" transform="translate(231.084 5.2041)"/>
</clipPath>
</defs>
</svg>
