<svg width="733" height="732" viewBox="0 0 733 732" fill="none" xmlns="http://www.w3.org/2000/svg">
<path d="M511.772 148.452C468.535 119.554 417.658 104.214 365.653 104.395C313.648 104.576 262.88 120.27 219.844 149.468L293.521 258.06C314.945 243.524 340.22 235.711 366.11 235.621C392 235.531 417.328 243.168 438.853 257.554L511.772 148.452Z" fill="#D9D9D9"/>
<path d="M511.772 148.452C468.535 119.554 417.658 104.214 365.653 104.395C313.648 104.576 262.88 120.27 219.844 149.468L293.521 258.06C314.945 243.524 340.22 235.711 366.11 235.621C392 235.531 417.328 243.168 438.853 257.554L511.772 148.452Z" fill="url(#paint0_linear_0_1964)"/>
<path d="M617.589 438.35C632.043 388.394 631.264 335.261 615.35 285.75C599.436 236.239 569.112 192.603 528.257 160.424L447.061 263.514C467.4 279.534 482.496 301.258 490.419 325.906C498.341 350.554 498.729 377.006 491.533 401.876L617.589 438.35Z" fill="#D9D9D9"/>
<path d="M617.589 438.35C632.043 388.394 631.264 335.261 615.35 285.75C599.436 236.239 569.112 192.603 528.257 160.424L447.061 263.514C467.4 279.534 482.496 301.258 490.419 325.906C498.341 350.554 498.729 377.006 491.533 401.876L617.589 438.35Z" fill="url(#paint1_linear_0_1964)"/>
<path d="M375.773 626.876C427.746 625.043 477.99 607.745 520.076 577.195C562.163 546.644 594.176 504.232 612.021 455.384L488.762 410.356C479.878 434.674 463.94 455.789 442.988 470.998C422.036 486.207 397.023 494.818 371.149 495.731L375.773 626.876Z" fill="#D9D9D9"/>
<path d="M375.773 626.876C427.746 625.043 477.99 607.745 520.076 577.195C562.163 546.644 594.176 504.232 612.021 455.384L488.762 410.356C479.878 434.674 463.94 455.789 442.988 470.998C422.036 486.207 397.023 494.818 371.149 495.731L375.773 626.876Z" fill="url(#paint2_linear_0_1964)"/>
<path d="M120.261 453.034C137.638 502.05 169.245 544.767 211.037 575.718C252.83 606.669 302.906 624.447 354.86 626.776L360.737 495.682C334.873 494.522 309.943 485.672 289.137 470.263C268.331 454.854 252.596 433.588 243.945 409.186L120.261 453.034Z" fill="url(#paint3_linear_0_1964)"/>
<path d="M204.049 161.074C163.323 193.416 133.174 237.173 117.459 286.747C101.743 336.322 101.177 389.457 115.832 439.355L241.74 402.376C234.444 377.535 234.726 351.082 242.55 326.402C250.374 301.723 265.383 279.938 285.658 263.837L204.049 161.074Z" fill="url(#paint4_linear_0_1964)"/>
<path d="M338.877 162.526L335.699 172.326H332.731L330.855 166.362L328.895 172.326H325.927L322.749 162.526H325.605L327.579 168.784L329.651 162.526H332.199L334.173 168.84L336.231 162.526H338.877ZM344.598 172.522C343.142 172.522 342.008 172.126 341.196 171.332C340.393 170.539 339.992 169.414 339.992 167.958V162.526H342.764V167.874C342.764 169.442 343.384 170.226 344.626 170.226C345.858 170.226 346.474 169.442 346.474 167.874V162.526H349.204V167.958C349.204 169.414 348.798 170.539 347.986 171.332C347.183 172.126 346.054 172.522 344.598 172.522ZM357.442 170.422H353.298L352.528 172.326H349.7L354.026 162.526H356.756L361.096 172.326H358.212L357.442 170.422ZM356.63 168.378L355.37 165.242L354.11 168.378H356.63ZM366.688 172.522C365.652 172.522 364.718 172.303 363.888 171.864C363.066 171.426 362.418 170.819 361.942 170.044C361.475 169.27 361.242 168.397 361.242 167.426C361.242 166.456 361.475 165.583 361.942 164.808C362.418 164.034 363.066 163.427 363.888 162.988C364.718 162.55 365.652 162.33 366.688 162.33C367.724 162.33 368.652 162.55 369.474 162.988C370.304 163.427 370.953 164.034 371.42 164.808C371.896 165.583 372.134 166.456 372.134 167.426C372.134 168.397 371.896 169.27 371.42 170.044C370.953 170.819 370.304 171.426 369.474 171.864C368.652 172.303 367.724 172.522 366.688 172.522ZM366.688 170.226C367.182 170.226 367.63 170.11 368.032 169.876C368.433 169.643 368.75 169.316 368.984 168.896C369.217 168.467 369.334 167.977 369.334 167.426C369.334 166.876 369.217 166.39 368.984 165.97C368.75 165.541 368.433 165.21 368.032 164.976C367.63 164.743 367.182 164.626 366.688 164.626C366.193 164.626 365.745 164.743 365.344 164.976C364.942 165.21 364.625 165.541 364.392 165.97C364.158 166.39 364.042 166.876 364.042 167.426C364.042 167.977 364.158 168.467 364.392 168.896C364.625 169.316 364.942 169.643 365.344 169.876C365.745 170.11 366.193 170.226 366.688 170.226ZM378.471 172.522C377.445 172.522 376.521 172.308 375.699 171.878C374.887 171.44 374.248 170.833 373.781 170.058C373.315 169.284 373.081 168.406 373.081 167.426C373.081 166.446 373.315 165.569 373.781 164.794C374.248 164.02 374.887 163.418 375.699 162.988C376.521 162.55 377.445 162.33 378.471 162.33C379.367 162.33 380.175 162.489 380.893 162.806C381.612 163.124 382.209 163.581 382.685 164.178L380.921 165.774C380.287 165.009 379.517 164.626 378.611 164.626C378.079 164.626 377.603 164.743 377.183 164.976C376.773 165.21 376.451 165.541 376.217 165.97C375.993 166.39 375.881 166.876 375.881 167.426C375.881 167.977 375.993 168.467 376.217 168.896C376.451 169.316 376.773 169.643 377.183 169.876C377.603 170.11 378.079 170.226 378.611 170.226C379.517 170.226 380.287 169.844 380.921 169.078L382.685 170.674C382.209 171.272 381.612 171.729 380.893 172.046C380.175 172.364 379.367 172.522 378.471 172.522ZM388.658 172.522C387.622 172.522 386.689 172.303 385.858 171.864C385.037 171.426 384.388 170.819 383.912 170.044C383.446 169.27 383.212 168.397 383.212 167.426C383.212 166.456 383.446 165.583 383.912 164.808C384.388 164.034 385.037 163.427 385.858 162.988C386.689 162.55 387.622 162.33 388.658 162.33C389.694 162.33 390.623 162.55 391.444 162.988C392.275 163.427 392.924 164.034 393.39 164.808C393.866 165.583 394.104 166.456 394.104 167.426C394.104 168.397 393.866 169.27 393.39 170.044C392.924 170.819 392.275 171.426 391.444 171.864C390.623 172.303 389.694 172.522 388.658 172.522ZM388.658 170.226C389.153 170.226 389.601 170.11 390.002 169.876C390.404 169.643 390.721 169.316 390.954 168.896C391.188 168.467 391.304 167.977 391.304 167.426C391.304 166.876 391.188 166.39 390.954 165.97C390.721 165.541 390.404 165.21 390.002 164.976C389.601 164.743 389.153 164.626 388.658 164.626C388.164 164.626 387.716 164.743 387.314 164.976C386.913 165.21 386.596 165.541 386.362 165.97C386.129 166.39 386.012 166.876 386.012 167.426C386.012 167.977 386.129 168.467 386.362 168.896C386.596 169.316 386.913 169.643 387.314 169.876C387.716 170.11 388.164 170.226 388.658 170.226ZM395.556 162.526H398.328V172.326H395.556V162.526ZM409.624 162.526V172.326H407.342L403.016 167.104V172.326H400.3V162.526H402.582L406.908 167.748V162.526H409.624Z" fill="white"/>
<path d="M532.824 306.985C533.384 307.181 533.823 307.489 534.14 307.909C534.457 308.319 534.616 308.819 534.616 309.407C534.616 310.265 534.271 310.928 533.58 311.395C532.889 311.861 531.891 312.095 530.584 312.095H525.292V302.295H530.304C531.555 302.295 532.507 302.528 533.16 302.995C533.813 303.452 534.14 304.073 534.14 304.857C534.14 305.323 534.023 305.743 533.79 306.117C533.566 306.481 533.244 306.77 532.824 306.985ZM528.036 304.297V306.187H529.94C530.873 306.187 531.34 305.869 531.34 305.235C531.34 304.609 530.873 304.297 529.94 304.297H528.036ZM530.36 310.093C531.331 310.093 531.816 309.761 531.816 309.099C531.816 308.436 531.331 308.105 530.36 308.105H528.036V310.093H530.36ZM540.574 312.291C539.118 312.291 537.984 311.894 537.172 311.101C536.369 310.307 535.968 309.183 535.968 307.727V302.295H538.74V307.643C538.74 309.211 539.36 309.995 540.602 309.995C541.834 309.995 542.45 309.211 542.45 307.643V302.295H545.18V307.727C545.18 309.183 544.774 310.307 543.962 311.101C543.159 311.894 542.03 312.291 540.574 312.291ZM552.171 308.581V312.095H549.399V308.539L545.661 302.295H548.587L550.911 306.187L553.235 302.295H555.923L552.171 308.581ZM564.455 309.953V312.095H556.587V302.295H564.273V304.437H559.331V306.089H563.685V308.161H559.331V309.953H564.455ZM570.277 309.491H568.765V312.095H565.993V302.295H570.473C571.36 302.295 572.13 302.444 572.783 302.743C573.437 303.032 573.941 303.452 574.295 304.003C574.65 304.544 574.827 305.183 574.827 305.921C574.827 306.63 574.659 307.251 574.323 307.783C573.997 308.305 573.525 308.716 572.909 309.015L575.023 312.095H572.055L570.277 309.491ZM572.027 305.921C572.027 305.463 571.883 305.109 571.593 304.857C571.304 304.605 570.875 304.479 570.305 304.479H568.765V307.349H570.305C570.875 307.349 571.304 307.227 571.593 306.985C571.883 306.733 572.027 306.378 572.027 305.921ZM579.8 312.291C579.007 312.291 578.237 312.193 577.49 311.997C576.744 311.801 576.137 311.539 575.67 311.213L576.58 309.169C577.019 309.458 577.528 309.691 578.106 309.869C578.685 310.046 579.254 310.135 579.814 310.135C580.878 310.135 581.41 309.869 581.41 309.337C581.41 309.057 581.256 308.851 580.948 308.721C580.65 308.581 580.164 308.436 579.492 308.287C578.755 308.128 578.139 307.96 577.644 307.783C577.15 307.596 576.725 307.302 576.37 306.901C576.016 306.499 575.838 305.958 575.838 305.277C575.838 304.679 576.002 304.143 576.328 303.667C576.655 303.181 577.14 302.799 577.784 302.519C578.438 302.239 579.236 302.099 580.178 302.099C580.822 302.099 581.457 302.173 582.082 302.323C582.708 302.463 583.258 302.673 583.734 302.953L582.88 305.011C581.947 304.507 581.042 304.255 580.164 304.255C579.614 304.255 579.212 304.339 578.96 304.507C578.708 304.665 578.582 304.875 578.582 305.137C578.582 305.398 578.732 305.594 579.03 305.725C579.329 305.855 579.81 305.991 580.472 306.131C581.219 306.289 581.835 306.462 582.32 306.649C582.815 306.826 583.24 307.115 583.594 307.517C583.958 307.909 584.14 308.445 584.14 309.127C584.14 309.715 583.977 310.247 583.65 310.723C583.324 311.199 582.834 311.581 582.18 311.871C581.527 312.151 580.734 312.291 579.8 312.291ZM528.648 319.295V329.095H525.876V325.273H522.096V329.095H519.324V319.295H522.096V322.977H525.876V319.295H528.648ZM535.546 329.291C534.51 329.291 533.576 329.071 532.746 328.633C531.924 328.194 531.276 327.587 530.8 326.813C530.333 326.038 530.1 325.165 530.1 324.195C530.1 323.224 530.333 322.351 530.8 321.577C531.276 320.802 531.924 320.195 532.746 319.757C533.576 319.318 534.51 319.099 535.546 319.099C536.582 319.099 537.51 319.318 538.332 319.757C539.162 320.195 539.811 320.802 540.278 321.577C540.754 322.351 540.992 323.224 540.992 324.195C540.992 325.165 540.754 326.038 540.278 326.813C539.811 327.587 539.162 328.194 538.332 328.633C537.51 329.071 536.582 329.291 535.546 329.291ZM535.546 326.995C536.04 326.995 536.488 326.878 536.89 326.645C537.291 326.411 537.608 326.085 537.842 325.665C538.075 325.235 538.192 324.745 538.192 324.195C538.192 323.644 538.075 323.159 537.842 322.739C537.608 322.309 537.291 321.978 536.89 321.745C536.488 321.511 536.04 321.395 535.546 321.395C535.051 321.395 534.603 321.511 534.202 321.745C533.8 321.978 533.483 322.309 533.25 322.739C533.016 323.159 532.9 323.644 532.9 324.195C532.9 324.745 533.016 325.235 533.25 325.665C533.483 326.085 533.8 326.411 534.202 326.645C534.603 326.878 535.051 326.995 535.546 326.995ZM542.443 319.295H545.215V326.897H549.891V329.095H542.443V319.295ZM550.988 319.295H555.622C556.696 319.295 557.648 319.495 558.478 319.897C559.309 320.298 559.953 320.867 560.41 321.605C560.868 322.342 561.096 323.205 561.096 324.195C561.096 325.184 560.868 326.047 560.41 326.785C559.953 327.522 559.309 328.091 558.478 328.493C557.648 328.894 556.696 329.095 555.622 329.095H550.988V319.295ZM555.51 326.883C556.35 326.883 557.022 326.645 557.526 326.169C558.04 325.693 558.296 325.035 558.296 324.195C558.296 323.355 558.04 322.697 557.526 322.221C557.022 321.745 556.35 321.507 555.51 321.507H553.76V326.883H555.51ZM570.423 326.953V329.095H562.555V319.295H570.241V321.437H565.299V323.089H569.653V325.161H565.299V326.953H570.423ZM576.245 326.491H574.733V329.095H571.961V319.295H576.441C577.328 319.295 578.098 319.444 578.751 319.743C579.404 320.032 579.908 320.452 580.263 321.003C580.618 321.544 580.795 322.183 580.795 322.921C580.795 323.63 580.627 324.251 580.291 324.783C579.964 325.305 579.493 325.716 578.877 326.015L580.991 329.095H578.023L576.245 326.491ZM577.995 322.921C577.995 322.463 577.85 322.109 577.561 321.857C577.272 321.605 576.842 321.479 576.273 321.479H574.733V324.349H576.273C576.842 324.349 577.272 324.227 577.561 323.985C577.85 323.733 577.995 323.378 577.995 322.921ZM585.768 329.291C584.975 329.291 584.205 329.193 583.458 328.997C582.712 328.801 582.105 328.539 581.638 328.213L582.548 326.169C582.987 326.458 583.496 326.691 584.074 326.869C584.653 327.046 585.222 327.135 585.782 327.135C586.846 327.135 587.378 326.869 587.378 326.337C587.378 326.057 587.224 325.851 586.916 325.721C586.618 325.581 586.132 325.436 585.46 325.287C584.723 325.128 584.107 324.96 583.612 324.783C583.118 324.596 582.693 324.302 582.338 323.901C581.984 323.499 581.806 322.958 581.806 322.277C581.806 321.679 581.97 321.143 582.296 320.667C582.623 320.181 583.108 319.799 583.752 319.519C584.406 319.239 585.204 319.099 586.146 319.099C586.79 319.099 587.425 319.173 588.05 319.323C588.676 319.463 589.226 319.673 589.702 319.953L588.848 322.011C587.915 321.507 587.01 321.255 586.132 321.255C585.582 321.255 585.18 321.339 584.928 321.507C584.676 321.665 584.55 321.875 584.55 322.137C584.55 322.398 584.7 322.594 584.998 322.725C585.297 322.855 585.778 322.991 586.44 323.131C587.187 323.289 587.803 323.462 588.288 323.649C588.783 323.826 589.208 324.115 589.562 324.517C589.926 324.909 590.108 325.445 590.108 326.127C590.108 326.715 589.945 327.247 589.618 327.723C589.292 328.199 588.802 328.581 588.148 328.871C587.495 329.151 586.702 329.291 585.768 329.291Z" fill="white"/>
<path d="M149.346 302.295L146.168 312.095H143.2L141.324 306.131L139.364 312.095H136.396L133.218 302.295H136.074L138.048 308.553L140.12 302.295H142.668L144.642 308.609L146.7 302.295H149.346ZM155.066 312.291C153.61 312.291 152.476 311.894 151.664 311.101C150.861 310.307 150.46 309.183 150.46 307.727V302.295H153.232V307.643C153.232 309.211 153.853 309.995 155.094 309.995C156.326 309.995 156.942 309.211 156.942 307.643V302.295H159.672V307.727C159.672 309.183 159.266 310.307 158.454 311.101C157.651 311.894 156.522 312.291 155.066 312.291ZM167.911 310.191H163.767L162.997 312.095H160.169L164.495 302.295H167.225L171.565 312.095H168.681L167.911 310.191ZM167.099 308.147L165.839 305.011L164.579 308.147H167.099ZM177.156 312.291C176.12 312.291 175.187 312.071 174.356 311.633C173.535 311.194 172.886 310.587 172.41 309.813C171.943 309.038 171.71 308.165 171.71 307.195C171.71 306.224 171.943 305.351 172.41 304.577C172.886 303.802 173.535 303.195 174.356 302.757C175.187 302.318 176.12 302.099 177.156 302.099C178.192 302.099 179.121 302.318 179.942 302.757C180.773 303.195 181.421 303.802 181.888 304.577C182.364 305.351 182.602 306.224 182.602 307.195C182.602 308.165 182.364 309.038 181.888 309.813C181.421 310.587 180.773 311.194 179.942 311.633C179.121 312.071 178.192 312.291 177.156 312.291ZM177.156 309.995C177.651 309.995 178.099 309.878 178.5 309.645C178.901 309.411 179.219 309.085 179.452 308.665C179.685 308.235 179.802 307.745 179.802 307.195C179.802 306.644 179.685 306.159 179.452 305.739C179.219 305.309 178.901 304.978 178.5 304.745C178.099 304.511 177.651 304.395 177.156 304.395C176.661 304.395 176.213 304.511 175.812 304.745C175.411 304.978 175.093 305.309 174.86 305.739C174.627 306.159 174.51 306.644 174.51 307.195C174.51 307.745 174.627 308.235 174.86 308.665C175.093 309.085 175.411 309.411 175.812 309.645C176.213 309.878 176.661 309.995 177.156 309.995ZM188.94 312.291C187.913 312.291 186.989 312.076 186.168 311.647C185.356 311.208 184.716 310.601 184.25 309.827C183.783 309.052 183.55 308.175 183.55 307.195C183.55 306.215 183.783 305.337 184.25 304.563C184.716 303.788 185.356 303.186 186.168 302.757C186.989 302.318 187.913 302.099 188.94 302.099C189.836 302.099 190.643 302.257 191.362 302.575C192.08 302.892 192.678 303.349 193.154 303.947L191.39 305.543C190.755 304.777 189.985 304.395 189.08 304.395C188.548 304.395 188.072 304.511 187.652 304.745C187.241 304.978 186.919 305.309 186.686 305.739C186.462 306.159 186.35 306.644 186.35 307.195C186.35 307.745 186.462 308.235 186.686 308.665C186.919 309.085 187.241 309.411 187.652 309.645C188.072 309.878 188.548 309.995 189.08 309.995C189.985 309.995 190.755 309.612 191.39 308.847L193.154 310.443C192.678 311.04 192.08 311.497 191.362 311.815C190.643 312.132 189.836 312.291 188.94 312.291ZM199.127 312.291C198.091 312.291 197.157 312.071 196.327 311.633C195.505 311.194 194.857 310.587 194.381 309.813C193.914 309.038 193.681 308.165 193.681 307.195C193.681 306.224 193.914 305.351 194.381 304.577C194.857 303.802 195.505 303.195 196.327 302.757C197.157 302.318 198.091 302.099 199.127 302.099C200.163 302.099 201.091 302.318 201.913 302.757C202.743 303.195 203.392 303.802 203.859 304.577C204.335 305.351 204.573 306.224 204.573 307.195C204.573 308.165 204.335 309.038 203.859 309.813C203.392 310.587 202.743 311.194 201.913 311.633C201.091 312.071 200.163 312.291 199.127 312.291ZM199.127 309.995C199.621 309.995 200.069 309.878 200.471 309.645C200.872 309.411 201.189 309.085 201.423 308.665C201.656 308.235 201.773 307.745 201.773 307.195C201.773 306.644 201.656 306.159 201.423 305.739C201.189 305.309 200.872 304.978 200.471 304.745C200.069 304.511 199.621 304.395 199.127 304.395C198.632 304.395 198.184 304.511 197.783 304.745C197.381 304.978 197.064 305.309 196.831 305.739C196.597 306.159 196.481 306.644 196.481 307.195C196.481 307.745 196.597 308.235 196.831 308.665C197.064 309.085 197.381 309.411 197.783 309.645C198.184 309.878 198.632 309.995 199.127 309.995ZM206.024 302.295H208.796V312.095H206.024V302.295ZM220.093 302.295V312.095H217.811L213.485 306.873V312.095H210.769V302.295H213.051L217.377 307.517V302.295H220.093ZM134.486 326.953V329.095H126.618V319.295H134.304V321.437H129.362V323.089H133.716V325.161H129.362V326.953H134.486ZM135.443 324.083H139.531V326.127H135.443V324.083ZM146.092 329.291C145.065 329.291 144.141 329.076 143.32 328.647C142.508 328.208 141.869 327.601 141.402 326.827C140.935 326.052 140.702 325.175 140.702 324.195C140.702 323.215 140.935 322.337 141.402 321.563C141.869 320.788 142.508 320.186 143.32 319.757C144.141 319.318 145.065 319.099 146.092 319.099C146.988 319.099 147.795 319.257 148.514 319.575C149.233 319.892 149.83 320.349 150.306 320.947L148.542 322.543C147.907 321.777 147.137 321.395 146.232 321.395C145.7 321.395 145.224 321.511 144.804 321.745C144.393 321.978 144.071 322.309 143.838 322.739C143.614 323.159 143.502 323.644 143.502 324.195C143.502 324.745 143.614 325.235 143.838 325.665C144.071 326.085 144.393 326.411 144.804 326.645C145.224 326.878 145.7 326.995 146.232 326.995C147.137 326.995 147.907 326.612 148.542 325.847L150.306 327.443C149.83 328.04 149.233 328.497 148.514 328.815C147.795 329.132 146.988 329.291 146.092 329.291ZM156.279 329.291C155.243 329.291 154.31 329.071 153.479 328.633C152.658 328.194 152.009 327.587 151.533 326.813C151.066 326.038 150.833 325.165 150.833 324.195C150.833 323.224 151.066 322.351 151.533 321.577C152.009 320.802 152.658 320.195 153.479 319.757C154.31 319.318 155.243 319.099 156.279 319.099C157.315 319.099 158.244 319.318 159.065 319.757C159.896 320.195 160.544 320.802 161.011 321.577C161.487 322.351 161.725 323.224 161.725 324.195C161.725 325.165 161.487 326.038 161.011 326.813C160.544 327.587 159.896 328.194 159.065 328.633C158.244 329.071 157.315 329.291 156.279 329.291ZM156.279 326.995C156.774 326.995 157.222 326.878 157.623 326.645C158.024 326.411 158.342 326.085 158.575 325.665C158.808 325.235 158.925 324.745 158.925 324.195C158.925 323.644 158.808 323.159 158.575 322.739C158.342 322.309 158.024 321.978 157.623 321.745C157.222 321.511 156.774 321.395 156.279 321.395C155.784 321.395 155.336 321.511 154.935 321.745C154.534 321.978 154.216 322.309 153.983 322.739C153.75 323.159 153.633 323.644 153.633 324.195C153.633 324.745 153.75 325.235 153.983 325.665C154.216 326.085 154.534 326.411 154.935 326.645C155.336 326.878 155.784 326.995 156.279 326.995ZM172.025 329.095L171.997 323.901L169.477 328.129H168.245L165.739 324.041V329.095H163.177V319.295H165.459L168.903 324.951L172.263 319.295H174.545L174.573 329.095H172.025ZM185.382 329.095L185.354 323.901L182.834 328.129H181.602L179.096 324.041V329.095H176.534V319.295H178.816L182.26 324.951L185.62 319.295H187.902L187.93 329.095H185.382ZM197.76 326.953V329.095H189.892V319.295H197.578V321.437H192.636V323.089H196.99V325.161H192.636V326.953H197.76ZM203.582 326.491H202.07V329.095H199.298V319.295H203.778C204.665 319.295 205.435 319.444 206.088 319.743C206.741 320.032 207.245 320.452 207.6 321.003C207.955 321.544 208.132 322.183 208.132 322.921C208.132 323.63 207.964 324.251 207.628 324.783C207.301 325.305 206.83 325.716 206.214 326.015L208.328 329.095H205.36L203.582 326.491ZM205.332 322.921C205.332 322.463 205.187 322.109 204.898 321.857C204.609 321.605 204.179 321.479 203.61 321.479H202.07V324.349H203.61C204.179 324.349 204.609 324.227 204.898 323.985C205.187 323.733 205.332 323.378 205.332 322.921ZM214.547 329.291C213.521 329.291 212.597 329.076 211.775 328.647C210.963 328.208 210.324 327.601 209.857 326.827C209.391 326.052 209.157 325.175 209.157 324.195C209.157 323.215 209.391 322.337 209.857 321.563C210.324 320.788 210.963 320.186 211.775 319.757C212.597 319.318 213.521 319.099 214.547 319.099C215.443 319.099 216.251 319.257 216.969 319.575C217.688 319.892 218.285 320.349 218.761 320.947L216.997 322.543C216.363 321.777 215.593 321.395 214.687 321.395C214.155 321.395 213.679 321.511 213.259 321.745C212.849 321.978 212.527 322.309 212.293 322.739C212.069 323.159 211.957 323.644 211.957 324.195C211.957 324.745 212.069 325.235 212.293 325.665C212.527 326.085 212.849 326.411 213.259 326.645C213.679 326.878 214.155 326.995 214.687 326.995C215.593 326.995 216.363 326.612 216.997 325.847L218.761 327.443C218.285 328.04 217.688 328.497 216.969 328.815C216.251 329.132 215.443 329.291 214.547 329.291ZM227.865 326.953V329.095H219.997V319.295H227.683V321.437H222.741V323.089H227.095V325.161H222.741V326.953H227.865Z" fill="white"/>
<path d="M450.953 525.777C450.159 525.777 449.389 525.679 448.643 525.483C447.896 525.287 447.289 525.026 446.823 524.699L447.733 522.655C448.171 522.944 448.68 523.178 449.259 523.355C449.837 523.532 450.407 523.621 450.967 523.621C452.031 523.621 452.563 523.355 452.563 522.823C452.563 522.543 452.409 522.338 452.101 522.207C451.802 522.067 451.317 521.922 450.645 521.773C449.907 521.614 449.291 521.446 448.797 521.269C448.302 521.082 447.877 520.788 447.523 520.387C447.168 519.986 446.991 519.444 446.991 518.763C446.991 518.166 447.154 517.629 447.481 517.153C447.807 516.668 448.293 516.285 448.937 516.005C449.59 515.725 450.388 515.585 451.331 515.585C451.975 515.585 452.609 515.66 453.235 515.809C453.86 515.949 454.411 516.159 454.887 516.439L454.033 518.497C453.099 517.993 452.194 517.741 451.317 517.741C450.766 517.741 450.365 517.825 450.113 517.993C449.861 518.152 449.735 518.362 449.735 518.623C449.735 518.884 449.884 519.08 450.183 519.211C450.481 519.342 450.962 519.477 451.625 519.617C452.371 519.776 452.987 519.948 453.473 520.135C453.967 520.312 454.392 520.602 454.747 521.003C455.111 521.395 455.293 521.932 455.293 522.613C455.293 523.201 455.129 523.733 454.803 524.209C454.476 524.685 453.986 525.068 453.333 525.357C452.679 525.637 451.886 525.777 450.953 525.777ZM464.441 523.439V525.581H456.573V515.781H464.259V517.923H459.317V519.575H463.671V521.647H459.317V523.439H464.441ZM465.98 515.781H468.752V523.383H473.428V525.581H465.98V515.781ZM474.524 515.781H477.296V523.383H481.972V525.581H474.524V515.781ZM490.937 523.439V525.581H483.069V515.781H490.755V517.923H485.813V519.575H490.167V521.647H485.813V523.439H490.937ZM496.76 522.977H495.248V525.581H492.476V515.781H496.956C497.842 515.781 498.612 515.93 499.266 516.229C499.919 516.518 500.423 516.938 500.778 517.489C501.132 518.03 501.31 518.67 501.31 519.407C501.31 520.116 501.142 520.737 500.806 521.269C500.479 521.792 500.008 522.202 499.392 522.501L501.506 525.581H498.538L496.76 522.977ZM498.51 519.407C498.51 518.95 498.365 518.595 498.076 518.343C497.786 518.091 497.357 517.965 496.788 517.965H495.248V520.835H496.788C497.357 520.835 497.786 520.714 498.076 520.471C498.365 520.219 498.51 519.864 498.51 519.407ZM506.283 525.777C505.49 525.777 504.72 525.679 503.973 525.483C503.226 525.287 502.62 525.026 502.153 524.699L503.063 522.655C503.502 522.944 504.01 523.178 504.589 523.355C505.168 523.532 505.737 523.621 506.297 523.621C507.361 523.621 507.893 523.355 507.893 522.823C507.893 522.543 507.739 522.338 507.431 522.207C507.132 522.067 506.647 521.922 505.975 521.773C505.238 521.614 504.622 521.446 504.127 521.269C503.632 521.082 503.208 520.788 502.853 520.387C502.498 519.986 502.321 519.444 502.321 518.763C502.321 518.166 502.484 517.629 502.811 517.153C503.138 516.668 503.623 516.285 504.267 516.005C504.92 515.725 505.718 515.585 506.661 515.585C507.305 515.585 507.94 515.66 508.565 515.809C509.19 515.949 509.741 516.159 510.217 516.439L509.363 518.497C508.43 517.993 507.524 517.741 506.647 517.741C506.096 517.741 505.695 517.825 505.443 517.993C505.191 518.152 505.065 518.362 505.065 518.623C505.065 518.884 505.214 519.08 505.513 519.211C505.812 519.342 506.292 519.477 506.955 519.617C507.702 519.776 508.318 519.948 508.803 520.135C509.298 520.312 509.722 520.602 510.077 521.003C510.441 521.395 510.623 521.932 510.623 522.613C510.623 523.201 510.46 523.733 510.133 524.209C509.806 524.685 509.316 525.068 508.663 525.357C508.01 525.637 507.216 525.777 506.283 525.777ZM450.044 537.471C450.604 537.667 451.042 537.975 451.36 538.395C451.677 538.806 451.836 539.305 451.836 539.893C451.836 540.752 451.49 541.414 450.8 541.881C450.109 542.348 449.11 542.581 447.804 542.581H442.512V532.781H447.524C448.774 532.781 449.726 533.014 450.38 533.481C451.033 533.938 451.36 534.559 451.36 535.343C451.36 535.81 451.243 536.23 451.01 536.603C450.786 536.967 450.464 537.256 450.044 537.471ZM445.256 534.783V536.673H447.16C448.093 536.673 448.56 536.356 448.56 535.721C448.56 535.096 448.093 534.783 447.16 534.783H445.256ZM447.58 540.579C448.55 540.579 449.036 540.248 449.036 539.585C449.036 538.922 448.55 538.591 447.58 538.591H445.256V540.579H447.58ZM457.794 542.777C456.338 542.777 455.204 542.38 454.392 541.587C453.589 540.794 453.188 539.669 453.188 538.213V532.781H455.96V538.129C455.96 539.697 456.58 540.481 457.822 540.481C459.054 540.481 459.67 539.697 459.67 538.129V532.781H462.4V538.213C462.4 539.669 461.994 540.794 461.182 541.587C460.379 542.38 459.25 542.777 457.794 542.777ZM467.721 542.777C466.928 542.777 466.158 542.679 465.411 542.483C464.665 542.287 464.058 542.026 463.591 541.699L464.501 539.655C464.94 539.944 465.449 540.178 466.027 540.355C466.606 540.532 467.175 540.621 467.735 540.621C468.799 540.621 469.331 540.355 469.331 539.823C469.331 539.543 469.177 539.338 468.869 539.207C468.571 539.067 468.085 538.922 467.413 538.773C466.676 538.614 466.06 538.446 465.565 538.269C465.071 538.082 464.646 537.788 464.291 537.387C463.937 536.986 463.759 536.444 463.759 535.763C463.759 535.166 463.923 534.629 464.249 534.153C464.576 533.668 465.061 533.285 465.705 533.005C466.359 532.725 467.157 532.585 468.099 532.585C468.743 532.585 469.378 532.66 470.003 532.809C470.629 532.949 471.179 533.159 471.655 533.439L470.801 535.497C469.868 534.993 468.963 534.741 468.085 534.741C467.535 534.741 467.133 534.825 466.881 534.993C466.629 535.152 466.503 535.362 466.503 535.623C466.503 535.884 466.653 536.08 466.951 536.211C467.25 536.342 467.731 536.477 468.393 536.617C469.14 536.776 469.756 536.948 470.241 537.135C470.736 537.312 471.161 537.602 471.515 538.003C471.879 538.395 472.061 538.932 472.061 539.613C472.061 540.201 471.898 540.733 471.571 541.209C471.245 541.685 470.755 542.068 470.101 542.357C469.448 542.637 468.655 542.777 467.721 542.777ZM473.342 532.781H476.114V542.581H473.342V532.781ZM487.41 532.781V542.581H485.128L480.802 537.359V542.581H478.086V532.781H480.368L484.694 538.003V532.781H487.41ZM497.233 540.439V542.581H489.365V532.781H497.051V534.923H492.109V536.575H496.463V538.647H492.109V540.439H497.233ZM502.216 542.777C501.422 542.777 500.652 542.679 499.906 542.483C499.159 542.287 498.552 542.026 498.086 541.699L498.996 539.655C499.434 539.944 499.943 540.178 500.522 540.355C501.1 540.532 501.67 540.621 502.23 540.621C503.294 540.621 503.826 540.355 503.826 539.823C503.826 539.543 503.672 539.338 503.364 539.207C503.065 539.067 502.58 538.922 501.908 538.773C501.17 538.614 500.554 538.446 500.06 538.269C499.565 538.082 499.14 537.788 498.786 537.387C498.431 536.986 498.254 536.444 498.254 535.763C498.254 535.166 498.417 534.629 498.744 534.153C499.07 533.668 499.556 533.285 500.2 533.005C500.853 532.725 501.651 532.585 502.594 532.585C503.238 532.585 503.872 532.66 504.498 532.809C505.123 532.949 505.674 533.159 506.15 533.439L505.296 535.497C504.362 534.993 503.457 534.741 502.58 534.741C502.029 534.741 501.628 534.825 501.376 534.993C501.124 535.152 500.998 535.362 500.998 535.623C500.998 535.884 501.147 536.08 501.446 536.211C501.744 536.342 502.225 536.477 502.888 536.617C503.634 536.776 504.25 536.948 504.736 537.135C505.23 537.312 505.655 537.602 506.01 538.003C506.374 538.395 506.556 538.932 506.556 539.613C506.556 540.201 506.392 540.733 506.066 541.209C505.739 541.685 505.249 542.068 504.596 542.357C503.942 542.637 503.149 542.777 502.216 542.777ZM511.28 542.777C510.487 542.777 509.717 542.679 508.97 542.483C508.223 542.287 507.617 542.026 507.15 541.699L508.06 539.655C508.499 539.944 509.007 540.178 509.586 540.355C510.165 540.532 510.734 540.621 511.294 540.621C512.358 540.621 512.89 540.355 512.89 539.823C512.89 539.543 512.736 539.338 512.428 539.207C512.129 539.067 511.644 538.922 510.972 538.773C510.235 538.614 509.619 538.446 509.124 538.269C508.629 538.082 508.205 537.788 507.85 537.387C507.495 536.986 507.318 536.444 507.318 535.763C507.318 535.166 507.481 534.629 507.808 534.153C508.135 533.668 508.62 533.285 509.264 533.005C509.917 532.725 510.715 532.585 511.658 532.585C512.302 532.585 512.937 532.66 513.562 532.809C514.187 532.949 514.738 533.159 515.214 533.439L514.36 535.497C513.427 534.993 512.521 534.741 511.644 534.741C511.093 534.741 510.692 534.825 510.44 534.993C510.188 535.152 510.062 535.362 510.062 535.623C510.062 535.884 510.211 536.08 510.51 536.211C510.809 536.342 511.289 536.477 511.952 536.617C512.699 536.776 513.315 536.948 513.8 537.135C514.295 537.312 514.719 537.602 515.074 538.003C515.438 538.395 515.62 538.932 515.62 539.613C515.62 540.201 515.457 540.733 515.13 541.209C514.803 541.685 514.313 542.068 513.66 542.357C513.007 542.637 512.213 542.777 511.28 542.777Z" fill="white"/>
<path d="M223.127 525.777C222.091 525.777 221.158 525.558 220.327 525.119C219.506 524.68 218.857 524.074 218.381 523.299C217.914 522.524 217.681 521.652 217.681 520.681C217.681 519.71 217.914 518.838 218.381 518.063C218.857 517.288 219.506 516.682 220.327 516.243C221.158 515.804 222.091 515.585 223.127 515.585C224.163 515.585 225.092 515.804 225.913 516.243C226.744 516.682 227.392 517.288 227.859 518.063C228.335 518.838 228.573 519.71 228.573 520.681C228.573 521.652 228.335 522.524 227.859 523.299C227.392 524.074 226.744 524.68 225.913 525.119C225.092 525.558 224.163 525.777 223.127 525.777ZM223.127 523.481C223.622 523.481 224.07 523.364 224.471 523.131C224.872 522.898 225.19 522.571 225.423 522.151C225.656 521.722 225.773 521.232 225.773 520.681C225.773 520.13 225.656 519.645 225.423 519.225C225.19 518.796 224.872 518.464 224.471 518.231C224.07 517.998 223.622 517.881 223.127 517.881C222.632 517.881 222.184 517.998 221.783 518.231C221.382 518.464 221.064 518.796 220.831 519.225C220.598 519.645 220.481 520.13 220.481 520.681C220.481 521.232 220.598 521.722 220.831 522.151C221.064 522.571 221.382 522.898 221.783 523.131C222.184 523.364 222.632 523.481 223.127 523.481ZM232.797 517.923V520.079H237.123V522.221H232.797V525.581H230.025V515.781H237.711V517.923H232.797ZM241.779 517.923V520.079H246.105V522.221H241.779V525.581H239.007V515.781H246.693V517.923H241.779ZM247.99 515.781H250.762V525.581H247.99V515.781ZM257.62 525.777C256.593 525.777 255.669 525.562 254.848 525.133C254.036 524.694 253.397 524.088 252.93 523.313C252.463 522.538 252.23 521.661 252.23 520.681C252.23 519.701 252.463 518.824 252.93 518.049C253.397 517.274 254.036 516.672 254.848 516.243C255.669 515.804 256.593 515.585 257.62 515.585C258.516 515.585 259.323 515.744 260.042 516.061C260.761 516.378 261.358 516.836 261.834 517.433L260.07 519.029C259.435 518.264 258.665 517.881 257.76 517.881C257.228 517.881 256.752 517.998 256.332 518.231C255.921 518.464 255.599 518.796 255.366 519.225C255.142 519.645 255.03 520.13 255.03 520.681C255.03 521.232 255.142 521.722 255.366 522.151C255.599 522.571 255.921 522.898 256.332 523.131C256.752 523.364 257.228 523.481 257.76 523.481C258.665 523.481 259.435 523.098 260.07 522.333L261.834 523.929C261.358 524.526 260.761 524.984 260.042 525.301C259.323 525.618 258.516 525.777 257.62 525.777ZM263.07 515.781H265.842V525.581H263.07V515.781ZM274.38 523.677H270.236L269.466 525.581H266.638L270.964 515.781H273.694L278.034 525.581H275.15L274.38 523.677ZM273.568 521.633L272.308 518.497L271.048 521.633H273.568ZM278.82 515.781H281.592V523.383H286.268V525.581H278.82V515.781ZM214.425 540.439V542.581H206.557V532.781H214.243V534.923H209.301V536.575H213.655V538.647H209.301V540.439H214.425ZM222.069 542.581L220.039 539.543L218.037 542.581H214.873L218.443 537.625L215.027 532.781H218.149L220.109 535.609L222.041 532.781H225.037L221.621 537.513L225.261 542.581H222.069ZM230.734 542.777C229.707 542.777 228.783 542.562 227.962 542.133C227.15 541.694 226.511 541.088 226.044 540.313C225.577 539.538 225.344 538.661 225.344 537.681C225.344 536.701 225.577 535.824 226.044 535.049C226.511 534.274 227.15 533.672 227.962 533.243C228.783 532.804 229.707 532.585 230.734 532.585C231.63 532.585 232.437 532.744 233.156 533.061C233.875 533.378 234.472 533.836 234.948 534.433L233.184 536.029C232.549 535.264 231.779 534.881 230.874 534.881C230.342 534.881 229.866 534.998 229.446 535.231C229.035 535.464 228.713 535.796 228.48 536.225C228.256 536.645 228.144 537.13 228.144 537.681C228.144 538.232 228.256 538.722 228.48 539.151C228.713 539.571 229.035 539.898 229.446 540.131C229.866 540.364 230.342 540.481 230.874 540.481C231.779 540.481 232.549 540.098 233.184 539.333L234.948 540.929C234.472 541.526 233.875 541.984 233.156 542.301C232.437 542.618 231.63 542.777 230.734 542.777ZM245.508 532.781V542.581H242.736V538.759H238.956V542.581H236.184V532.781H238.956V536.463H242.736V532.781H245.508ZM254.029 540.677H249.885L249.115 542.581H246.287L250.613 532.781H253.343L257.683 542.581H254.799L254.029 540.677ZM253.217 538.633L251.957 535.497L250.697 538.633H253.217ZM267.793 532.781V542.581H265.511L261.185 537.359V542.581H258.469V532.781H260.751L265.077 538.003V532.781H267.793ZM276.315 537.471H278.765V541.531C278.205 541.932 277.561 542.24 276.833 542.455C276.105 542.67 275.377 542.777 274.649 542.777C273.622 542.777 272.698 542.562 271.877 542.133C271.055 541.694 270.411 541.088 269.945 540.313C269.478 539.538 269.245 538.661 269.245 537.681C269.245 536.701 269.478 535.824 269.945 535.049C270.411 534.274 271.06 533.672 271.891 533.243C272.721 532.804 273.659 532.585 274.705 532.585C275.619 532.585 276.441 532.739 277.169 533.047C277.897 533.355 278.503 533.798 278.989 534.377L277.225 535.973C276.562 535.245 275.769 534.881 274.845 534.881C274.005 534.881 273.328 535.138 272.815 535.651C272.301 536.155 272.045 536.832 272.045 537.681C272.045 538.222 272.161 538.708 272.395 539.137C272.628 539.557 272.955 539.888 273.375 540.131C273.795 540.364 274.275 540.481 274.817 540.481C275.349 540.481 275.848 540.374 276.315 540.159V537.471ZM288.39 540.439V542.581H280.522V532.781H288.208V534.923H283.266V536.575H287.62V538.647H283.266V540.439H288.39ZM293.372 542.777C292.579 542.777 291.809 542.679 291.062 542.483C290.316 542.287 289.709 542.026 289.242 541.699L290.152 539.655C290.591 539.944 291.1 540.178 291.678 540.355C292.257 540.532 292.826 540.621 293.386 540.621C294.45 540.621 294.982 540.355 294.982 539.823C294.982 539.543 294.828 539.338 294.52 539.207C294.222 539.067 293.736 538.922 293.064 538.773C292.327 538.614 291.711 538.446 291.216 538.269C290.722 538.082 290.297 537.788 289.942 537.387C289.588 536.986 289.41 536.444 289.41 535.763C289.41 535.166 289.574 534.629 289.9 534.153C290.227 533.668 290.712 533.285 291.356 533.005C292.01 532.725 292.808 532.585 293.75 532.585C294.394 532.585 295.029 532.66 295.654 532.809C296.28 532.949 296.83 533.159 297.306 533.439L296.452 535.497C295.519 534.993 294.614 534.741 293.736 534.741C293.186 534.741 292.784 534.825 292.532 534.993C292.28 535.152 292.154 535.362 292.154 535.623C292.154 535.884 292.304 536.08 292.602 536.211C292.901 536.342 293.382 536.477 294.044 536.617C294.791 536.776 295.407 536.948 295.892 537.135C296.387 537.312 296.812 537.602 297.166 538.003C297.53 538.395 297.712 538.932 297.712 539.613C297.712 540.201 297.549 540.733 297.222 541.209C296.896 541.685 296.406 542.068 295.752 542.357C295.099 542.637 294.306 542.777 293.372 542.777Z" fill="white"/>
<g filter="url(#filter0_d_0_1964)">
<path d="M268.592 133.136C258.928 133.136 251.092 140.972 251.092 150.636C251.092 160.3 258.928 168.136 268.592 168.136C278.256 168.136 286.092 160.3 286.092 150.636C286.092 140.972 278.256 133.136 268.592 133.136ZM269.463 159.12L269.471 160.358C269.471 160.53 269.33 160.675 269.158 160.675H268.049C267.877 160.675 267.736 160.534 267.736 160.362V159.136C264.268 158.878 262.635 156.901 262.459 154.753C262.443 154.569 262.588 154.413 262.771 154.413H264.576C264.729 154.413 264.861 154.522 264.885 154.671C265.084 155.909 266.049 156.835 267.779 157.065V151.491L266.814 151.245C264.771 150.757 262.826 149.483 262.826 146.843C262.826 143.995 264.99 142.464 267.756 142.194V140.905C267.756 140.733 267.896 140.593 268.068 140.593H269.166C269.338 140.593 269.479 140.733 269.479 140.905V142.183C272.154 142.452 274.162 144.015 274.396 146.448C274.416 146.632 274.271 146.792 274.084 146.792H272.33C272.174 146.792 272.041 146.675 272.021 146.522C271.865 145.382 270.951 144.452 269.463 144.249V149.495L270.455 149.726C272.986 150.351 274.709 151.562 274.709 154.272C274.709 157.214 272.521 158.854 269.463 159.12ZM265.256 146.663C265.256 147.655 265.869 148.425 267.189 148.901C267.373 148.976 267.557 149.034 267.775 149.097V144.253C266.334 144.437 265.256 145.245 265.256 146.663ZM269.807 151.944C269.697 151.921 269.588 151.894 269.463 151.858V157.081C271.127 156.933 272.275 156.019 272.275 154.487C272.275 153.288 271.654 152.507 269.807 151.944Z" fill="white"/>
</g>
<line x1="250.736" y1="174.521" x2="287.591" y2="174.521" stroke="white" stroke-width="2" stroke-linecap="round"/>
<g clip-path="url(#clip0_0_1964)">
<g filter="url(#filter1_d_0_1964)">
<path d="M542.641 221.981H550.974V218.648C550.974 217.609 550.65 216.595 550.048 215.749C549.445 214.902 548.594 214.264 547.612 213.924C546.63 213.584 545.567 213.558 544.569 213.849C543.572 214.141 542.691 214.737 542.047 215.553M542.641 221.981H525.974M542.641 221.981V218.648C542.641 217.554 542.431 216.509 542.047 215.553M542.047 215.553C541.428 214.006 540.36 212.68 538.981 211.746C537.601 210.812 535.973 210.313 534.307 210.313C532.641 210.313 531.014 210.812 529.634 211.746C528.254 212.68 527.186 214.006 526.567 215.553M525.974 221.981H517.641V218.648C517.641 217.609 517.965 216.595 518.567 215.749C519.17 214.902 520.021 214.264 521.003 213.924C521.984 213.584 523.048 213.558 524.045 213.849C525.042 214.141 525.924 214.737 526.567 215.553M525.974 221.981V218.648C525.974 217.554 526.184 216.509 526.567 215.553M539.307 200.314C539.307 201.641 538.781 202.912 537.843 203.85C536.905 204.788 535.633 205.314 534.307 205.314C532.981 205.314 531.709 204.788 530.772 203.85C529.834 202.912 529.307 201.641 529.307 200.314C529.307 198.988 529.834 197.717 530.772 196.779C531.709 195.841 532.981 195.314 534.307 195.314C535.633 195.314 536.905 195.841 537.843 196.779C538.781 197.717 539.307 198.988 539.307 200.314ZM549.307 205.314C549.307 206.199 548.956 207.046 548.331 207.671C547.706 208.297 546.858 208.648 545.974 208.648C545.09 208.648 544.242 208.297 543.617 207.671C542.992 207.046 542.641 206.199 542.641 205.314C542.641 204.43 542.992 203.583 543.617 202.957C544.242 202.332 545.09 201.981 545.974 201.981C546.858 201.981 547.706 202.332 548.331 202.957C548.956 203.583 549.307 204.43 549.307 205.314ZM525.974 205.314C525.974 206.199 525.623 207.046 524.998 207.671C524.373 208.297 523.525 208.648 522.641 208.648C521.757 208.648 520.909 208.297 520.284 207.671C519.658 207.046 519.307 206.199 519.307 205.314C519.307 204.43 519.658 203.583 520.284 202.957C520.909 202.332 521.757 201.981 522.641 201.981C523.525 201.981 524.373 202.332 524.998 202.957C525.623 203.583 525.974 204.43 525.974 205.314Z" stroke="white" stroke-width="2" stroke-linecap="round" stroke-linejoin="round" shape-rendering="crispEdges"/>
</g>
</g>
<line x1="516.523" y1="234.647" x2="553.378" y2="234.647" stroke="white" stroke-width="2" stroke-linecap="round"/>
<g filter="url(#filter2_d_0_1964)">
<path d="M564.19 453.5H553.531C550.777 453.5 548.501 455.775 548.501 458.65V459.847H542.753C540.597 459.847 538.801 461.644 538.801 463.919V484.039C538.801 486.314 540.597 488.111 542.753 488.111H550.058H574.849C577.004 488.111 578.801 486.314 578.801 484.039V463.919C578.801 461.644 577.004 459.847 574.849 459.847H569.1V458.65C569.1 455.775 566.944 453.5 564.19 453.5ZM554.968 486.314H553.891V461.045H554.968V486.314ZM561.795 486.314H555.807V461.045H561.795V486.314ZM563.711 486.314H562.753H562.633V461.045H562.753H563.711V486.314ZM564.43 459.847H553.292V458.65C553.292 458.53 553.412 458.41 553.531 458.41H564.19C564.31 458.41 564.43 458.53 564.43 458.65V459.847ZM574.849 461.524C576.166 461.524 577.124 462.602 577.124 463.919V484.039C577.124 485.356 576.046 486.434 574.849 486.434H564.549V461.524H565.148C565.627 461.524 565.986 461.165 565.986 460.686V458.65C565.986 457.572 565.148 456.734 564.19 456.734H553.531C552.454 456.734 551.735 457.572 551.735 458.65V460.686C551.735 461.165 552.094 461.524 552.573 461.524H553.172V486.434H542.873C541.555 486.434 540.597 485.356 540.597 484.039V463.919C540.597 462.602 541.675 461.524 542.873 461.524H549.459C549.939 461.524 550.298 461.165 550.298 460.686V458.65C550.298 456.734 551.855 455.177 553.651 455.177H564.31C566.226 455.177 567.663 456.734 567.663 458.65V460.686C567.663 461.165 568.022 461.524 568.501 461.524H574.849Z" fill="white"/>
</g>
<line x1="540.527" y1="496.859" x2="577.382" y2="496.859" stroke="white" stroke-width="2" stroke-linecap="round"/>
<g filter="url(#filter3_d_0_1964)">
<path d="M187.096 457L183.731 460.558C183.538 460.558 183.346 460.558 183.25 460.462C182 459.981 179.885 459.596 177.288 461.615L177.192 461.712L176.327 462.577C173.154 460.365 170.654 461.712 169.981 462.192L166.808 458.923L157 469.404L160.75 473.346C160.75 475.077 161.327 476.904 162.577 478.731C163.058 479.5 163.635 480.173 164.212 480.846C164.981 481.712 165.75 482.481 166.519 483.346C165.654 484.692 166.038 485.75 166.904 486.712C167.769 487.673 168.635 487.865 169.885 487.481C170.75 488.923 171.615 489.596 172.481 489.596C172.865 489.981 173.25 490.365 173.538 490.75C174.596 491.904 176.327 492.096 177.577 491.327C178.154 490.942 178.25 490.654 178.538 490.173C180.75 492.192 182.192 492.192 184.019 489.404C185.269 489.788 186.135 489.692 187 488.635C187.962 487.577 188.25 486.519 187.288 485.077L187 484.692C187.769 484.692 188.346 484.212 188.635 483.731C189.5 482.577 189.404 481.327 188.538 480.077C188.923 479.692 189.308 479.212 189.788 478.827C190.365 478.154 190.942 477.481 191.423 476.712C192.577 474.885 193.154 473.058 193.25 471.327L197 467.385L187.096 457ZM164.788 479.404C163.635 478.154 162.769 476.712 162.385 475.173C162.288 474.788 162.288 474.5 162.192 474.115C162.192 473.827 162.192 473.538 162.192 473.154L158.442 469.115L166.615 460.462L169.212 463.25L169.404 463.442L170.654 463.538L170.75 463.346C171.231 462.962 173.346 461.808 176.038 464.019L179.692 467.865C179.885 468.058 179.981 468.346 179.981 468.635C179.981 468.923 179.885 469.212 179.692 469.404L179.404 469.692C179.019 470.077 178.442 470.077 178.058 469.692L174.308 465.75L173.442 466.423L174.5 467.673L174.981 468.154C174.596 468.635 174.115 469.019 173.731 469.5C173.635 469.596 173.538 469.692 173.538 469.885C173.538 469.885 173.538 469.885 173.442 469.981C170.942 472.673 168.442 475.269 165.942 477.962C165.269 478.346 164.981 478.827 164.788 479.404ZM176.904 490.173C176.615 490.462 176.327 490.654 175.846 490.558C175.269 490.462 174.885 489.981 174.596 489.692C174.404 489.5 174.212 489.308 174.115 489.115C174.5 488.923 174.981 488.538 175.462 488.154C175.75 488.635 175.846 488.923 176.423 489.308C176.712 489.5 176.904 489.596 177.192 489.692C177.096 489.885 177 490.077 176.904 490.173ZM182.288 489.692C181.712 490.365 181.135 490.462 180.269 489.692C180.173 489.596 179.981 489.404 179.885 489.308C180.077 489.212 180.269 489.019 180.365 488.923C180.846 488.442 181.327 487.962 181.808 487.481C181.904 487.577 181.904 487.577 182 487.673C182.673 488.346 182.769 489.019 182.288 489.692ZM186.135 487.481C185.558 488.346 184.692 488.346 183.923 487.481C183.538 487.096 183.154 486.712 182.769 486.231C183.442 485.558 184.019 484.885 184.692 484.308C185.077 484.692 185.365 485.077 185.75 485.462C186.423 486.135 186.615 486.904 186.135 487.481ZM187.769 482.673C187.481 483.442 186.615 483.827 185.942 483.442C185.846 483.442 185.846 483.346 185.75 483.346C186.327 482.673 187 482.096 187.577 481.423C187.769 481.712 187.962 482.096 187.769 482.673ZM191.712 471.135C191.712 471.423 191.712 471.808 191.712 472.096C191.712 472.481 191.615 472.865 191.519 473.154C191.135 474.788 190.269 476.135 189.115 477.385C187.577 479.115 185.942 480.75 184.404 482.481C182.769 484.212 181.038 486.038 179.404 487.769C179.115 488.058 178.731 488.538 178.154 488.635C177.769 488.635 177.385 488.538 177.096 488.25C176.808 487.962 176.712 487.288 176.808 486.904C176.904 486.423 177.288 486.038 177.577 485.75C178.346 484.885 179.115 484.115 179.885 483.346C180.269 482.962 180.654 482.577 181.038 482.192C181.423 481.808 182.577 480.846 181.904 480.173C181.327 479.596 180.462 480.75 180.077 481.135C179.692 481.519 179.308 481.904 178.923 482.288C177.192 484.115 175.462 485.942 173.635 487.769C172.769 488.538 172.192 488.538 171.615 487.769C171.038 487.096 171.231 486.423 172 485.654C174.019 483.538 176.038 481.423 177.962 479.308C178.25 479.019 178.442 478.827 178.538 478.346C178.538 478.058 178.442 477.673 178.154 477.673C177.577 477.577 177.385 477.769 177 478.154C174.692 480.654 172.288 483.154 169.981 485.654C169.212 486.423 168.346 486.423 167.769 485.654C167.385 485.077 167.481 484.308 168.154 483.635C170.558 481.135 172.962 478.538 175.365 476.038C175.75 475.654 176.038 475.173 175.558 474.692C175.077 474.212 174.692 474.596 174.308 474.981C172.481 476.904 170.654 478.923 168.731 480.846C168.442 481.135 168.25 481.327 167.962 481.519C167.288 481.904 166.423 481.519 166.135 480.75C165.846 479.981 166.231 479.5 166.712 479.019C169.788 475.75 172.865 472.577 175.846 469.308L177.096 470.654C177.481 471.135 178.058 471.327 178.635 471.327C179.212 471.327 179.788 471.135 180.173 470.654L180.462 470.365C180.846 469.885 181.135 469.308 181.135 468.731C181.135 468.154 180.942 467.577 180.558 467.192L177.769 464.212L177.192 463.635L177.962 462.865C179.115 461.904 180.173 461.615 180.942 461.615C182.481 461.423 183.827 462.288 183.827 462.288L184.692 461.423L187.288 458.635L195.462 467.288L191.712 471.135Z" fill="white"/>
</g>
<line x1="158.605" y1="500.668" x2="195.46" y2="500.668" stroke="white" stroke-width="2" stroke-linecap="round"/>
<g clip-path="url(#clip1_0_1964)">
<g filter="url(#filter4_d_0_1964)">
<path d="M199.507 204.969C199.508 202.075 200.659 199.299 202.706 197.252C204.753 195.205 207.528 194.055 210.423 194.053C216.417 194.053 221.34 198.751 221.34 204.803C221.338 207.697 220.187 210.473 218.14 212.52C216.094 214.567 213.318 215.718 210.423 215.719C209.55 215.715 208.681 215.601 207.837 215.379C207.817 215.918 207.589 216.428 207.201 216.802C206.813 217.176 206.295 217.386 205.757 217.386H202.84V220.303C202.84 221.453 201.907 222.386 200.757 222.386H197.84V224.469C197.84 225.243 197.533 225.985 196.986 226.532C196.439 227.079 195.697 227.386 194.923 227.386H190.757C189.983 227.386 189.241 227.079 188.694 226.532C188.147 225.985 187.84 225.243 187.84 224.469V220.849C187.84 219.633 188.323 218.468 189.183 217.609L199.573 207.216C199.624 207.163 199.661 207.098 199.681 207.027C199.702 206.956 199.705 206.882 199.69 206.809C199.575 206.203 199.514 205.587 199.507 204.969ZM215.007 202.303C215.007 201.75 214.787 201.22 214.396 200.83C214.006 200.439 213.476 200.219 212.923 200.219C212.371 200.219 211.841 200.439 211.45 200.83C211.059 201.22 210.84 201.75 210.84 202.303C210.84 202.855 211.059 203.385 211.45 203.776C211.841 204.167 212.371 204.386 212.923 204.386C213.476 204.386 214.006 204.167 214.396 203.776C214.787 203.385 215.007 202.855 215.007 202.303Z" fill="white"/>
</g>
</g>
<line x1="186.164" y1="236.277" x2="223.019" y2="236.277" stroke="white" stroke-width="2" stroke-linecap="round"/>
<ellipse cx="367.02" cy="366.136" rx="114" ry="114.5" fill="#F4ECED"/>
<path d="M366.875 449.143C320.86 449.143 283.449 411.926 283.449 366.15C283.449 320.244 320.73 283.156 366.875 283.156C413.02 283.156 450.301 320.374 450.301 366.15C450.301 411.926 412.889 449.143 366.875 449.143Z" fill="white"/>
<path d="M426.577 319.726C452.257 352.534 446.391 399.867 413.412 425.543C380.432 451.219 332.854 445.254 307.174 412.445C281.495 379.637 287.361 332.305 320.34 306.758C353.189 281.082 400.767 286.918 426.577 319.726Z" fill="url(#paint5_linear_0_1964)"/>
<path d="M405.59 323.227V385.601C405.59 393.901 399.072 400.644 390.86 400.644C382.778 400.644 376.13 393.901 376.13 385.601V331.656L356.838 337.232V367.187C356.838 375.487 350.32 382.1 342.108 382.23C334.026 382.23 327.378 375.487 327.378 367.187V345.661L308.086 351.237V367.057C308.086 386.25 323.337 401.681 341.978 401.681C348.104 401.681 353.709 399.996 358.663 397.272C363.355 410.629 375.869 420.225 390.599 420.225C409.37 420.225 424.491 404.664 424.491 385.601V317.65L405.59 323.227Z" fill="white"/>
<path d="M366.875 275.636C316.69 275.636 276.02 316.225 276.02 366.151C276.02 416.076 316.69 456.665 366.875 456.665C417.061 456.665 457.731 416.206 457.731 366.151C457.731 316.225 417.061 275.636 366.875 275.636ZM366.875 449.144C320.861 449.144 283.45 411.927 283.45 366.151C283.45 320.245 320.73 283.157 366.875 283.157C413.02 283.157 450.301 320.374 450.301 366.151C450.301 411.927 412.89 449.144 366.875 449.144Z" fill="#32352C"/>
<defs>
<filter id="filter0_d_0_1964" x="244.092" y="130.136" width="49" height="49" filterUnits="userSpaceOnUse" color-interpolation-filters="sRGB">
<feFlood flood-opacity="0" result="BackgroundImageFix"/>
<feColorMatrix in="SourceAlpha" type="matrix" values="0 0 0 0 0 0 0 0 0 0 0 0 0 0 0 0 0 0 127 0" result="hardAlpha"/>
<feOffset dy="4"/>
<feGaussianBlur stdDeviation="3.5"/>
<feComposite in2="hardAlpha" operator="out"/>
<feColorMatrix type="matrix" values="0 0 0 0 0 0 0 0 0 0 0 0 0 0 0 0 0 0 0.25 0"/>
<feBlend mode="normal" in2="BackgroundImageFix" result="effect1_dropShadow_0_1964"/>
<feBlend mode="normal" in="SourceGraphic" in2="effect1_dropShadow_0_1964" result="shape"/>
</filter>
<filter id="filter1_d_0_1964" x="509.641" y="191.314" width="49.3333" height="42.6666" filterUnits="userSpaceOnUse" color-interpolation-filters="sRGB">
<feFlood flood-opacity="0" result="BackgroundImageFix"/>
<feColorMatrix in="SourceAlpha" type="matrix" values="0 0 0 0 0 0 0 0 0 0 0 0 0 0 0 0 0 0 127 0" result="hardAlpha"/>
<feOffset dy="4"/>
<feGaussianBlur stdDeviation="3.5"/>
<feComposite in2="hardAlpha" operator="out"/>
<feColorMatrix type="matrix" values="0 0 0 0 0 0 0 0 0 0 0 0 0 0 0 0 0 0 0.25 0"/>
<feBlend mode="normal" in2="BackgroundImageFix" result="effect1_dropShadow_0_1964"/>
<feBlend mode="normal" in="SourceGraphic" in2="effect1_dropShadow_0_1964" result="shape"/>
</filter>
<filter id="filter2_d_0_1964" x="531.801" y="450.5" width="54" height="48.6108" filterUnits="userSpaceOnUse" color-interpolation-filters="sRGB">
<feFlood flood-opacity="0" result="BackgroundImageFix"/>
<feColorMatrix in="SourceAlpha" type="matrix" values="0 0 0 0 0 0 0 0 0 0 0 0 0 0 0 0 0 0 127 0" result="hardAlpha"/>
<feOffset dy="4"/>
<feGaussianBlur stdDeviation="3.5"/>
<feComposite in2="hardAlpha" operator="out"/>
<feColorMatrix type="matrix" values="0 0 0 0 0 0 0 0 0 0 0 0 0 0 0 0 0 0 0.25 0"/>
<feBlend mode="normal" in2="BackgroundImageFix" result="effect1_dropShadow_0_1964"/>
<feBlend mode="normal" in="SourceGraphic" in2="effect1_dropShadow_0_1964" result="shape"/>
</filter>
<filter id="filter3_d_0_1964" x="150" y="454" width="54" height="48.7885" filterUnits="userSpaceOnUse" color-interpolation-filters="sRGB">
<feFlood flood-opacity="0" result="BackgroundImageFix"/>
<feColorMatrix in="SourceAlpha" type="matrix" values="0 0 0 0 0 0 0 0 0 0 0 0 0 0 0 0 0 0 127 0" result="hardAlpha"/>
<feOffset dy="4"/>
<feGaussianBlur stdDeviation="3.5"/>
<feComposite in2="hardAlpha" operator="out"/>
<feColorMatrix type="matrix" values="0 0 0 0 0 0 0 0 0 0 0 0 0 0 0 0 0 0 0.25 0"/>
<feBlend mode="normal" in2="BackgroundImageFix" result="effect1_dropShadow_0_1964"/>
<feBlend mode="normal" in="SourceGraphic" in2="effect1_dropShadow_0_1964" result="shape"/>
</filter>
<filter id="filter4_d_0_1964" x="180.84" y="191.053" width="47.5" height="47.3334" filterUnits="userSpaceOnUse" color-interpolation-filters="sRGB">
<feFlood flood-opacity="0" result="BackgroundImageFix"/>
<feColorMatrix in="SourceAlpha" type="matrix" values="0 0 0 0 0 0 0 0 0 0 0 0 0 0 0 0 0 0 127 0" result="hardAlpha"/>
<feOffset dy="4"/>
<feGaussianBlur stdDeviation="3.5"/>
<feComposite in2="hardAlpha" operator="out"/>
<feColorMatrix type="matrix" values="0 0 0 0 0 0 0 0 0 0 0 0 0 0 0 0 0 0 0.25 0"/>
<feBlend mode="normal" in2="BackgroundImageFix" result="effect1_dropShadow_0_1964"/>
<feBlend mode="normal" in="SourceGraphic" in2="effect1_dropShadow_0_1964" result="shape"/>
</filter>
<linearGradient id="paint0_linear_0_1964" x1="366.562" y1="128.461" x2="366.562" y2="233.958" gradientUnits="userSpaceOnUse">
<stop stop-color="#FF993C"/>
<stop offset="1" stop-color="#FFB63C"/>
</linearGradient>
<linearGradient id="paint1_linear_0_1964" x1="496.313" y1="336.804" x2="617.438" y2="288.354" gradientUnits="userSpaceOnUse">
<stop stop-color="#E26714"/>
<stop offset="1" stop-color="#E0480A"/>
</linearGradient>
<linearGradient id="paint2_linear_0_1964" x1="524.751" y1="576.946" x2="445.757" y2="464.248" gradientUnits="userSpaceOnUse">
<stop stop-color="#F80174"/>
<stop offset="1" stop-color="#F74D74"/>
</linearGradient>
<linearGradient id="paint3_linear_0_1964" x1="210.308" y1="575.176" x2="285.106" y2="466.37" gradientUnits="userSpaceOnUse">
<stop stop-color="#403464"/>
<stop offset="1" stop-color="#4B3E86"/>
</linearGradient>
<linearGradient id="paint4_linear_0_1964" x1="135.741" y1="280.982" x2="244.666" y2="328.579" gradientUnits="userSpaceOnUse">
<stop stop-color="#2AA3F7"/>
<stop offset="1" stop-color="#2AB9F7"/>
</linearGradient>
<linearGradient id="paint5_linear_0_1964" x1="291.158" y1="366.143" x2="442.572" y2="366.143" gradientUnits="userSpaceOnUse">
<stop stop-color="#FFBA3B"/>
<stop offset="0.5315" stop-color="#FFA53B"/>
<stop offset="1" stop-color="#FF983B"/>
</linearGradient>
<clipPath id="clip0_0_1964">
<rect width="40" height="40" fill="white" transform="translate(514.307 188.647)"/>
</clipPath>
<clipPath id="clip1_0_1964">
<rect width="40" height="40" fill="white" transform="translate(184.59 190.636)"/>
</clipPath>
</defs>
</svg>
